<svg width="900" height="288" viewBox="0 0 900 288" fill="none" xmlns="http://www.w3.org/2000/svg">
<path d="M243 0.140245C252.807 -0.170178 261.632 -0.25901 271 3.14024C271.495 7.10024 271.495 7.10024 272 11.1402C275.604 11.1698 279.208 11.1872 282.812 11.2027C283.817 11.2111 284.822 11.2195 285.857 11.2281C298.051 11.7922 298.051 11.7922 309.187 8.07774C309.786 7.43837 310.384 6.79899 311 6.14024C316.493 8.18039 320.457 9.71573 323 15.1402C323.701 15.5734 324.402 16.0065 325.125 16.4527C327 18.1402 327 18.1402 327.437 21.7027C327.221 23.4043 327.221 23.4043 327 25.1402C323.578 27.4219 322.273 27.4075 318.243 27.4591C317.062 27.479 315.881 27.4988 314.665 27.5193C312.752 27.5366 312.752 27.5366 310.801 27.5543C308.843 27.5834 308.843 27.5834 306.845 27.613C303.378 27.6643 299.911 27.7039 296.444 27.7411C292.905 27.7812 289.365 27.8323 285.826 27.8824C278.884 27.9792 271.942 28.0636 265 28.1402C266.125 28.4058 267.251 28.6713 268.41 28.9449C269.595 29.3394 270.779 29.7338 272 30.1402C273.437 33.2652 273.437 33.2652 274 36.1402C283.6 36.3669 283.6 36.3669 292 32.5152C295 30.1402 295 30.1402 297.875 29.8277C302.831 31.9093 306.538 35.0424 310 39.1402C310.916 41.4023 311.475 43.6023 312.059 45.9684C313.643 49.623 316.702 51.3805 319.941 53.5348C322.184 55.2834 323.034 56.4894 324 59.1402C324.125 62.3902 324.125 62.3902 324 65.1402C320.651 67.1658 318.13 67.3576 314.25 67.2652C313.265 67.2472 312.28 67.2291 311.266 67.2106C310.518 67.1874 309.77 67.1641 309 67.1402C308.974 68.2488 308.948 69.3574 308.922 70.4996C308.866 71.9632 308.808 73.4267 308.75 74.8902C308.736 75.6199 308.722 76.3495 308.707 77.1012C308.549 80.5773 308.282 82.7554 306.203 85.5934C304.056 87.1007 302.577 87.7721 300 88.1402C300.47 88.5154 300.941 88.8905 301.426 89.277C308.416 95.0229 308.416 95.0229 310 99.1402C309.312 101.64 309.312 101.64 308 104.14C306.295 107.829 305.752 110.717 305.727 114.773C305.706 115.826 305.685 116.879 305.664 117.964C305.638 120.173 305.62 122.381 305.609 124.589C305.586 125.64 305.563 126.691 305.539 127.773C305.531 128.731 305.523 129.689 305.514 130.676C305 133.14 305 133.14 303.154 134.913C298.306 137.675 293.442 137.766 288 137.14C285.003 135.956 282.306 134.447 280 132.14C277.259 132.002 274.544 131.927 271.801 131.902C270.973 131.894 270.145 131.886 269.292 131.878C267.534 131.864 265.777 131.853 264.019 131.845C261.341 131.828 258.664 131.784 255.986 131.74C254.279 131.73 252.571 131.721 250.863 131.714C249.668 131.688 249.668 131.688 248.448 131.661C243.129 131.682 240.299 132.752 236 136.14C232.233 137.647 227.999 137.585 224 137.14C220.135 135.46 218.55 134.003 217 130.14C215.659 121.186 215.845 111.986 215.875 102.953C215.869 101.134 215.869 101.134 215.863 99.2789C215.865 98.1258 215.866 96.9728 215.867 95.7848C215.868 94.7468 215.869 93.7089 215.871 92.6395C216 90.1402 216 90.1402 217 88.1402C217.648 88.2095 218.297 88.2788 218.965 88.3502C229.843 89.3544 240.724 89.3612 251.641 89.3805C255.02 89.3903 258.398 89.4215 261.777 89.4527C263.935 89.4593 266.092 89.4645 268.25 89.4684C269.255 89.4807 270.26 89.4931 271.296 89.5058C278.151 89.5115 278.151 89.5115 284 86.1402C284.33 85.4802 284.66 84.8202 285 84.1402C284.153 84.1322 283.305 84.1241 282.432 84.1157C274.456 84.0379 266.481 83.9506 258.505 83.8527C254.405 83.8027 250.304 83.7564 246.204 83.7184C242.248 83.6816 238.293 83.6352 234.338 83.5822C232.827 83.5636 231.316 83.5485 229.805 83.5369C227.693 83.5201 225.581 83.4911 223.469 83.4591C222.266 83.4458 221.062 83.4324 219.822 83.4187C217 83.1402 217 83.1402 215 81.1402C214.672 78.4257 214.869 75.8879 215 73.1402C216.638 71.5026 218.554 71.9349 220.812 71.859C222.303 71.8029 222.303 71.8029 223.824 71.7457C224.872 71.7109 225.92 71.6761 227 71.6402C234.051 71.3989 240.997 71.0157 248 70.1402C248 68.8202 248 67.5002 248 66.1402C247.102 66.1507 246.203 66.1612 245.278 66.172C241.949 66.206 238.621 66.2311 235.292 66.2501C233.851 66.2602 232.41 66.2738 230.968 66.2911C228.898 66.3153 226.828 66.3267 224.758 66.3356C222.888 66.3513 222.888 66.3513 220.981 66.3673C218 66.1402 218 66.1402 216 64.1402C215.672 61.4257 215.869 58.8879 216 56.1402C217 55.1402 217 55.1402 219.5 55.0267C220.584 55.032 221.668 55.0372 222.785 55.0426C223.955 55.0458 225.125 55.049 226.33 55.0524C227.562 55.0607 228.793 55.0691 230.062 55.0777C231.916 55.0845 231.916 55.0845 233.807 55.0914C236.871 55.1032 239.936 55.1197 243 55.1402C243 54.4802 243 53.8202 243 53.1402C243.99 52.8102 244.98 52.4802 246 52.1402C246.495 51.1502 246.495 51.1502 247 50.1402C236.77 49.8102 226.54 49.4802 216 49.1402C214.153 45.4465 213.742 44.3127 213.812 40.4527C213.819 39.6651 213.825 38.8775 213.832 38.066C214 36.1402 214 36.1402 215 35.1402C217.376 35.0518 219.722 35.0249 222.098 35.0426C223.161 35.0447 223.161 35.0447 224.246 35.0469C226.518 35.0525 228.79 35.065 231.062 35.0777C232.6 35.0828 234.137 35.0873 235.674 35.0914C239.449 35.1025 243.225 35.1197 247 35.1402C247 32.5002 247 29.8602 247 27.1402C242.437 27.4475 237.875 27.7619 233.312 28.0777C232.019 28.1648 230.725 28.2518 229.393 28.3414C228.145 28.4284 226.898 28.5154 225.613 28.6051C223.893 28.7229 223.893 28.7229 222.138 28.8431C219.34 29.108 216.71 29.3943 214 30.1402C211.198 35.7435 211.844 43.4176 211.754 49.5856C211.721 51.1741 211.688 52.7626 211.654 54.3512C211.607 56.7991 211.563 59.2469 211.523 61.6949C211.116 85.8235 208.331 112.222 190.719 130.554C183.891 136.855 183.891 136.855 178.687 137.64C177.801 137.475 176.914 137.31 176 137.14C173.566 133.489 173.371 132.463 174 128.14C176.185 123.713 178.679 119.547 182.066 115.941C184.796 111.987 185.367 108.069 186.187 103.39C186.434 102.106 186.434 102.106 186.686 100.796C188.554 90.8102 189.15 81.1554 189.133 70.9957C189.134 69.7495 189.135 68.5034 189.136 67.2194C189.137 63.9246 189.133 60.6299 189.127 57.3351C189.124 54.0143 189.131 50.6935 189.137 47.3727C189.136 44.8095 189.135 42.2464 189.133 39.6832C189.135 38.5047 189.137 37.3262 189.139 36.112C189.121 29.5474 188.821 23.1107 188.116 16.5821C188 14.1402 188 14.1402 189 11.1402C189.712 11.1758 190.424 11.2113 191.158 11.2479C208.516 12.0793 225.647 12.0771 243 11.1402C243 7.51024 243 3.88024 243 0.140245ZM273 49.1402C272.67 49.8002 272.34 50.4602 272 51.1402C276.62 51.1402 281.24 51.1402 286 51.1402C286 50.4802 286 49.8202 286 49.1402C281.71 49.1402 277.42 49.1402 273 49.1402ZM277.25 66.6402C276.051 66.7795 276.051 66.7795 274.828 66.9215C273.923 67.0298 273.923 67.0298 273 67.1402C273 67.8002 273 68.4602 273 69.1402C277.29 69.1402 281.58 69.1402 286 69.1402C286 68.1502 286 67.1602 286 66.1402C282.981 66.1402 280.229 66.2898 277.25 66.6402ZM238 107.14C237.901 108.596 237.87 110.056 237.875 111.515C237.872 112.307 237.87 113.098 237.867 113.914C237.914 116.314 237.914 116.314 239 119.14C243.696 119.165 248.391 119.183 253.087 119.195C254.681 119.2 256.276 119.207 257.87 119.216C260.174 119.228 262.477 119.234 264.781 119.238C265.835 119.246 265.835 119.246 266.91 119.254C271.687 119.254 276.269 118.81 281 118.14C281 117.15 281 116.16 281 115.14C281.66 115.14 282.32 115.14 283 115.14C283 112.5 283 109.86 283 107.14C280.722 106.001 279.463 106.014 276.933 106.011C276.096 106.008 275.258 106.005 274.395 106.001C273.038 106.004 273.038 106.004 271.652 106.007C270.262 106.006 270.262 106.006 268.843 106.005C266.882 106.004 264.921 106.006 262.96 106.01C259.946 106.015 256.933 106.01 253.92 106.004C252.018 106.004 250.117 106.005 248.215 106.007C247.308 106.005 246.4 106.003 245.466 106.001C241.411 105.604 241.411 105.604 238 107.14Z" fill="#472A18"/>
<path d="M497.411 171.995C498.785 171.985 498.785 171.985 500.186 171.976C501.182 171.975 502.177 171.973 503.203 171.972C504.233 171.969 505.262 171.966 506.322 171.962C508.512 171.957 510.701 171.955 512.89 171.955C516.195 171.953 519.5 171.935 522.805 171.916C560.523 171.812 560.523 171.812 572.598 183.355C576.998 188.957 578.701 195.577 578.391 202.621C577.385 209.108 574.74 215.532 570 220.14C567.404 221.938 564.742 223.576 562 225.14C563.732 226.295 565.49 227.416 567.305 228.437C574.968 232.769 579.477 236.86 583 245.14C585.234 254.452 584.967 263.796 580 272.14C572.966 281.558 563.594 284.889 552.367 286.708C546.879 287.412 541.429 287.465 535.902 287.476C534.706 287.483 533.509 287.49 532.276 287.496C529.771 287.506 527.266 287.511 524.761 287.511C520.916 287.515 517.073 287.552 513.229 287.59C510.786 287.595 508.344 287.599 505.902 287.601C504.752 287.616 503.602 287.63 502.418 287.645C500.824 287.636 500.824 287.636 499.199 287.626C498.265 287.629 497.331 287.632 496.368 287.635C494 287.14 494 287.14 492.175 285.301C491 283.14 491 283.14 491 280.078C492.261 276.375 493.64 275.943 497 274.14C502.689 265.863 500.088 248.201 499.914 238.683C499.892 237.278 499.871 235.874 499.85 234.469C499.805 231.564 499.756 228.659 499.703 225.754C499.636 222.033 499.579 218.312 499.525 214.591C499.482 211.708 499.435 208.825 499.386 205.942C499.363 204.568 499.342 203.195 499.321 201.821C499.293 199.915 499.257 198.008 499.221 196.102C499.203 195.02 499.184 193.938 499.165 192.823C499.109 190.039 499.109 190.039 498 187.14C497.031 186.336 496.061 185.532 495.062 184.703C490.856 181.183 490.856 181.183 490 178.14C490.25 175.453 490.25 175.453 491 173.14C493.357 171.962 494.783 172.007 497.411 171.995ZM525 190.14C524.951 194.234 524.914 198.327 524.89 202.421C524.88 203.813 524.866 205.206 524.849 206.599C524.825 208.6 524.815 210.601 524.805 212.601C524.794 213.806 524.784 215.01 524.773 216.251C524.695 219.269 524.695 219.269 527 221.14C534.478 222.13 540.762 221.45 547 217.14C547.784 216.604 548.567 216.068 549.375 215.515C552.341 211.18 553.478 206.059 552.625 200.851C551.129 196.313 549.135 193.7 545 191.14C541.331 189.414 538.483 188.891 534.438 188.953C533.508 188.959 532.579 188.966 531.621 188.972C529.264 189.123 527.27 189.535 525 190.14ZM526 236.14C526 248.02 526 259.9 526 272.14C538.881 272.255 538.881 272.255 550.961 267.554C551.428 266.964 551.894 266.374 552.375 265.765C552.857 265.18 553.339 264.595 553.836 263.992C556.368 259.965 556.316 255.802 556 251.14C554.222 245.178 551.213 241.41 546 238.14C538.84 235.402 538.84 235.402 526 236.14Z" fill="#452817"/>
<path d="M258.82 171.91C260.564 171.911 260.564 171.911 262.344 171.913C264.215 171.932 264.215 171.932 266.125 171.953C267.412 171.962 268.699 171.971 270.026 171.981C274.018 172.019 278.008 172.077 282 172.14C283.823 172.161 283.823 172.161 285.682 172.183C319.164 172.632 319.164 172.632 330 183.14C330.563 183.676 331.127 184.213 331.707 184.765C338.355 191.752 339.578 199.64 339.558 209.044C339.231 217.001 336.359 223.478 330.961 229.363C327.846 232.204 324.824 234.356 321 236.14C322.298 240.379 323.917 244.084 326.082 247.949C326.685 249.026 327.287 250.103 327.908 251.212C328.537 252.323 329.165 253.433 329.812 254.578C330.429 255.684 331.046 256.791 331.682 257.931C337.241 269.201 337.241 269.201 346.75 276.515C350.989 278.129 350.989 278.129 352 279.14C352.188 282.078 352.188 282.078 352 285.14C348.826 288.314 345.254 287.435 340.924 287.462C339.732 287.459 338.54 287.456 337.312 287.453C336.14 287.469 334.968 287.485 333.76 287.501C322.41 287.508 322.41 287.508 317 284.14C313.014 279.84 310.419 275.488 307.898 270.222C307.535 269.483 307.172 268.744 306.798 267.983C305.649 265.643 304.511 263.298 303.375 260.953C302.231 258.597 301.085 256.242 299.931 253.891C299.216 252.433 298.506 250.973 297.804 249.51C295.608 244.76 295.608 244.76 292 241.14C289.728 240.567 289.728 240.567 287.312 240.453C286.504 240.387 285.696 240.321 284.863 240.253C284.248 240.216 283.634 240.179 283 240.14C283.081 244.683 283.194 249.224 283.312 253.765C283.346 255.693 283.346 255.693 283.381 257.66C283.416 258.904 283.452 260.148 283.488 261.429C283.514 262.571 283.541 263.712 283.568 264.889C284.228 269.853 286.245 273.667 289.75 277.203C292 280.14 292 280.14 292 282.89C291 285.14 291 285.14 288 287.14C285.277 287.336 282.66 287.42 279.938 287.406C278.756 287.409 278.756 287.409 277.551 287.412C275.886 287.413 274.222 287.409 272.558 287.401C270.01 287.39 267.462 287.401 264.914 287.414C263.297 287.412 261.68 287.41 260.062 287.406C259.3 287.41 258.537 287.414 257.752 287.418C253.965 287.384 252.229 287.292 249 285.14C248.5 282.328 248.5 282.328 249 279.14C251.375 276.265 251.375 276.265 254 274.14C254.66 274.14 255.32 274.14 256 274.14C256.728 268.902 257.133 263.849 257.161 258.55C257.166 257.838 257.171 257.127 257.176 256.393C257.191 254.068 257.198 251.743 257.203 249.417C257.206 248.617 257.209 247.817 257.212 246.992C257.227 242.763 257.236 238.534 257.24 234.305C257.246 229.952 257.27 225.599 257.298 221.246C257.317 217.882 257.322 214.518 257.324 211.154C257.327 209.55 257.335 207.945 257.348 206.34C257.365 204.094 257.363 201.848 257.356 199.601C257.362 197.688 257.362 197.688 257.367 195.737C256.935 191.504 255.96 188.903 254 185.14C253.113 184.48 252.226 183.82 251.312 183.14C249 181.14 249 181.14 248.688 177.39C248.791 176.318 248.894 175.245 249 174.14C252.364 172.114 254.923 171.894 258.82 171.91ZM283 191.14C283 202.03 283 212.92 283 224.14C285.867 224.202 288.734 224.264 291.688 224.328C292.582 224.355 293.476 224.382 294.397 224.41C299.115 224.46 302.163 224.189 306 221.14C309.809 217.114 311.903 213.402 312.07 207.781C311.806 202.642 310.948 198.64 307.645 194.613C303.458 190.864 298.408 188.947 292.812 188.765C288.557 189.041 288.557 189.041 283 191.14Z" fill="#462A17"/>
<path d="M681.812 171.765C683.739 171.728 683.739 171.728 685.705 171.691C686.943 171.687 688.181 171.683 689.457 171.679C690.591 171.671 691.725 171.663 692.894 171.654C697.304 172.344 699.517 174.173 702.19 177.718C703.488 179.634 704.712 181.584 705.926 183.554C706.895 185.089 707.866 186.623 708.838 188.157C709.35 188.968 709.862 189.779 710.39 190.614C713.174 194.982 716.047 199.29 718.918 203.601C719.511 204.493 720.105 205.384 720.716 206.303C721.928 208.123 723.14 209.943 724.353 211.763C726.198 214.531 728.04 217.302 729.881 220.074C735.751 228.892 741.63 237.671 748 246.14C748.868 243.149 749.115 240.516 749.085 237.407C749.078 236.472 749.071 235.537 749.063 234.574C749.049 233.569 749.034 232.565 749.02 231.531C749.005 230.49 748.991 229.449 748.977 228.377C748.944 226.174 748.907 223.972 748.868 221.77C748.813 218.417 748.784 215.064 748.756 211.71C748.72 209.567 748.683 207.424 748.645 205.281C748.64 204.284 748.636 203.288 748.631 202.262C748.483 196.136 747.624 191.21 744 186.14C743.113 185.459 742.226 184.779 741.312 184.077C739 182.14 739 182.14 738 178.577C738 175.14 738 175.14 739.037 173.45C741.995 171.476 744.969 171.712 748.406 171.742C749.488 171.737 749.488 171.737 750.591 171.733C752.115 171.731 753.638 171.736 755.161 171.749C757.492 171.765 759.821 171.749 762.152 171.73C763.633 171.732 765.113 171.736 766.594 171.742C767.291 171.735 767.988 171.729 768.706 171.723C771.575 171.765 773.533 171.814 775.924 173.485C777.729 176.261 777.644 177.922 777 181.14C775.335 182.649 773.583 183.792 771.688 184.995C768.653 187.053 768.178 189.276 767.464 192.737C766.92 196.729 766.899 200.635 766.95 204.652C766.959 205.902 766.959 205.902 766.969 207.177C766.983 208.978 766.999 210.778 767.017 212.579C767.043 215.429 767.061 218.278 767.076 221.128C767.119 229.227 767.167 237.326 767.247 245.425C767.295 250.385 767.324 255.346 767.341 260.306C767.35 262.196 767.368 264.085 767.392 265.974C767.426 268.612 767.435 271.248 767.438 273.887C767.454 274.667 767.47 275.447 767.487 276.251C767.467 279.811 767.301 281.749 765.096 284.61C761.697 287.091 758.689 287.292 754.562 287.327C753.821 287.342 753.08 287.356 752.316 287.37C748.041 286.945 745.685 285.882 742.746 282.699C741.603 281.154 741.603 281.154 740.438 279.577C739.798 278.719 739.798 278.719 739.146 277.843C737.747 275.953 736.371 274.05 735 272.14C734.305 271.173 734.305 271.173 733.596 270.187C730.575 265.966 727.593 261.719 724.623 257.463C722.947 255.064 721.265 252.67 719.582 250.277C713.045 240.973 706.567 231.633 700.174 222.23C699.669 221.489 699.165 220.748 698.645 219.984C698.205 219.336 697.765 218.688 697.312 218.021C695.92 216.025 694.464 214.084 693 212.14C692.78 219.399 692.586 226.658 692.408 233.917C692.345 236.385 692.276 238.852 692.201 241.32C692.094 244.874 692.008 248.429 691.926 251.984C691.87 253.628 691.87 253.628 691.813 255.305C691.678 262.232 691.856 268.707 696.789 274.093C697.395 274.521 698.001 274.949 698.625 275.39C701.832 277.69 701.832 277.69 702.762 280.175C703.076 282.763 702.411 283.986 701 286.14C696.712 288.284 691.013 287.367 686.251 287.38C684.14 287.39 682.029 287.421 679.918 287.452C678.573 287.459 677.228 287.464 675.883 287.468C674.66 287.477 673.436 287.487 672.176 287.496C668.76 287.113 667.383 286.574 665 284.14C664.25 281.39 664.25 281.39 665 278.14C666.921 276.096 668.945 274.384 671.152 272.656C673.11 271.26 673.11 271.26 674 269.14C674.119 266.634 674.178 264.155 674.193 261.649C674.201 260.876 674.209 260.103 674.218 259.307C674.243 256.745 674.259 254.183 674.273 251.62C674.279 250.746 674.284 249.871 674.29 248.97C674.316 244.342 674.336 239.713 674.35 235.084C674.367 230.302 674.412 225.521 674.462 220.739C674.496 217.063 674.508 213.387 674.513 209.711C674.52 207.948 674.535 206.186 674.559 204.423C674.591 201.955 674.591 199.488 674.583 197.02C674.608 195.929 674.608 195.929 674.633 194.817C674.585 190.883 674.132 189.298 671.577 186.233C670.129 185.058 668.673 183.892 667.188 182.765C665.186 180.026 665.704 177.396 666 174.14C669.834 170.306 676.643 171.77 681.812 171.765Z" fill="#452816"/>
<path d="M618.367 0.39798C619.418 0.529464 620.468 0.660949 621.551 0.796417C622.648 0.951105 623.745 1.10579 624.875 1.26517C625.964 1.39665 627.054 1.52814 628.176 1.6636C633.571 2.37675 637.408 3.07413 642 6.14017C641.601 9.43525 641.011 11.1248 639 13.8277C635.485 19.8355 636.316 27.3145 636.25 34.0777C636.222 35.5393 636.192 37.0009 636.16 38.4624C636.087 42.0215 636.037 45.5805 636 49.1402C640.092 48.3718 644.181 47.59 648.268 46.7964C649.654 46.5292 651.041 46.2654 652.428 46.0054C666.952 43.9816 666.952 43.9816 678.312 36.0152C678.869 35.0664 679.426 34.1177 680 33.1402C682.188 31.4527 682.188 31.4527 685 31.1402C692.184 33.6945 700.136 39.376 705 45.1402C705.621 48.7417 705.621 48.7417 705 52.1402C701.456 54.8134 698.106 55.7576 693.789 56.5823C692.557 56.8223 691.326 57.0624 690.058 57.3096C688.723 57.5594 687.389 57.8089 686.055 58.0581C684.679 58.3221 683.303 58.5869 681.928 58.8524C679.052 59.4054 676.176 59.952 673.298 60.4934C669.61 61.1875 665.924 61.8926 662.239 62.6018C658.72 63.2785 655.2 63.9498 651.68 64.6206C651.009 64.749 650.338 64.8773 649.647 65.0095C647.749 65.3714 645.851 65.7289 643.953 66.0862C642.333 66.3924 642.333 66.3924 640.681 66.7048C638 67.1402 638 67.1402 635 67.1402C635.156 68.3802 635.312 69.6203 635.473 70.898C636.219 77.6071 636.341 84.3376 636.518 91.0816C636.748 102.426 636.748 102.426 640 113.14C645.308 115.267 651.708 113.681 657.272 113.154C659.425 112.954 661.58 112.78 663.736 112.607C665.115 112.48 666.493 112.352 667.871 112.222C669.118 112.111 670.365 112 671.65 111.886C675.439 111.043 677.239 109.824 680 107.14C683.004 101.865 684.477 96.1507 685 90.1402C686.98 90.1402 688.96 90.1402 691 90.1402C691.412 91.1263 691.825 92.1124 692.25 93.1284C694.025 97.2675 695.988 101.3 698 105.328C698.514 106.375 698.514 106.375 699.039 107.443C700.788 110.951 702.62 114.015 705 117.14C705.619 120.235 705.546 122.153 704.004 124.941C699.265 131.21 692.896 133.401 685.375 134.828C683.918 134.947 682.459 135.049 681 135.14C680.022 135.23 679.043 135.321 678.035 135.414C669.12 136.13 660.2 136.271 651.258 136.316C649.894 136.324 648.531 136.334 647.167 136.348C624.623 136.559 624.623 136.559 618 131.14C611.53 124.671 611.691 116.12 611.586 107.515C611.567 106.528 611.547 105.54 611.527 104.523C611.468 101.395 611.421 98.2678 611.375 95.1402C611.337 93.0086 611.298 90.8771 611.258 88.7456C611.162 83.5439 611.077 78.3422 611 73.1402C602.639 74.3404 594.476 75.8278 586.291 77.9038C581.865 78.957 578.499 79.3636 574 78.1402C569.389 75.2858 567.239 71.9619 565 67.1402C565.398 64.9214 565.398 64.9214 566 63.1402C577.578 60.4934 589.186 58.0659 600.845 55.8035C601.876 55.6014 602.907 55.3992 603.969 55.1909C604.891 55.0122 605.813 54.8334 606.764 54.6492C609.021 54.2284 609.021 54.2284 611 53.1402C611.025 47.9481 611.043 42.7561 611.055 37.564C611.06 35.8029 611.067 34.0419 611.075 32.2808C611.088 29.7287 611.095 27.1767 611.098 24.6245C611.1 23.3844 611.1 23.3844 611.102 22.1193C611.083 16.4757 610.713 10.9589 609.924 5.3638C610 3.14017 610 3.14017 611.145 1.31448C613.751 -0.335389 615.331 0.0103185 618.367 0.39798Z" fill="#432817"/>
<path d="M12.0273 171.902C13.2053 171.89 13.2053 171.89 14.4071 171.877C16.0672 171.863 17.7273 171.853 19.3875 171.845C21.9249 171.828 24.461 171.784 26.998 171.74C28.612 171.729 30.2259 171.721 31.8398 171.714C32.9759 171.688 32.9759 171.688 34.135 171.661C37.676 171.676 39.6299 171.863 42.5022 174.014C44 176.14 44 176.14 44.125 178.577C42.5676 182.125 39.9737 183.712 37 186.14C35.0653 189.886 34.753 192.993 34.7695 197.175C34.7715 198.314 34.7734 199.453 34.7754 200.626C34.7876 201.806 34.7999 202.987 34.8125 204.202C34.8131 205.386 34.8138 206.57 34.8145 207.79C34.755 214.546 34.755 214.546 36 221.14C42.2268 214.471 48.2737 207.737 53.9883 200.617C55.7715 198.421 57.6135 196.309 59.5 194.202C62.2278 190.989 62.2278 190.989 63 187.14C61.7685 185.347 61.7685 185.347 60 183.765C57.015 180.537 57.015 180.537 56.875 176.827C58 174.14 58 174.14 59.6057 172.989C62.8771 171.829 66.0065 171.854 69.4336 171.874C70.1485 171.872 70.8635 171.871 71.6001 171.869C73.1088 171.867 74.6175 171.871 76.1262 171.879C78.4262 171.89 80.7254 171.879 83.0254 171.867C84.4948 171.868 85.9642 171.87 87.4336 171.874C88.4588 171.868 88.4588 171.868 89.5047 171.862C93.4395 171.9 96.4533 172.419 100 174.14C101.045 178.408 101.045 178.408 100 181.14C97.2346 183.091 94.3204 184.549 91.3203 186.113C85.822 189.47 82.1179 194.269 78 199.14C77.2678 199.868 76.5356 200.597 75.7812 201.347C73.9257 203.028 73.9257 203.028 73 205.14C72.34 205.14 71.68 205.14 71 205.14C71 205.8 71 206.46 71 207.14C70.34 207.14 69.68 207.14 69 207.14C68.7525 207.862 68.505 208.584 68.25 209.327C66.8902 212.387 65.1708 214.607 63 217.14C63.3751 217.685 63.7502 218.231 64.1367 218.792C64.6485 219.546 65.1602 220.301 65.6875 221.077C66.1864 221.808 66.6852 222.539 67.1992 223.292C68.6616 225.605 69.9821 227.914 71.2852 230.316C74.1569 235.536 77.4184 240.454 80.75 245.39C81.3662 246.306 81.9823 247.222 82.6172 248.165C83.8452 249.988 85.075 251.81 86.3066 253.63C87.7834 255.819 89.2463 258.016 90.7031 260.218C91.4682 261.359 92.2337 262.5 93 263.64C93.9591 265.079 93.9591 265.079 94.9375 266.546C98.3511 270.839 102.174 274.065 107.312 276.14C110.848 277.82 110.848 277.82 112.188 280.64C111.94 283.938 111.472 284.908 109 287.14C105.881 287.741 102.792 287.652 99.625 287.601C98.7041 287.6 97.7833 287.599 96.8345 287.598C94.8876 287.592 92.9408 287.576 90.9941 287.552C88.0114 287.515 85.0298 287.511 82.0469 287.511C80.1562 287.501 78.2656 287.49 76.375 287.476C75.0343 287.473 75.0343 287.473 73.6665 287.469C72.8355 287.456 72.0046 287.444 71.1484 287.43C70.418 287.423 69.6876 287.415 68.9351 287.407C67 287.14 67 287.14 64 285.14C63.7434 282.061 63.6057 279.929 65 277.14C65.66 277.14 66.32 277.14 67 277.14C65.7499 272.166 64.1363 268.236 61.4805 263.796C60.9698 262.937 60.9698 262.937 60.4488 262.061C59.7322 260.858 59.0119 259.658 58.2878 258.461C57.1931 256.649 56.1102 254.831 55.0293 253.011C51.5707 247.217 48.0458 241.545 44 236.14C42.8634 237.337 41.7412 238.549 40.625 239.765C39.9985 240.438 39.372 241.111 38.7266 241.804C34.3694 247.699 34.7467 253.701 35.0625 260.702C35.0773 261.635 35.0921 262.568 35.1074 263.529C35.3039 268.202 35.4545 270.457 38.4453 274.202C39.7099 275.162 39.7099 275.162 41 276.14C43.6456 278.238 43.9502 278.733 44.375 282.202C44.1894 283.657 44.1894 283.657 44 285.14C40.1478 287.708 36.9652 287.428 32.5 287.406C31.6679 287.408 30.8358 287.409 29.9785 287.411C28.22 287.413 26.4616 287.409 24.7031 287.401C22.0102 287.39 19.3179 287.401 16.625 287.413C14.9167 287.412 13.2083 287.41 11.5 287.406C10.6937 287.41 9.88738 287.414 9.05664 287.418C5.18525 287.385 3.29534 287.337 0 285.14C0.33 282.83 0.66 280.52 1 278.14C1.66 278.14 2.32 278.14 3 278.14C3.28875 277.521 3.5775 276.902 3.875 276.265C5 274.14 5 274.14 7 272.14C10.7653 260.685 9.1541 246.473 9.13037 234.585C9.12503 231.411 9.13033 228.236 9.13672 225.062C9.14033 219.087 9.09483 213.114 9 207.14C8.98675 206.277 8.97349 205.413 8.95984 204.524C8.91189 202.181 8.83414 199.841 8.74219 197.499C8.67427 195.565 8.67427 195.565 8.60498 193.592C7.89932 189.565 6.52841 187.32 4 184.14C3.2575 183.645 2.515 183.15 1.75 182.64C0 181.14 0 181.14 -0.3125 178.077C0 175.14 0 175.14 1 173.14C4.7019 171.906 8.16891 171.939 12.0273 171.902Z" fill="#452817"/>
<path d="M836.875 171.953C837.964 171.94 839.054 171.928 840.176 171.916C841.229 171.914 842.282 171.912 843.367 171.91C844.327 171.906 845.288 171.901 846.277 171.897C849.444 172.18 851.277 172.453 854 174.14C857.784 180.402 860 187.34 862.414 194.222C862.829 195.39 863.243 196.557 863.67 197.76C864.993 201.489 866.31 205.221 867.625 208.953C870.633 217.463 873.651 225.969 876.69 234.468C877.574 236.948 878.456 239.428 879.334 241.91C880.635 245.578 881.952 249.241 883.273 252.902C883.66 254.001 884.046 255.101 884.445 256.234C887.621 264.952 891.288 272.632 899 278.14C900.354 280.849 900.065 283.149 900 286.14C896.026 287.465 892.206 287.303 888.062 287.308C886.748 287.313 886.748 287.313 885.406 287.318C883.554 287.323 881.701 287.326 879.849 287.325C877.011 287.328 874.174 287.346 871.336 287.365C869.536 287.368 867.737 287.37 865.938 287.371C865.087 287.378 864.237 287.385 863.362 287.392C857.343 287.369 857.343 287.369 854 285.14C853.438 282.39 853.438 282.39 854 279.14C855.348 277.66 855.348 277.66 857 276.203C859.459 273.942 859.943 273.457 860.562 270.015C859.628 263.581 858.056 257.307 856 251.14C844.45 251.14 832.9 251.14 821 251.14C820.67 253.45 820.34 255.76 820 258.14C819.504 259.676 818.967 261.201 818.375 262.703C817.048 266.645 816.351 269.147 818 273.14C820.007 275.025 822.064 276.704 824.285 278.332C826 280.14 826 280.14 826.434 282.73C826.291 283.525 826.147 284.321 826 285.14C822.357 287.569 819.623 287.446 815.41 287.441C814.669 287.445 813.928 287.449 813.165 287.454C811.599 287.46 810.033 287.46 808.467 287.456C806.075 287.453 803.683 287.476 801.291 287.501C799.768 287.504 798.245 287.504 796.723 287.503C795.652 287.517 795.652 287.517 794.56 287.531C791.523 287.503 789.263 287.269 786.517 285.93C785 284.14 785 284.14 784.444 281.69C785.227 278.102 786.916 277.426 789.902 275.347C799.148 267.863 801.817 255.653 805.562 244.828C806.384 242.524 807.209 240.222 808.036 237.921C810.035 232.337 811.997 226.74 813.948 221.139C815.173 217.648 816.426 214.168 817.689 210.69C818.889 207.386 820.07 204.076 821.25 200.765C821.662 199.623 822.074 198.48 822.498 197.303C822.855 196.272 823.211 195.241 823.578 194.179C823.881 193.315 824.185 192.451 824.497 191.561C825.088 188.717 824.858 186.904 824 184.14C823.278 183.336 822.556 182.531 821.812 181.703C821.214 180.857 820.616 180.011 820 179.14C820.562 175.89 820.562 175.89 822 173.14C826.842 171.526 831.805 171.956 836.875 171.953ZM837 204.14C835.585 207.854 834.179 211.571 832.782 215.291C832.074 217.172 831.358 219.05 830.643 220.927C830.195 222.123 829.747 223.318 829.285 224.55C828.871 225.645 828.458 226.739 828.031 227.867C826.952 231.293 826.412 234.577 826 238.14C828.854 238.167 831.708 238.187 834.562 238.203C835.762 238.215 835.762 238.215 836.986 238.228C841.772 238.248 846.281 237.945 851 237.14C848.639 229.873 846.014 222.725 843.312 215.578C842.897 214.474 842.481 213.369 842.053 212.232C841.037 209.534 840.019 206.837 839 204.14C838.34 204.14 837.68 204.14 837 204.14Z" fill="#432817"/>
<path d="M408.465 171.777C409.512 171.777 410.56 171.778 411.639 171.779C413.272 171.803 413.272 171.803 414.938 171.828C416.565 171.823 416.565 171.823 418.225 171.818C428.497 171.887 428.497 171.887 432 174.14C433.714 176.997 434.847 180.022 436 183.14C436.3 183.924 436.6 184.707 436.909 185.514C437.849 188.012 438.754 190.521 439.652 193.035C439.989 193.969 440.326 194.902 440.673 195.865C441.392 197.861 442.11 199.857 442.826 201.854C443.95 204.988 445.079 208.12 446.21 211.251C449.476 220.306 452.73 229.365 455.947 238.437C457.124 241.755 458.306 245.07 459.489 248.386C460.295 250.654 461.092 252.925 461.888 255.196C462.38 256.575 462.871 257.953 463.363 259.332C463.779 260.509 464.194 261.687 464.622 262.9C466.764 267.937 469.289 271.937 473.75 275.14C476.928 277.733 476.928 277.733 477.563 281.328C477 284.14 477 284.14 475 287.14C471.913 287.419 469.028 287.512 465.941 287.468C464.591 287.465 464.591 287.465 463.214 287.463C461.308 287.456 459.402 287.442 457.497 287.421C454.578 287.39 451.659 287.38 448.74 287.374C446.891 287.365 445.041 287.355 443.191 287.343C442.316 287.339 441.441 287.335 440.54 287.33C439.726 287.321 438.911 287.311 438.073 287.301C437.357 287.294 436.641 287.288 435.904 287.281C434 287.14 434 287.14 431 286.14C430.583 282.736 430.29 280.167 432.301 277.257C433.367 276.082 434.463 274.933 435.59 273.816C437.285 271.801 437.776 270.769 438 268.14C437.248 264.968 437.248 264.968 436.063 261.64C434.763 257.8 434 255.227 434 251.14C422.45 251.14 410.9 251.14 399 251.14C395.644 261.272 395.644 261.272 395.563 271.765C396.977 274.421 396.977 274.421 400.125 276.578C403 279.14 403 279.14 403.5 282.328C403 285.14 403 285.14 401 287.14C398.76 287.383 398.76 287.383 395.977 287.371C394.96 287.369 393.944 287.368 392.897 287.367C391.817 287.354 390.737 287.341 389.625 287.328C388.537 287.32 387.449 287.312 386.328 287.304C369.467 287.124 369.467 287.124 365 286.14C363.488 283.116 363.418 281.501 364 278.14C365.841 276.482 367.741 275.208 369.859 273.925C375.014 269.627 377.122 262.625 379.32 256.472C379.621 255.647 379.921 254.822 380.231 253.972C381.202 251.301 382.164 248.627 383.125 245.953C383.794 244.106 384.464 242.26 385.134 240.414C387.099 234.993 389.052 229.567 391 224.14C391.276 223.37 391.553 222.6 391.838 221.807C394.593 214.127 397.342 206.445 400.053 198.749C400.922 196.354 401.868 194.004 402.828 191.644C403.991 188.166 404.198 187.386 403 184.14C402.319 183.501 401.639 182.861 400.938 182.203C399 180.14 399 180.14 398.5 177.578C399 175.14 399 175.14 400.69 173.51C403.498 171.845 405.216 171.767 408.465 171.777ZM415 204.14C412.652 210.135 410.319 216.134 408 222.14C407.553 223.296 407.105 224.453 406.645 225.644C406.287 226.591 405.93 227.539 405.563 228.515C405.254 229.327 404.946 230.139 404.629 230.976C403.814 233.405 403.814 233.405 404 237.14C412.147 237.838 419.883 238.422 428 237.14C426.559 229.612 424.13 222.719 421.375 215.578C420.955 214.474 420.535 213.369 420.102 212.232C419.073 209.532 418.039 206.835 417 204.14C416.34 204.14 415.68 204.14 415 204.14Z" fill="#472A18"/>
<path d="M163.762 172.007C164.716 172.006 165.671 172.005 166.654 172.003C167.655 172.007 168.656 172.011 169.688 172.015C170.669 172.011 171.651 172.007 172.662 172.003C186.562 172.022 186.562 172.022 189.554 174.349C191.379 176.61 192.151 178.74 193.11 181.484C193.498 182.581 193.885 183.678 194.285 184.809C194.698 186.002 195.11 187.196 195.535 188.425C196.206 190.328 196.876 192.231 197.546 194.134C198.489 196.814 199.423 199.497 200.358 202.181C205.854 217.951 211.366 233.715 217.309 249.324C217.885 250.854 217.885 250.854 218.473 252.415C220.906 258.731 223.715 264.736 226.852 270.735C228 273.14 228 273.14 228 275.14C228.784 275.429 229.567 275.718 230.375 276.015C233 277.14 233 277.14 235 279.14C235.125 282.765 235.125 282.765 235 286.14C232.726 287.277 231.474 287.267 228.949 287.27C228.115 287.273 227.281 287.276 226.421 287.279C225.068 287.276 225.068 287.276 223.688 287.273C222.763 287.274 221.838 287.275 220.885 287.276C218.929 287.277 216.972 287.275 215.015 287.271C212.012 287.265 209.01 287.27 206.008 287.277C204.109 287.276 202.211 287.275 200.312 287.273C199.41 287.275 198.508 287.277 197.579 287.279C196.745 287.276 195.91 287.273 195.051 287.27C194.315 287.269 193.579 287.268 192.822 287.267C191 287.14 191 287.14 189 286.14C188.688 282.89 188.688 282.89 189 279.14C191.375 277.078 191.375 277.078 194 275.14C196.317 270.535 195.976 267.663 194.447 262.974C194.197 262.266 193.946 261.557 193.688 260.828C193.448 260.1 193.209 259.372 192.963 258.623C191.975 255.106 191.975 255.106 190 252.14C187.481 251.98 184.987 251.881 182.465 251.824C181.335 251.793 181.335 251.793 180.182 251.761C177.767 251.695 175.353 251.636 172.938 251.578C171.304 251.534 169.671 251.491 168.037 251.447C164.025 251.339 160.012 251.238 156 251.14C155.869 251.747 155.739 252.354 155.604 252.979C155.429 253.781 155.254 254.583 155.074 255.41C154.902 256.202 154.731 256.995 154.553 257.811C154.071 259.842 153.452 261.84 152.812 263.828C151.895 267.57 151.66 269.516 153 273.14C154.727 274.516 156.538 275.664 158.398 276.851C160 278.14 160 278.14 161.125 281.265C161 284.14 161 284.14 159.939 285.797C156.973 287.852 154.419 287.512 150.848 287.503C150.151 287.504 149.455 287.504 148.737 287.505C147.265 287.503 145.793 287.493 144.322 287.476C142.074 287.453 139.828 287.456 137.58 287.462C125.582 287.416 125.582 287.416 122 285.14C121.562 282.015 121.562 282.015 122 278.14C123.646 276.763 125.301 275.396 127.009 274.097C134.265 266.967 137.809 253.919 141.125 244.578C141.581 243.309 142.037 242.041 142.493 240.773C143.474 238.044 144.447 235.313 145.417 232.581C146.822 228.63 148.249 224.688 149.679 220.747C150.894 217.391 152.099 214.032 153.301 210.672C153.888 209.036 154.479 207.402 155.073 205.769C155.907 203.47 156.727 201.167 157.543 198.863C157.917 197.846 157.917 197.846 158.299 196.808C159.818 192.461 160.413 188.735 160 184.14C158.979 183.15 158.979 183.15 157.938 182.14C157.298 181.48 156.659 180.82 156 180.14C156.125 176.453 156.125 176.453 157 173.14C159.44 171.92 161.036 172.011 163.762 172.007ZM172 204.14C170.587 207.873 169.182 211.608 167.782 215.346C167.306 216.615 166.828 217.884 166.348 219.152C165.655 220.982 164.97 222.815 164.285 224.648C163.871 225.748 163.458 226.847 163.031 227.98C161.776 231.557 161.776 231.557 161 237.14C169.25 237.14 177.5 237.14 186 237.14C183.815 229.858 181.55 222.725 179 215.578C178.657 214.582 178.314 213.586 177.961 212.56C177.623 211.616 177.285 210.672 176.938 209.699C176.487 208.42 176.487 208.42 176.027 207.115C175.109 204.79 175.109 204.79 172 204.14Z" fill="#452817"/>
<path d="M441.641 3.49569C442.547 3.62395 443.453 3.75221 444.387 3.88436C445.332 4.03067 446.276 4.17698 447.25 4.32772C448.644 4.51818 448.644 4.51818 450.066 4.71249C455.493 5.51463 460.116 6.60944 465 9.14022C466.188 11.0152 466.188 11.0152 466 13.1402C464.705 14.8369 463.366 16.5005 462 18.1402C455.559 33.0574 457.866 56.0702 463.25 70.8902C465.641 76.6717 468.551 81.9296 472 87.1402C472.4 87.7757 472.799 88.4112 473.211 89.066C476.434 93.9437 480.501 97.4559 485 101.14C486.147 102.134 486.147 102.134 487.316 103.148C495.643 110.178 504.789 114.671 515.137 117.988C517 119.14 517 119.14 518.082 121.449C518 124.14 518 124.14 515.918 126.66C513.071 129.08 510.225 131.487 507.312 133.828C503.539 136.854 503.539 136.854 500 140.14C488.844 139.462 476.351 125.926 469 118.14C461.662 109.542 454.993 99.769 451 89.1402C450.504 89.9021 450.007 90.6639 449.496 91.4488C445.252 97.8997 440.909 104.176 436 110.14C435.365 110.936 435.365 110.936 434.718 111.747C431.065 116.2 427.126 119.725 422.5 123.14C421.807 123.656 421.113 124.171 420.399 124.702C410.473 131.899 398.664 139.114 386 138.14C385.01 137.48 384.02 136.82 383 136.14C383.191 133.851 383.191 133.851 384 131.14C386.152 129.367 386.152 129.367 388.938 127.765C389.937 127.161 390.936 126.556 391.965 125.933C393.831 124.831 395.698 123.729 397.566 122.629C412.832 112.901 424.136 93.2119 429 76.1402C432.153 61.8399 432.962 47.2544 433.211 32.6519C433.225 31.8478 433.24 31.0436 433.255 30.215C433.312 26.9018 433.367 23.5888 433.401 20.2752C433.429 17.817 433.475 15.3598 433.523 12.9019C433.527 12.15 433.53 11.398 433.533 10.6233C433.583 8.52572 433.583 8.52572 434 5.14022C437.366 2.89636 437.847 2.95379 441.641 3.49569Z" fill="#E06E31"/>
<path d="M610.121 171.862C611.376 171.868 611.376 171.868 612.656 171.875C613.514 171.873 614.372 171.871 615.256 171.869C617.072 171.867 618.888 171.871 620.704 171.879C623.489 171.89 626.273 171.88 629.059 171.867C630.82 171.868 632.582 171.871 634.344 171.875C635.18 171.871 636.017 171.866 636.879 171.862C642.77 171.91 642.77 171.91 645 174.14C645.438 177.515 645.438 177.515 645 181.14C642.625 183.203 642.625 183.203 640 185.14C638.055 189.652 637.747 193.591 637.741 198.471C637.738 199.18 637.734 199.888 637.731 200.618C637.722 202.944 637.728 205.271 637.734 207.597C637.733 209.226 637.731 210.855 637.729 212.484C637.726 215.894 637.73 219.304 637.739 222.715C637.751 227.065 637.744 231.416 637.732 235.767C637.725 239.131 637.727 242.495 637.732 245.858C637.734 247.461 637.732 249.065 637.727 250.668C637.605 262.56 637.605 262.56 640 274.14C641.433 275.639 641.433 275.639 643.125 276.89C646 279.14 646 279.14 646.625 281.765C646 284.14 646 284.14 644.455 285.766C641.05 287.672 637.892 287.551 634.094 287.503C633.332 287.504 632.57 287.504 631.786 287.505C630.178 287.503 628.571 287.493 626.964 287.476C624.508 287.453 622.054 287.456 619.598 287.462C618.034 287.457 616.47 287.45 614.906 287.441C614.174 287.442 613.441 287.443 612.687 287.444C608.973 287.392 606.156 287.196 603 285.14C602.688 282.453 602.688 282.453 603 279.14C605.375 276.453 605.375 276.453 608 274.14C610.467 270.44 610.317 267.577 610.338 263.292C610.355 262.093 610.355 262.093 610.373 260.871C610.407 258.226 610.426 255.582 610.441 252.937C610.448 252.033 610.455 251.129 610.462 250.197C610.498 245.41 610.522 240.624 610.535 235.837C610.552 230.899 610.61 225.963 610.679 221.025C610.723 217.223 610.737 213.421 610.742 209.619C610.75 207.799 610.77 205.979 610.801 204.16C611.316 194.484 611.316 194.484 608.428 185.561C606.606 183.69 606.606 183.69 604.609 182.385C603 181.14 603 181.14 601.938 177.328C602.052 171.472 605.026 171.904 610.121 171.862Z" fill="#432717"/>
<path d="M497 27.1401C502.478 27.4825 505.923 30.8124 510 34.1401C510.66 34.6648 511.32 35.1894 512 35.73C516.006 39.0099 518.565 41.3541 519.395 46.6675C519 49.1401 519 49.1401 517.262 50.9565C516.412 51.5328 515.563 52.109 514.688 52.7026C513.193 53.7236 513.193 53.7236 511.668 54.7651C510.448 55.5609 509.225 56.3522 508 57.1401C507.271 57.6094 506.542 58.0786 505.792 58.562C501.728 61.1655 497.646 63.7375 493.547 66.2847C490.853 67.9619 488.192 69.6648 485.578 71.4644C478.114 76.5472 478.114 76.5472 474 76.8276C471 76.1401 471 76.1401 468.875 74.7026C467.731 71.3519 468.359 69.1232 469.605 65.8706C472.323 60.5502 476.01 55.8772 479.568 51.1006C482.543 47.028 485.338 42.828 488.156 38.6458C490.903 34.608 493.816 30.8445 497 27.1401Z" fill="#E56F31"/>
<path d="M401 32.1401C403.31 32.1401 405.62 32.1401 408 32.1401C414.599 43.2385 414.54 58.3047 411.813 70.5776C410.232 76.1025 408.154 82.2149 403.035 85.3394C399.719 86.644 397.208 86.5029 394 85.1401C385.127 78.3931 385.127 78.3931 383 74.1401C382.258 67.6662 384.217 64.4252 387.75 59.3276C391.637 53.4385 394.684 47.8307 397 41.1401C398.25 38.1011 399.53 35.08 401 32.1401Z" fill="#E56F31"/>
<path d="M288.938 237.828C289.792 237.79 290.647 237.753 291.527 237.714C294.914 238.297 295.768 239.527 298 242.14C299.48 244.617 300.723 247.191 301.969 249.792C302.331 250.53 302.693 251.267 303.066 252.026C304.219 254.373 305.36 256.725 306.5 259.078C307.64 261.427 308.783 263.774 309.934 266.118C310.648 267.573 311.356 269.031 312.057 270.492C315.474 277.53 315.474 277.53 321.378 282.44C324.346 283.232 326.885 283.367 329.957 283.335C331.069 283.329 332.181 283.323 333.326 283.316C334.477 283.299 335.627 283.282 336.812 283.265C338.567 283.252 338.567 283.252 340.357 283.238C343.238 283.214 346.119 283.181 349 283.14C349 282.48 349 281.82 349 281.14C348.423 280.872 347.845 280.604 347.25 280.328C344.967 279.123 343.026 277.732 341 276.14C341.495 275.15 341.495 275.15 342 274.14C343.48 274.783 344.959 275.43 346.438 276.078C347.261 276.437 348.085 276.797 348.934 277.167C351 278.14 351 278.14 352 279.14C352.188 282.078 352.188 282.078 352 285.14C348.826 288.314 345.254 287.435 340.924 287.462C339.136 287.458 339.136 287.458 337.312 287.453C336.14 287.469 334.968 287.485 333.76 287.501C322.41 287.508 322.41 287.508 317 284.14C313.014 279.84 310.419 275.488 307.898 270.222C307.535 269.483 307.172 268.744 306.798 267.983C305.649 265.643 304.511 263.298 303.375 260.953C302.231 258.597 301.085 256.242 299.931 253.891C299.216 252.433 298.506 250.973 297.804 249.51C295.608 244.76 295.608 244.76 292 241.14C289.728 240.567 289.728 240.567 287.312 240.453C286.504 240.387 285.696 240.321 284.863 240.253C284.248 240.216 283.634 240.179 283 240.14C283.081 244.683 283.194 249.224 283.312 253.765C283.346 255.693 283.346 255.693 283.381 257.66C283.416 258.904 283.452 260.148 283.488 261.429C283.514 262.571 283.541 263.712 283.568 264.889C284.228 269.853 286.245 273.667 289.75 277.203C292 280.14 292 280.14 292 282.89C291 285.14 291 285.14 288 287.14C285.277 287.336 282.66 287.42 279.938 287.406C278.756 287.409 278.756 287.409 277.551 287.412C275.886 287.413 274.222 287.409 272.558 287.401C270.01 287.39 267.462 287.401 264.914 287.414C263.297 287.412 261.68 287.41 260.062 287.406C259.3 287.41 258.537 287.414 257.752 287.418C253.965 287.384 252.229 287.292 249 285.14C248.5 282.328 248.5 282.328 249 279.14C251.5 276.265 251.5 276.265 254 274.14C254.33 275.13 254.66 276.12 255 277.14C254.01 279.12 253.02 281.1 252 283.14C263.88 283.14 275.76 283.14 288 283.14C287.67 281.49 287.34 279.84 287 278.14C285.067 277.048 285.067 277.048 283 276.14C280.468 272.551 280.743 268.746 280.805 264.531C280.808 263.804 280.81 263.077 280.813 262.328C280.824 260.015 280.85 257.703 280.875 255.39C280.885 253.819 280.894 252.247 280.902 250.675C280.924 246.83 280.959 242.985 281 239.14C283.868 238.184 285.942 237.913 288.938 237.828Z" fill="#362216"/>
<path d="M243 0.140245C252.807 -0.170178 261.632 -0.25901 271 3.14024C271 5.78024 271 8.42024 271 11.1402C270.01 10.8102 269.02 10.4802 268 10.1402C267.313 8.07774 267.313 8.07774 267 6.14024C260.162 3.69817 253.206 3.52002 246 3.14024C246.012 3.92271 246.023 4.70517 246.035 5.51134C246.044 6.52325 246.053 7.53517 246.063 8.57774C246.074 9.58708 246.086 10.5964 246.098 11.6363C246 14.1402 246 14.1402 245 15.1402C243.312 15.2338 241.62 15.2577 239.929 15.2538C238.848 15.2537 237.767 15.2536 236.654 15.2535C234.89 15.2458 234.89 15.2458 233.09 15.2379C231.893 15.2365 230.696 15.2351 229.462 15.2336C225.621 15.228 221.779 15.2154 217.938 15.2027C215.341 15.1977 212.744 15.1932 210.147 15.1891C203.764 15.178 197.382 15.1613 191 15.1402C191.096 16.0236 191.192 16.9069 191.291 17.817C193.405 37.7666 194.392 57.0723 193 77.1402C192.937 78.1937 192.873 79.2472 192.808 80.3326C191.041 109.348 191.041 109.348 184 120.14C182.517 115.691 184.17 111.841 185.354 107.443C189.439 91.3806 189.285 75.2791 189.206 58.8121C189.188 54.885 189.185 50.9581 189.186 47.0309C189.181 44.4996 189.175 41.9684 189.168 39.4371C189.167 38.2806 189.166 37.124 189.165 35.9324C189.127 29.4335 188.809 23.0544 188.115 16.5907C188 14.1402 188 14.1402 189 11.1402C189.712 11.1758 190.424 11.2113 191.158 11.2479C208.516 12.0793 225.647 12.0771 243 11.1402C243 7.51024 243 3.88024 243 0.140245Z" fill="#372216"/>
<path d="M217 55.1401C218.878 55.2344 220.753 55.3932 222.625 55.5776C230.108 56.2254 237.496 56.2336 245 56.1401C245.33 56.8001 245.66 57.4601 246 58.1401C233.625 58.6351 233.625 58.6351 221 59.1401C221 60.1301 221 61.1201 221 62.1401C222.264 62.1777 222.264 62.1777 223.554 62.2161C226.672 62.311 229.79 62.4103 232.908 62.5125C234.259 62.5558 235.61 62.5975 236.962 62.6375C238.9 62.695 240.839 62.7593 242.777 62.8237C243.945 62.8604 245.113 62.897 246.316 62.9348C249 63.1401 249 63.1401 250 64.1401C250.072 65.6594 250.084 67.1818 250.062 68.7026C250.053 69.5289 250.044 70.3552 250.035 71.2065C250.024 71.8446 250.012 72.4827 250 73.1401C243.086 75.2713 236.701 75.3771 229.5 75.2651C228.391 75.2561 227.283 75.2471 226.141 75.2378C223.427 75.2144 220.714 75.1816 218 75.1401C218.33 76.7901 218.66 78.4401 219 80.1401C220.271 80.1489 220.271 80.1489 221.568 80.1579C229.544 80.2157 237.519 80.2878 245.495 80.3759C249.595 80.4206 253.696 80.4599 257.796 80.4866C261.752 80.5125 265.707 80.5529 269.662 80.6033C271.173 80.62 272.684 80.6315 274.195 80.6378C276.307 80.6473 278.419 80.6753 280.531 80.7078C282.336 80.7244 282.336 80.7244 284.178 80.7414C285.575 80.9388 285.575 80.9388 287 81.1401C287.99 82.6251 287.99 82.6251 289 84.1401C285.535 85.2593 282.681 85.0719 279.077 84.718C272.298 84.1288 265.571 83.9569 258.77 83.894C256.314 83.8612 253.859 83.828 251.404 83.7944C247.581 83.7467 243.758 83.7021 239.935 83.6633C236.213 83.6238 232.491 83.5723 228.77 83.519C227.042 83.5064 227.042 83.5064 225.279 83.4935C224.22 83.4769 223.161 83.4603 222.07 83.4431C221.136 83.4328 220.203 83.4225 219.241 83.4119C217 83.1401 217 83.1401 215 81.1401C214.672 78.4256 214.869 75.8878 215 73.1401C216.638 71.5025 218.554 71.9348 220.812 71.8589C221.806 71.8215 222.8 71.7841 223.824 71.7456C224.872 71.7108 225.92 71.676 227 71.6401C234.051 71.3988 240.997 71.0156 248 70.1401C248 68.8201 248 67.5001 248 66.1401C247.102 66.1506 246.203 66.1611 245.278 66.1719C241.949 66.2059 238.621 66.231 235.292 66.25C233.851 66.2601 232.41 66.2737 230.968 66.291C228.898 66.3152 226.828 66.3266 224.758 66.3354C222.888 66.3512 222.888 66.3512 220.981 66.3672C218 66.1401 218 66.1401 216 64.1401C215.672 61.4256 215.869 58.8878 216 56.1401C216.33 55.8101 216.66 55.4801 217 55.1401Z" fill="#372216"/>
<path d="M611 188.14C611.99 188.47 612.98 188.8 614 189.14C614.093 199.728 614.164 210.316 614.207 220.904C614.228 225.82 614.256 230.737 614.302 235.653C614.345 240.4 614.369 245.146 614.38 249.892C614.387 251.701 614.401 253.511 614.423 255.32C614.452 257.857 614.456 260.394 614.454 262.932C614.476 264.049 614.476 264.049 614.498 265.19C614.448 271.507 612.106 274.974 607.812 279.39C607.214 279.968 606.616 280.545 606 281.14C605.505 282.13 605.505 282.13 605 283.14C616.88 282.81 628.76 282.48 641 282.14C641.66 280.82 642.32 279.5 643 278.14C641.68 277.81 640.36 277.48 639 277.14C639 276.48 639 275.82 639 275.14C642.231 275.697 644.066 276.432 646 279.14C646.438 281.64 646.438 281.64 646 284.14C643.52 286.783 642.042 287.136 638.396 287.512C636.962 287.525 635.528 287.521 634.094 287.503C633.332 287.504 632.57 287.504 631.786 287.505C630.178 287.503 628.571 287.493 626.964 287.476C624.508 287.453 622.054 287.456 619.598 287.462C618.034 287.457 616.47 287.45 614.906 287.441C614.174 287.442 613.441 287.443 612.687 287.444C608.973 287.392 606.156 287.196 603 285.14C602.688 282.453 602.688 282.453 603 279.14C605.375 276.453 605.375 276.453 608 274.14C610.485 270.412 610.307 267.498 610.319 263.18C610.329 262.37 610.339 261.56 610.349 260.726C610.38 258.048 610.397 255.369 610.414 252.691C610.433 250.834 610.452 248.978 610.473 247.121C610.524 242.234 610.564 237.346 610.601 232.458C610.641 227.471 610.692 222.485 610.742 217.498C610.839 207.712 610.923 197.926 611 188.14Z" fill="#2C180E"/>
<path d="M163.859 171.812C164.811 171.817 165.762 171.822 166.742 171.828C168.231 171.859 168.231 171.859 169.75 171.89C170.727 171.895 171.704 171.9 172.711 171.906C186.604 172.056 186.604 172.056 189.555 174.348C191.379 176.609 192.152 178.74 193.11 181.484C193.498 182.581 193.885 183.678 194.285 184.809C194.698 186.002 195.11 187.196 195.535 188.425C196.206 190.328 196.876 192.231 197.546 194.134C198.489 196.814 199.423 199.497 200.358 202.181C202.406 208.058 204.468 213.93 206.535 219.8C206.761 220.442 206.986 221.083 207.219 221.744C210.497 231.049 213.895 240.301 217.434 249.511C217.835 250.556 218.236 251.602 218.649 252.678C220.71 257.991 222.875 263.22 225.286 268.385C226 270.14 226 270.14 226 272.14C224.138 271.926 224.138 271.926 222 271.14C220.819 269.257 220.819 269.257 219.789 266.57C219.155 264.932 219.155 264.932 218.509 263.26C218.003 261.888 217.501 260.514 217 259.14C216.698 258.32 216.396 257.499 216.085 256.654C213.877 250.638 211.711 244.608 209.556 238.573C207.563 232.991 205.56 227.411 203.559 221.832C203.166 220.735 202.773 219.639 202.368 218.51C197.926 206.128 193.397 193.78 188.838 181.441C188.198 179.684 187.591 177.914 187 176.14C178.09 175.81 169.18 175.48 160 175.14C160.66 178.11 161.32 181.08 162 184.14C159.525 183.15 159.525 183.15 157 182.14C156.312 178.828 156.312 178.828 156 175.14C158.196 171.949 160.123 171.771 163.859 171.812Z" fill="#362216"/>
<path d="M69 229.14C71.9374 231.913 74.1807 234.706 76.3555 238.105C76.9737 239.064 77.5918 240.023 78.2288 241.012C78.8751 242.023 79.5215 243.035 80.1875 244.078C81.5328 246.158 82.8791 248.237 84.2266 250.316C84.8753 251.318 85.524 252.321 86.1924 253.354C88.4557 256.843 90.7311 260.321 93.0625 263.765C93.6929 264.706 94.3232 265.647 94.9727 266.617C98.3854 270.865 102.209 274.079 107.312 276.14C110.848 277.82 110.848 277.82 112.188 280.64C111.94 283.938 111.472 284.908 109 287.14C105.881 287.741 102.792 287.652 99.625 287.601C98.7041 287.6 97.7833 287.599 96.8345 287.598C94.8876 287.592 92.9408 287.576 90.9941 287.552C88.0114 287.515 85.0298 287.511 82.0469 287.511C80.1562 287.501 78.2656 287.49 76.375 287.476C75.4812 287.474 74.5874 287.472 73.6665 287.469C72.8355 287.457 72.0046 287.444 71.1484 287.431C70.0528 287.419 70.0528 287.419 68.9351 287.408C67 287.14 67 287.14 64 285.14C63.8125 282.015 63.8125 282.015 64 279.14C64.4103 279.626 64.8207 280.112 65.2435 280.613C67.3735 282.465 68.3211 282.53 71.1042 282.573C71.9249 282.592 72.7455 282.612 73.591 282.632C74.4723 282.639 75.3537 282.645 76.2617 282.652C77.1675 282.67 78.0733 282.688 79.0065 282.706C81.9002 282.76 84.7936 282.794 87.6875 282.828C89.6491 282.861 91.6107 282.895 93.5723 282.931C98.3814 283.016 103.19 283.083 108 283.14C108 281.82 108 280.5 108 279.14C107.175 279.099 106.35 279.058 105.5 279.015C95.2655 276.457 90.2967 267.362 84.9375 259.015C84.1672 257.842 83.3958 256.671 82.623 255.5C80.3734 252.072 78.1721 248.617 76 245.14C75.6467 244.575 75.2935 244.01 74.9295 243.427C73.9213 241.8 72.931 240.162 71.9414 238.523C71.3724 237.581 70.8033 236.639 70.217 235.668C69 233.14 69 233.14 69 229.14Z" fill="#362216"/>
<path d="M323 16.1401C324.32 16.8001 325.64 17.4601 327 18.1401C327.188 21.5151 327.188 21.5151 327 25.1401C323.099 27.7409 319.811 27.4325 315.284 27.4272C314.393 27.4341 313.501 27.4409 312.583 27.448C310.643 27.4616 308.703 27.4706 306.763 27.4757C303.68 27.484 300.596 27.5045 297.512 27.5282C290.946 27.5765 284.379 27.6093 277.812 27.6401C270.244 27.676 262.675 27.7183 255.106 27.7761C252.093 27.7959 249.081 27.8044 246.068 27.8124C229.887 27.6248 229.887 27.6248 214 30.1401C212.055 32.074 212.055 32.074 211 34.1401C210.67 32.1601 210.34 30.1801 210 28.1401C217.671 24.6116 224.48 23.9876 232.861 23.9348C233.837 23.9249 234.813 23.915 235.819 23.9048C239.033 23.8733 242.247 23.8485 245.461 23.8237C247.694 23.8031 249.928 23.7822 252.161 23.7608C258.03 23.7057 263.899 23.6562 269.768 23.6079C275.761 23.5576 281.753 23.502 287.746 23.4468C299.497 23.3393 311.249 23.2379 323 23.1401C323 20.8301 323 18.5201 323 16.1401Z" fill="#362216"/>
<path d="M162.625 247.765C163.772 247.799 164.92 247.832 166.102 247.867C169 248.14 169 248.14 171 249.14C171 249.8 171 250.46 171 251.14C166.05 251.14 161.1 251.14 156 251.14C155.711 252.481 155.423 253.821 155.125 255.203C154.48 258.161 153.744 260.936 152.812 263.828C151.895 267.57 151.66 269.516 153 273.14C154.727 274.516 156.538 275.664 158.398 276.851C160 278.14 160 278.14 161.125 281.265C161 284.14 161 284.14 159.939 285.797C156.973 287.852 154.419 287.512 150.848 287.503C150.151 287.504 149.455 287.504 148.737 287.505C147.265 287.503 145.793 287.493 144.322 287.476C142.074 287.453 139.828 287.456 137.58 287.462C125.582 287.416 125.582 287.416 122 285.14C121.562 282.015 121.562 282.015 122 278.14C123.634 276.773 125.278 275.416 126.984 274.14C132.424 268.743 135.276 260.168 138 253.14C138.66 253.47 139.32 253.8 140 254.14C139.635 262.168 135.825 270.583 130.25 276.39C128 278.14 128 278.14 126 278.14C126 279.46 126 280.78 126 282.14C136.033 282.937 145.936 283.269 156 283.14C156.33 281.82 156.66 280.5 157 279.14C155.855 278.738 155.855 278.738 154.688 278.328C152.013 277.146 150.683 276.497 149 274.14C147.729 269.237 148.34 265.358 149.688 260.578C149.849 259.931 150.011 259.285 150.178 258.619C152.222 251.092 154.532 247.418 162.625 247.765Z" fill="#362216"/>
<path d="M613 72.1401C613.66 72.4701 614.32 72.8001 615 73.1401C615.015 74.3904 615.029 75.6406 615.044 76.9287C615.103 81.6069 615.18 86.2846 615.262 90.9624C615.296 92.9796 615.324 94.9968 615.346 97.0142C615.38 99.9289 615.433 102.843 615.488 105.757C615.495 106.646 615.501 107.535 615.508 108.451C615.67 115.509 616.579 122.801 620.812 128.64C626.932 132.837 633.606 132.478 640.742 132.554C641.866 132.574 642.989 132.593 644.147 132.613C647.723 132.672 651.299 132.719 654.875 132.765C657.305 132.803 659.734 132.842 662.164 132.882C668.109 132.978 674.055 133.063 680 133.14C680.33 133.8 680.66 134.46 681 135.14C671.095 136.039 661.193 136.273 651.25 136.317C649.89 136.324 648.529 136.334 647.169 136.348C624.623 136.559 624.623 136.559 618 131.14C612.206 125.347 611.774 118.186 611.748 110.398C611.755 109.459 611.762 108.519 611.77 107.55C611.77 106.565 611.77 105.58 611.771 104.565C611.774 102.499 611.782 100.432 611.794 98.3655C611.813 95.1881 611.815 92.011 611.814 88.8335C611.819 86.8224 611.825 84.8114 611.832 82.8003C611.833 81.8462 611.834 80.8922 611.835 79.9092C611.842 79.0342 611.848 78.1591 611.855 77.2576C611.859 76.4845 611.862 75.7114 611.866 74.9149C612 73.1401 612 73.1401 613 72.1401Z" fill="#2D190E"/>
<path d="M37 240.14C37.66 240.47 38.32 240.8 39 241.14C38.5256 241.8 38.0513 242.46 37.5625 243.14C34.4236 249.167 34.816 256.178 35.125 262.828C35.1353 263.56 35.1456 264.293 35.1562 265.048C35.3451 269.076 35.8321 270.939 38.4414 274.07C39.8937 275.245 41.3488 276.417 42.8125 277.578C44.7084 280.072 44.3847 282.127 44 285.14C40.1478 287.708 36.9652 287.428 32.5 287.406C31.6679 287.408 30.8358 287.41 29.9785 287.412C28.22 287.413 26.4616 287.409 24.7031 287.401C22.0102 287.39 19.3179 287.401 16.625 287.414C14.9167 287.412 13.2083 287.41 11.5 287.406C10.6937 287.41 9.88738 287.414 9.05664 287.418C5.18525 287.386 3.29534 287.337 0 285.14C0.33 282.83 0.66 280.52 1 278.14C1.66 278.47 2.32 278.8 3 279.14C3.33 280.13 3.66 281.12 4 282.14C8.21134 283.164 12.1619 283.255 16.4883 283.238C17.5431 283.236 17.5431 283.236 18.6192 283.234C20.8503 283.228 23.0814 283.215 25.3125 283.203C26.8314 283.198 28.3503 283.193 29.8691 283.189C33.5795 283.178 37.2897 283.161 41 283.14C40.4341 282.441 39.8682 281.743 39.2852 281.023C38.5517 280.113 37.8182 279.203 37.0625 278.265C36.3316 277.36 35.6007 276.455 34.8477 275.523C30.7106 270.188 31.6989 264.298 31.625 257.765C31.5689 255.897 31.5689 255.897 31.5117 253.992C31.5001 252.795 31.4885 251.599 31.4766 250.367C31.4567 249.269 31.4369 248.172 31.4165 247.041C32 244.14 32 244.14 34.5327 241.751C35.3469 241.219 36.1611 240.688 37 240.14Z" fill="#362216"/>
<path d="M5 184.14C7.375 183.953 7.375 183.953 10 184.14C13.4088 189.253 13.1259 195.014 13.1611 201.018C13.1661 201.667 13.1711 202.315 13.1762 202.983C13.1907 205.104 13.1976 207.226 13.2031 209.347C13.206 210.078 13.2088 210.81 13.2117 211.563C13.2266 215.433 13.2359 219.302 13.2402 223.172C13.2457 227.142 13.2697 231.113 13.2982 235.083C13.3169 238.161 13.322 241.238 13.3236 244.316C13.3266 245.778 13.3345 247.241 13.3478 248.703C13.417 256.947 13.0533 264.378 10 272.14C9.34 271.81 8.68 271.48 8 271.14C8.07074 270.263 8.14147 269.386 8.21436 268.482C9.03651 257.102 9.15341 245.765 9.13037 234.359C9.12501 231.211 9.13035 228.063 9.13672 224.916C9.14158 215.736 9.0913 206.557 8.67969 197.386C8.62281 196.072 8.56593 194.758 8.50732 193.404C7.97869 190.003 7.21346 188.679 5 186.14C5 185.48 5 184.82 5 184.14Z" fill="#2C180E"/>
<path d="M495 275.14C496.097 278.43 495.8 279.853 495 283.14C500.473 283.165 505.946 283.183 511.418 283.195C513.27 283.2 515.122 283.207 516.974 283.216C526.944 283.262 536.898 283.198 546.859 282.761C547.662 282.731 548.465 282.7 549.292 282.668C553.125 282.476 556.614 282.057 560.321 281.039C563.802 280.189 564.792 280.132 568 281.14C558.16 287.507 547.628 287.306 536.293 287.378C535.091 287.386 533.888 287.395 532.65 287.403C530.121 287.417 527.592 287.427 525.063 287.435C522.47 287.447 519.878 287.467 517.285 287.497C513.538 287.539 509.791 287.556 506.043 287.566C504.881 287.583 503.718 287.601 502.52 287.619C500.908 287.615 500.908 287.615 499.262 287.61C498.316 287.616 497.37 287.622 496.395 287.628C494 287.14 494 287.14 492.163 285.306C491 283.14 491 283.14 491.125 280.015C492 277.14 492 277.14 495 275.14Z" fill="#362216"/>
<path d="M669 182.14C672.8 182.683 674.539 184.255 677 187.14C678.157 190.612 678.127 193.315 678.129 196.979C678.131 197.67 678.133 198.362 678.135 199.074C678.139 201.362 678.136 203.649 678.133 205.937C678.133 207.53 678.134 209.123 678.136 210.717C678.137 214.059 678.135 217.401 678.13 220.744C678.125 225.015 678.128 229.286 678.134 233.558C678.138 236.85 678.136 240.143 678.134 243.436C678.133 245.01 678.134 246.584 678.136 248.158C678.139 250.366 678.135 252.575 678.129 254.784C678.129 256.038 678.128 257.293 678.127 258.585C677.999 262.168 677.572 265.603 677 269.14C676.34 269.14 675.68 269.14 675 269.14C674.999 268.149 674.997 267.158 674.996 266.137C674.979 256.793 674.936 247.45 674.868 238.107C674.834 233.304 674.809 228.501 674.804 223.697C674.8 219.061 674.772 214.425 674.727 209.789C674.714 208.021 674.709 206.253 674.714 204.484C674.719 202.006 674.693 199.53 674.659 197.052C674.668 196.321 674.677 195.591 674.686 194.839C674.596 190.834 674.158 189.318 671.459 186.271C670.647 185.568 669.836 184.865 669 184.14C669 183.48 669 182.82 669 182.14Z" fill="#2C180E"/>
<path d="M228 275.14C230.915 276.214 232.778 276.918 235 279.14C235.125 282.765 235.125 282.765 235 286.14C232.726 287.277 231.474 287.267 228.949 287.27C227.698 287.274 227.698 287.274 226.421 287.279C225.519 287.277 224.617 287.275 223.688 287.273C222.763 287.274 221.838 287.275 220.885 287.276C218.929 287.277 216.972 287.275 215.015 287.271C212.012 287.265 209.01 287.27 206.008 287.277C204.109 287.276 202.211 287.275 200.312 287.273C199.41 287.275 198.508 287.277 197.579 287.279C196.745 287.276 195.91 287.273 195.051 287.27C193.947 287.268 193.947 287.268 192.822 287.267C191 287.14 191 287.14 189 286.14C189 283.83 189 281.52 189 279.14C189.618 279.869 189.618 279.869 190.249 280.613C192.353 282.448 193.262 282.529 196.012 282.573C196.813 282.592 197.614 282.612 198.439 282.632C199.728 282.642 199.728 282.642 201.043 282.652C201.927 282.67 202.81 282.688 203.721 282.706C206.543 282.76 209.365 282.794 212.188 282.828C214.101 282.861 216.014 282.895 217.928 282.931C222.618 283.016 227.309 283.083 232 283.14C230.68 280.5 229.36 277.86 228 275.14Z" fill="#362216"/>
<path d="M499 188.14C499.99 188.47 500.98 188.8 502 189.14C503.193 195.869 503.276 202.585 503.422 209.406C503.45 210.676 503.478 211.946 503.506 213.255C503.563 215.931 503.617 218.607 503.667 221.284C503.734 224.713 503.818 228.141 503.907 231.57C503.988 234.848 504.047 238.127 504.109 241.406C504.144 242.637 504.178 243.868 504.213 245.137C504.23 246.275 504.247 247.414 504.265 248.586C504.286 249.589 504.307 250.592 504.33 251.625C503.95 254.522 503.269 255.377 501 257.14C499.89 253.81 499.841 251.251 499.795 247.741C499.785 247.097 499.775 246.453 499.765 245.789C499.733 243.663 499.708 241.536 499.684 239.41C499.663 237.934 499.642 236.459 499.621 234.983C499.565 231.102 499.516 227.221 499.468 223.339C499.418 219.378 499.362 215.416 499.307 211.455C499.199 203.683 499.098 195.912 499 188.14Z" fill="#2E190E"/>
<path d="M431 279.14C431.66 279.14 432.32 279.14 433 279.14C433.33 280.46 433.66 281.78 434 283.14C447.86 283.14 461.72 283.14 476 283.14C475.67 284.46 475.34 285.78 475 287.14C469.216 287.165 463.432 287.183 457.648 287.195C455.68 287.2 453.712 287.207 451.743 287.216C448.916 287.228 446.089 287.233 443.262 287.238C441.94 287.246 441.94 287.246 440.591 287.253C439.77 287.254 438.95 287.254 438.104 287.254C437.022 287.257 437.022 287.257 435.917 287.26C434 287.14 434 287.14 431 286.14C431 283.83 431 281.52 431 279.14Z" fill="#2C180E"/>
<path d="M45.9246 232.27C48.9043 233.519 49.6324 235.274 51.207 238.066C51.7942 239.091 52.3814 240.117 52.9863 241.173C53.589 242.255 54.1916 243.338 54.8125 244.453C55.4035 245.492 55.9946 246.532 56.6035 247.603C57.8012 249.71 58.992 251.82 60.176 253.935C62.5891 258.175 65.1256 262.339 67.6787 266.497C69.5903 270.321 69.5635 272.954 69 277.14C68.34 277.14 67.68 277.14 67 277.14C66.7426 276.116 66.4852 275.092 66.22 274.037C65.1418 270.277 63.4933 267.161 61.4805 263.796C61.14 263.224 60.7996 262.651 60.4488 262.061C59.7322 260.859 59.0119 259.659 58.2878 258.461C57.1931 256.649 56.1102 254.831 55.0293 253.011C51.5707 247.217 48.0458 241.545 44 236.14C43.01 236.47 42.02 236.8 41 237.14C41.375 235.203 41.375 235.203 42 233.14C44 232.14 44 232.14 45.9246 232.27Z" fill="#362216"/>
<path d="M613 0.140137C613.66 0.470137 614.32 0.800137 615 1.14014C615.05 7.27823 615.086 13.4162 615.11 19.5544C615.12 21.6407 615.134 23.727 615.151 25.8132C615.175 28.8194 615.187 31.8253 615.195 34.8315C615.206 35.7579 615.216 36.6842 615.227 37.6386C615.227 42.8749 614.714 47.1838 613 52.1401C612.67 52.1401 612.34 52.1401 612 52.1401C611.975 51.0821 611.95 50.0241 611.924 48.9341C611.829 44.953 611.729 40.9721 611.628 36.9912C611.585 35.2787 611.543 33.5661 611.503 31.8535C611.444 29.3708 611.381 26.8883 611.316 24.4058C611.296 23.6005 611.277 22.7953 611.256 21.9657C611.097 16.3952 610.654 10.9077 609.906 5.38135C610 3.14014 610 3.14014 611.483 1.32861C611.983 0.936416 612.484 0.544219 613 0.140137Z" fill="#2C180E"/>
<path d="M749 195.14C749.99 195.14 750.98 195.14 752 195.14C752.051 202.367 752.086 209.593 752.11 216.82C752.12 219.28 752.134 221.74 752.151 224.2C752.175 227.729 752.186 231.259 752.195 234.789C752.206 235.894 752.216 236.999 752.227 238.138C752.227 239.159 752.227 240.18 752.227 241.231C752.232 242.133 752.236 243.035 752.241 243.963C752 246.14 752 246.14 750 248.14C749.109 245.084 748.878 242.367 748.887 239.188C748.887 238.207 748.887 237.227 748.887 236.216C748.892 235.165 748.897 234.114 748.902 233.031C748.904 231.949 748.905 230.867 748.907 229.752C748.912 226.298 748.925 222.844 748.938 219.39C748.943 217.048 748.947 214.705 748.951 212.363C748.962 206.622 748.979 200.881 749 195.14Z" fill="#321B10"/>
<path d="M765 256.14C765.66 256.14 766.32 256.14 767 256.14C767.116 260.39 767.187 264.639 767.25 268.89C767.3 270.7 767.3 270.7 767.352 272.546C767.364 273.707 767.377 274.867 767.391 276.062C767.412 277.13 767.433 278.199 767.454 279.299C766.891 282.824 765.756 283.952 763 286.14C757.983 288.018 751.959 287.78 746.938 286.14C746.298 285.81 745.659 285.48 745 285.14C748.561 283.953 751.973 283.789 755.688 283.578C756.389 283.534 757.091 283.491 757.814 283.447C759.543 283.341 761.271 283.24 763 283.14C763.025 282.393 763.05 281.646 763.076 280.877C763.192 277.506 763.315 274.136 763.438 270.765C763.477 269.59 763.516 268.414 763.557 267.203C763.599 266.081 763.64 264.96 763.684 263.804C763.72 262.767 763.757 261.73 763.795 260.662C764 258.14 764 258.14 765 256.14Z" fill="#2D180E"/>
<path d="M175 248.14C177.605 248.059 180.207 248 182.812 247.952C183.55 247.927 184.288 247.902 185.049 247.876C190.441 247.803 190.441 247.803 192.879 249.273C196.988 256.116 199.464 266.131 199 274.14C197 277.14 197 277.14 193.875 277.827C192.926 277.931 191.978 278.034 191 278.14C191.639 277.397 192.279 276.655 192.938 275.89C194.871 273.312 195.539 272.21 196 269.14C195.301 266.336 194.538 263.683 193.625 260.952C193.39 260.216 193.156 259.479 192.914 258.72C191.967 255.15 191.967 255.15 190 252.14C187.308 251.903 184.635 251.718 181.938 251.577C181.179 251.534 180.42 251.491 179.639 251.447C177.759 251.34 175.88 251.24 174 251.14C174.33 250.15 174.66 249.16 175 248.14Z" fill="#362216"/>
<path d="M215 39.1401C217.784 40.5321 217.979 42.2959 219 45.1401C220.257 45.162 220.257 45.162 221.539 45.1843C224.644 45.2453 227.748 45.3195 230.853 45.4026C232.859 45.4522 234.865 45.4867 236.871 45.521C238.756 45.5742 238.756 45.5742 240.68 45.6284C241.842 45.6546 243.005 45.6808 244.203 45.7078C245.587 45.9218 245.587 45.9218 247 46.1401C247.66 47.1301 248.32 48.1201 249 49.1401C245.026 50.1069 241.467 50.1867 237.387 50.019C236.14 49.9707 234.892 49.9224 233.607 49.8726C232.314 49.8165 231.02 49.7604 229.688 49.7026C228.375 49.6504 227.062 49.5982 225.709 49.5444C222.472 49.415 219.236 49.28 216 49.1401C213.868 45.3973 214.043 43.3503 215 39.1401Z" fill="#331C10"/>
<path d="M397 275.14C399.468 276.292 401.048 277.188 403 279.14C403.25 282.14 403.25 282.14 403 285.14C401 287.14 401 287.14 398.729 287.383C397.331 287.377 397.331 287.377 395.906 287.371C394.875 287.369 393.844 287.367 392.781 287.365C391.698 287.352 390.616 287.34 389.5 287.328C388.448 287.327 387.396 287.326 386.312 287.326C379.82 287.29 373.446 286.922 367 286.14C367 285.48 367 284.82 367 284.14C377.89 284.14 388.78 284.14 400 284.14C400 282.16 400 280.18 400 278.14C399.01 278.14 398.02 278.14 397 278.14C397 277.15 397 276.16 397 275.14Z" fill="#362216"/>
<path d="M855 280.14C856.485 281.13 856.485 281.13 858 282.14C861.002 282.602 861.002 282.602 864.418 282.773C865.672 282.857 866.925 282.941 868.217 283.027C869.527 283.105 870.837 283.184 872.188 283.265C873.523 283.352 874.858 283.439 876.193 283.527C879.462 283.739 882.731 283.943 886 284.14C886 285.13 886 286.12 886 287.14C881.925 287.19 877.85 287.226 873.775 287.25C872.389 287.26 871.002 287.274 869.616 287.291C867.623 287.315 865.63 287.326 863.637 287.335C861.838 287.351 861.838 287.351 860.003 287.367C857 287.14 857 287.14 854 285.14C854.33 283.49 854.66 281.84 855 280.14Z" fill="#2D180E"/>
<path d="M313.562 6.70273C316.15 8.22862 317.406 9.62287 319 12.1402C318.078 12.1054 318.078 12.1054 317.137 12.0699C316.328 12.0519 315.52 12.0338 314.688 12.0152C313.487 11.9804 313.487 11.9804 312.262 11.9449C309.716 11.9821 309.716 11.9821 307 14.1402C299.454 15.4918 291.581 15.3228 283.938 15.3277C282.907 15.34 281.876 15.3522 280.814 15.3648C279.342 15.3677 279.342 15.3677 277.84 15.3707C276.515 15.3769 276.515 15.3769 275.164 15.3832C273 15.1402 273 15.1402 271 13.1402C288.325 12.6452 288.325 12.6452 306 12.1402C306.33 11.1502 306.66 10.1602 307 9.14023C309.357 6.69864 310.173 5.95865 313.562 6.70273Z" fill="#372216"/>
<path d="M400 248.14C404.521 248.066 409.041 248.012 413.562 247.975C415.1 247.96 416.639 247.94 418.177 247.914C420.387 247.878 422.595 247.861 424.805 247.847C425.839 247.824 425.839 247.824 426.895 247.8C428.835 247.8 428.835 247.8 432 248.14C432.66 249.13 433.32 250.12 434 251.14C422.45 251.14 410.9 251.14 399 251.14C399.33 250.15 399.66 249.16 400 248.14Z" fill="#2C180E"/>
<path d="M282 104.14C282.495 105.625 282.495 105.625 283 107.14C261.22 106.645 261.22 106.645 239 106.14C239.33 105.48 239.66 104.82 240 104.14C254.059 102.883 267.919 103.391 282 104.14Z" fill="#3A271A"/>
<path d="M523 190.14C523.66 190.14 524.32 190.14 525 190.14C525 199.38 525 208.62 525 218.14C524.01 217.48 523.02 216.82 522 216.14C521.644 213.742 521.644 213.742 521.672 210.765C521.677 209.698 521.682 208.63 521.687 207.531C521.708 206.412 521.729 205.293 521.75 204.14C521.755 203.021 521.76 201.902 521.766 200.75C521.846 192.448 521.846 192.448 523 190.14Z" fill="#2F190F"/>
<path d="M764 216.14C764.33 216.14 764.66 216.14 765 216.14C765.66 228.35 766.32 240.56 767 253.14C766.01 252.81 765.02 252.48 764 252.14C763.833 247.174 763.672 242.208 763.518 237.241C763.464 235.551 763.409 233.86 763.352 232.169C763.27 229.744 763.195 227.319 763.121 224.894C763.094 224.134 763.067 223.373 763.039 222.59C762.987 220.774 762.988 218.957 763 217.14C763.33 216.81 763.66 216.48 764 216.14Z" fill="#2E190F"/>
<path d="M702 127.14C697.32 131.381 692.329 133.932 686 134.327C685.34 134.266 684.68 134.204 684 134.14C684 133.48 684 132.82 684 132.14C686.433 131.107 688.871 130.089 691.312 129.077C692.348 128.636 692.348 128.636 693.404 128.185C698.66 126.027 698.66 126.027 702 127.14Z" fill="#362216"/>
<path d="M823 248.14C829.433 248.045 835.658 247.987 842 249.14C842 249.8 842 250.46 842 251.14C835.73 251.14 829.46 251.14 823 251.14C823 250.15 823 249.16 823 248.14Z" fill="#2D180E"/>
<path d="M87.2656 186.414C87.838 186.653 88.4103 186.893 89 187.14C87.1907 189.143 85.3778 191.143 83.5625 193.14C83.0462 193.713 82.53 194.285 81.9981 194.875C80.6859 196.315 79.3451 197.73 78 199.14C77.67 199.14 77.34 199.14 77 199.14C76.6631 195.94 76.7192 194.537 78.6094 191.867C79.669 190.827 79.669 190.827 80.75 189.765C81.7941 188.702 81.7941 188.702 82.8594 187.617C85 186.14 85 186.14 87.2656 186.414Z" fill="#352117"/>
<path d="M500 257.14C500.66 257.14 501.32 257.14 502 257.14C503.429 265.712 503.429 265.712 501 269.14C500.67 269.14 500.34 269.14 500 269.14C500 265.18 500 261.22 500 257.14Z" fill="#372216"/>
<path d="M8 271.14C8.66 271.8 9.32 272.46 10 273.14C8.75 275.64 8.75 275.64 7 278.14C5.68 278.14 4.36 278.14 3 278.14C4.293 275.256 5.65941 273.268 8 271.14Z" fill="#362216"/>
<path d="M69 207.14C67.7306 211.054 66.4883 212.931 63 215.14C63.3125 212.265 63.3125 212.265 64 209.14C67 207.14 67 207.14 69 207.14Z" fill="#372216"/>
<path d="M499 188.14C499.99 188.47 500.98 188.8 502 189.14C502 193.1 502 197.06 502 201.14C501.67 201.14 501.34 201.14 501 201.14C500.34 196.85 499.68 192.56 499 188.14Z" fill="#2C180E"/>
<path d="M283 107.14C285.595 109.735 285.7 111.539 286 115.14C285.34 115.8 284.68 116.46 284 117.14C282.393 113.926 282.942 110.704 283 107.14Z" fill="#3B271A"/>
</svg>
