<svg width="511" height="720" viewBox="0 0 511 720" fill="none" xmlns="http://www.w3.org/2000/svg">
<path d="M174.398 0.332243C177.497 0.248166 180.596 0.196849 183.696 0.141146C185.318 0.0836143 185.318 0.0836143 186.973 0.02492C194.98 -0.0657118 194.98 -0.065712 198.691 2.91385C201.815 6.37594 201.815 6.37594 202.036 9.51224C202.115 10.4378 202.193 11.3633 202.274 12.3169C202.499 21.6312 202.499 21.6312 200.223 25.2622C199.502 26.0047 198.78 26.7472 198.036 27.5122C197.046 27.5122 196.056 27.5122 195.036 27.5122C195.036 32.4622 195.036 37.4122 195.036 42.5122C196.221 42.2658 197.406 42.0193 198.627 41.7654C243.118 32.546 288.118 24.2563 333.724 24.3819C336.034 24.3872 338.344 24.3819 340.653 24.3755C355.264 24.3645 369.32 25.204 383.607 28.3587C385.73 28.8262 387.856 29.2748 389.983 29.7212C401.201 32.1175 411.876 35.1179 422.036 40.5122C424.451 41.725 426.867 42.9333 429.286 44.1372C430.479 44.7333 431.671 45.3297 432.864 45.9263C433.911 46.4497 434.957 46.973 436.036 47.5122C437.369 48.1789 438.703 48.8456 440.036 49.5122C440.036 50.1722 440.036 50.8322 440.036 51.5122C440.759 51.7752 441.482 52.0382 442.227 52.3091C462.201 60.8654 478.863 83.8151 487.113 103.205C489.15 108.298 490.992 113.454 492.786 118.637C493.163 119.702 493.54 120.768 493.929 121.865C499.82 139.572 500.484 157.326 500.317 175.841C500.286 179.338 500.276 182.834 500.27 186.331C500.234 196.714 500.079 207.033 499.272 217.388C498.912 222.159 498.777 226.917 498.723 231.7C498.694 232.6 498.665 233.501 498.636 234.428C498.531 239.58 498.531 239.58 500.856 244.04C503.113 245.662 503.113 245.662 506.223 246.887C509.036 248.512 509.036 248.512 509.911 250.95C510.235 260.179 509.96 269.294 509.231 278.497C509.147 279.596 509.063 280.695 508.977 281.828C508.799 284.137 508.619 286.446 508.437 288.755C508.163 292.239 507.898 295.723 507.634 299.208C506.826 309.691 505.891 320.101 504.5 330.524C503.563 338.072 503.196 345.685 502.718 353.273C502.41 358.126 502.078 362.977 501.751 367.829C501.253 375.232 501.253 375.232 500.771 382.637C500.565 385.784 500.337 388.929 500.098 392.075C500.048 392.928 499.998 393.782 499.946 394.661C499.676 397.968 499.499 400.011 497.204 402.497C494.208 403.9 491.308 404.198 488.036 404.512C486.217 411.788 485.413 418.915 484.817 426.383C484.714 427.618 484.61 428.854 484.504 430.126C484.175 434.067 483.856 438.008 483.536 441.95C483.322 444.531 483.107 447.113 482.891 449.694C481.782 463.048 480.72 476.406 479.708 489.768C479.597 491.233 479.597 491.233 479.483 492.727C479.413 493.673 479.342 494.619 479.269 495.593C479.105 497.653 478.921 499.711 478.724 501.768C478.574 503.363 478.574 503.363 478.421 504.991C478.325 505.949 478.23 506.907 478.131 507.895C478.04 510.402 478.301 512.298 478.973 514.7C488.388 551.391 471.88 602.154 453.773 633.714C449.028 641.572 443.608 648.511 437.262 655.145C435.008 657.46 435.008 657.46 433.145 659.993C430.626 663.002 427.761 665.328 424.661 667.7C424.044 668.175 423.428 668.651 422.793 669.141C420.881 670.607 418.959 672.061 417.036 673.512C416.465 673.948 415.894 674.383 415.306 674.832C374.886 705.508 323.589 717.16 273.723 719.075C272.205 719.139 272.205 719.139 270.655 719.206C256.857 719.752 243.128 719.546 229.348 718.762C228.216 718.698 228.216 718.698 227.061 718.632C190.447 716.484 153.529 710.242 121.036 692.512C119.98 691.948 118.924 691.383 117.837 690.801C80.2644 669.879 57.3777 632.827 45.5341 592.445C43.2159 584.237 41.4594 575.968 40.0777 567.555C39.8229 566.01 39.8229 566.01 39.5629 564.434C37.5527 551.926 36.1178 539.354 34.6805 526.77C34.375 524.136 34.0691 521.503 33.7625 518.869C33.1174 513.322 32.4763 507.775 31.838 502.227C30.8383 493.538 29.8295 484.851 28.8187 476.164C28.7348 475.443 28.6509 474.723 28.5645 473.98C28.227 471.079 27.8895 468.179 27.5518 465.278C27.0498 460.965 26.5484 456.653 26.0474 452.34C23.4803 430.244 20.8619 408.155 18.1609 386.075C17.9863 384.645 17.8117 383.215 17.6371 381.785C15.7581 366.404 13.8526 351.026 11.9405 335.649C11.0335 328.354 10.128 321.058 9.22344 313.762C9.12713 312.986 9.03081 312.209 8.93157 311.409C6.04666 288.137 3.21553 264.862 1.03594 241.512C0.93572 240.443 0.835496 239.374 0.732234 238.272C-1.84398 209.315 2.32805 182.135 14.0359 155.512C14.4626 154.522 14.8893 153.532 15.3289 152.512C23.0262 135.899 35.1639 122.297 48.0359 109.512C48.534 109.017 49.0321 108.522 49.5452 108.011C54.5612 103.095 59.8466 99.1181 65.8367 95.4693C70.602 92.5543 75.2604 89.4771 79.9346 86.419C83.2366 84.2723 86.5391 82.2069 89.9891 80.3052C93.0936 78.8502 93.0936 78.8502 94.0359 76.5122C94.1583 75.1201 94.2231 73.7226 94.2571 72.3255C94.2919 71.0285 94.2919 71.0285 94.3274 69.7054C94.3472 68.769 94.3671 67.8325 94.3875 66.8677C94.4107 65.9058 94.4338 64.9438 94.4577 63.9527C94.5053 61.9143 94.5506 59.8758 94.5936 57.8372C94.6604 54.7228 94.7383 51.6088 94.8172 48.4947C94.8621 46.5149 94.9064 44.535 94.95 42.5552C94.9739 41.6248 94.9978 40.6945 95.0224 39.7359C95.2396 33.5401 95.2396 33.5401 94.0359 27.5122C92.8913 27.1101 92.8913 27.1101 91.7234 26.6997C88.1525 25.1219 87.3216 23.2871 85.7625 19.8013C84.1648 14.7676 84.2118 10.3103 86.4109 5.51224C88.0359 3.51224 88.0359 3.51224 90.0359 2.51224C92.3528 2.36174 94.6738 2.2746 96.9947 2.21512C97.7124 2.19547 98.4301 2.17581 99.1695 2.15557C101.561 2.09136 103.953 2.03408 106.345 1.97708C108.026 1.93399 109.707 1.89057 111.388 1.84685C114.935 1.75566 118.482 1.66779 122.029 1.58231C126.491 1.4746 130.953 1.35979 135.415 1.24282C143.944 1.01984 152.473 0.82047 161.003 0.655846C165.468 0.568983 169.933 0.46214 174.398 0.332243ZM113.036 26.5122C114.178 29.0775 114.178 29.0775 116.036 31.5122C118.397 32.2171 118.397 32.2171 121.11 32.0357C122.678 32.0195 122.678 32.0195 124.278 32.003C125.415 31.9648 126.552 31.9266 127.723 31.8872C128.899 31.8658 130.074 31.8444 131.284 31.8223C134.51 31.757 137.734 31.6678 140.96 31.5701C143.835 31.49 146.711 31.4368 149.588 31.3831C152.504 31.3268 155.42 31.2596 158.337 31.1888C159.757 31.1545 161.177 31.1223 162.597 31.092C164.596 31.0467 166.595 30.9868 168.595 30.9263C169.742 30.8949 170.89 30.8635 172.073 30.8311C174.91 30.5258 176.623 29.9835 179.036 28.5122C175.431 27.3106 172.067 27.2811 168.309 27.1958C167.537 27.175 166.764 27.1542 165.968 27.1327C163.449 27.0667 160.93 27.0079 158.411 26.9497C156.687 26.9069 154.963 26.864 153.239 26.8211C139.837 26.5002 126.442 26.3865 113.036 26.5122ZM334.207 45.8846C331.936 45.949 329.666 46.0091 327.395 46.0689C308.488 46.4305 308.488 46.4305 289.786 48.8872C288.344 49.1618 286.901 49.4339 285.458 49.7036C284.729 49.8404 284 49.9772 283.249 50.1182C280.308 50.6418 277.357 51.0677 274.4 51.4883C233.971 57.2408 195.42 67.2482 156.577 79.7364C152.485 81.0514 148.387 82.3447 144.283 83.6218C124.306 89.8513 103.042 97.0712 85.8516 109.322C84.0359 110.512 84.0359 110.512 81.0359 111.512C81.0359 112.172 81.0359 112.832 81.0359 113.512C80.0169 113.858 80.0169 113.858 78.9773 114.211C75.2948 115.84 72.2311 117.979 68.9734 120.325C68.3618 120.751 67.7501 121.177 67.1199 121.616C63.4565 124.234 60.732 126.854 58.0359 130.512C56.3693 132.179 54.7026 133.846 53.0359 135.512C47.6417 141.126 43.5003 146.553 40.0359 153.512C39.4016 154.735 38.7661 155.958 38.1297 157.18C29.998 172.928 21.5629 191.396 22.0359 209.512C22.6959 209.512 23.3559 209.512 24.0359 209.512C29.3071 203.873 31.6497 197.761 34.2864 190.651C46.614 157.708 68.7779 130.418 99.116 112.644C100.913 111.585 102.686 110.496 104.458 109.395C144.149 85.45 197.832 73.9793 243.036 65.5122C244.133 65.3053 244.133 65.3053 245.252 65.0942C284.632 57.6944 323.792 54.11 363.837 54.3749C367.378 54.396 370.92 54.4046 374.462 54.4146C381.32 54.4356 388.178 54.4693 395.036 54.5122C391.482 51.6732 388.169 50.4848 383.786 49.4497C383.086 49.2805 382.387 49.1114 381.666 48.937C365.855 45.2695 350.33 45.4222 334.207 45.8846ZM115.036 47.5122C112.856 49.2778 112.856 49.2778 112.809 51.4834C112.819 52.269 112.83 53.0545 112.841 53.8638C112.847 54.7146 112.854 55.5654 112.86 56.4419C112.877 57.3314 112.894 58.2208 112.911 59.1372C112.92 60.0344 112.929 60.9316 112.938 61.856C112.962 64.075 112.995 66.2935 113.036 68.5122C114.356 68.1822 115.676 67.8522 117.036 67.5122C117.09 64.5537 117.13 61.5961 117.161 58.6372C117.178 57.7955 117.194 56.9537 117.212 56.0865C117.218 55.2808 117.225 54.4751 117.231 53.6451C117.242 52.9014 117.252 52.1578 117.263 51.3916C117.203 49.2673 117.203 49.2673 115.036 47.5122ZM301.394 107.189C298.997 107.518 296.599 107.84 294.201 108.162C246.433 114.621 196.152 124.11 151.377 142.559C149.068 143.499 146.745 144.37 144.403 145.223C136.412 148.162 129.517 150.88 123.036 156.512C121.499 157.656 119.963 158.8 118.42 159.937C98.8136 174.528 84.7253 193.689 80.575 218.239C80.266 221.003 80.1278 223.732 80.0359 226.512C79.9728 227.601 79.9096 228.691 79.8445 229.813C79.4089 243.57 81.5476 257.15 83.3303 270.757C83.8445 274.759 84.2422 278.751 84.5398 282.774C84.9193 287.734 85.6395 292.57 86.5008 297.468C87.0489 300.586 87.5483 303.708 88.0359 306.836C88.2009 307.885 88.3659 308.934 88.5359 310.014C88.8711 312.149 89.2044 314.285 89.5359 316.42C90.2546 320.971 90.9904 325.48 92.0633 329.961C93.4107 335.784 93.9605 341.703 94.5984 347.637C94.8489 349.911 95.1002 352.184 95.3523 354.458C95.4601 355.453 95.5678 356.448 95.6788 357.474C95.9193 359.52 96.2014 361.562 96.5223 363.597C97.2468 369.12 97.5715 374.655 97.9383 380.211C98.9319 394.606 100.188 408.965 101.598 423.325C101.723 424.596 101.847 425.867 101.975 427.176C104.167 449.416 106.785 471.593 109.598 493.762C109.691 494.494 109.783 495.225 109.879 495.979C111.966 512.499 114.198 528.993 116.665 545.461C116.767 546.149 116.869 546.837 116.974 547.546C119.617 565.295 123.001 584.799 134.036 599.512C144.266 595.882 154.496 592.252 165.036 588.512C161.995 586.232 159.341 584.583 156.036 582.825C151.996 580.376 149.376 578.399 147.587 573.973C145.343 563.947 146.474 553.482 151.735 544.665C156.86 537.184 162.815 530.433 172.036 528.512C178.394 528.135 183.195 529.201 189.161 531.325C190.498 531.785 190.498 531.785 191.861 532.255C207.403 537.659 222.832 543.422 238.231 549.219C240.458 550.046 242.684 550.873 244.911 551.7C245.92 552.086 246.929 552.473 247.969 552.871C249.39 553.395 249.39 553.395 250.841 553.93C251.655 554.237 252.47 554.544 253.309 554.861C259.78 556.407 265.391 555.455 271.582 553.325C272.289 553.092 272.995 552.86 273.724 552.62C276.035 551.857 278.34 551.077 280.645 550.297C282.261 549.761 283.876 549.225 285.492 548.69C289.729 547.286 293.961 545.867 298.192 544.445C303.339 542.718 308.492 541.007 313.643 539.294C317.65 537.962 321.655 536.627 325.658 535.285C326.761 534.915 326.761 534.915 327.887 534.539C329.257 534.08 330.626 533.621 331.994 533.16C340.069 530.46 347.876 529.123 356.286 531.387C363.56 537.008 369.699 545.592 372.036 554.512C372.464 559.879 372.32 565.139 372.036 570.512C371.999 571.424 371.961 572.335 371.923 573.274C371.436 576.09 370.93 577.337 369.036 579.512C362.627 583.867 355.221 586.709 348.036 589.512C348.036 590.172 348.036 590.832 348.036 591.512C351.245 593.597 354.504 595.535 357.821 597.44C363.365 600.751 368.097 604.634 371.036 610.512C378.615 607.986 383.797 596.608 387.348 589.762C387.661 589.181 387.974 588.599 388.296 588C395.6 573.259 396.04 556.654 397.098 540.575C397.318 537.279 397.543 533.984 397.781 530.69C397.928 528.658 398.065 526.625 398.189 524.592C398.5 520.271 398.928 516.445 400.475 512.385C403.021 505.414 403.346 497.854 404.036 490.512C404.103 489.803 404.17 489.094 404.239 488.363C404.711 483.297 405.132 478.228 405.544 473.157C405.675 471.555 405.807 469.954 405.939 468.353C406.211 465.03 406.482 461.706 406.75 458.383C407.092 454.163 407.441 449.945 407.793 445.726C408.066 442.431 408.334 439.136 408.601 435.84C408.727 434.286 408.856 432.731 408.986 431.177C409.787 421.59 410.206 412.141 410.036 402.512C409.355 402.158 408.675 401.803 407.973 401.437C401.161 397.887 401.161 397.887 400.036 394.512C399.953 392.372 399.935 390.229 399.95 388.086C399.954 387.433 399.958 386.78 399.962 386.107C399.979 383.908 400.006 381.71 400.036 379.512C400.046 378.734 400.056 377.955 400.067 377.153C400.139 372.085 400.238 367.017 400.353 361.95C400.392 360.195 400.427 358.439 400.458 356.683C400.618 347.719 400.854 339.021 402.55 330.19C403.398 325.517 403.699 320.807 404.036 316.075C404.117 314.992 404.198 313.91 404.282 312.794C404.779 305.907 405.181 299.018 405.536 292.122C405.578 291.312 405.62 290.503 405.663 289.669C405.869 285.67 406.067 281.67 406.251 277.669C406.593 270.495 407.03 263.332 407.817 256.192C408.004 254.426 408.004 254.426 408.194 252.625C409.446 247.996 412.119 245.825 415.942 243.126C418.283 241.322 418.947 240.228 420.036 237.512C420.367 235.059 420.367 235.059 420.371 232.39C420.405 230.855 420.405 230.855 420.441 229.289C420.455 228.182 420.47 227.075 420.485 225.934C420.507 224.776 420.529 223.618 420.551 222.424C420.595 219.96 420.634 217.495 420.669 215.03C420.722 211.346 420.793 207.661 420.866 203.977C421.072 192.393 421.105 180.837 420.657 169.258C420.622 168.297 420.587 167.337 420.551 166.347C419.659 146.941 413.12 132.73 399.074 119.623C381.679 104.003 359.053 102.54 336.6 103.317C324.807 103.963 313.089 105.585 301.394 107.189ZM417.036 107.512C417.696 108.172 418.356 108.832 419.036 109.512C419.036 108.852 419.036 108.192 419.036 107.512C418.376 107.512 417.716 107.512 417.036 107.512ZM419.036 109.512C420.662 113.715 422.509 117.804 424.411 121.887C424.702 122.521 424.994 123.156 425.294 123.809C426.787 127.019 428.357 130.089 430.192 133.118C431.99 136.428 432.694 138.751 433.161 142.45C433.607 145.83 434.16 148.991 435.02 152.297C436.192 156.829 436.699 161.362 437.161 166.012C437.247 166.835 437.334 167.657 437.423 168.504C437.632 170.507 437.835 172.509 438.036 174.512C441.12 173.842 441.12 173.842 442.223 171.575C446.357 155.993 439.257 137.099 432.036 123.512C428.331 118.049 424.298 113.491 419.036 109.512ZM436.036 202.512C436.036 203.172 436.036 203.832 436.036 204.512C436.628 204.379 437.219 204.247 437.829 204.11C438.619 203.933 439.409 203.757 440.223 203.575C441.001 203.401 441.778 203.227 442.579 203.047C443.39 202.871 444.201 202.694 445.036 202.512C445.795 202.339 446.555 202.166 447.337 201.987C450.172 201.488 452.799 201.383 455.677 201.379C456.748 201.378 457.819 201.377 458.923 201.376C460.033 201.379 461.142 201.383 462.286 201.387C463.928 201.381 463.928 201.381 465.602 201.376C471.831 201.383 477.861 201.692 484.036 202.512C483.657 200.543 483.657 200.543 483.036 198.512C469.828 189.962 448.517 195.809 436.036 202.512ZM440.452 212.204C437.729 216.641 438.321 221.993 438.161 227.075C438.102 228.224 438.042 229.373 437.981 230.557C437.94 231.657 437.899 232.758 437.856 233.891C437.818 234.897 437.779 235.904 437.74 236.94C437.837 239.524 437.837 239.524 439.283 241.359C441.496 242.815 442.643 242.791 445.266 242.586C446.47 242.504 446.47 242.504 447.698 242.42C448.531 242.348 449.365 242.275 450.223 242.2C451.068 242.139 451.913 242.077 452.784 242.014C454.869 241.861 456.953 241.688 459.036 241.512C459.061 240.74 459.086 239.968 459.112 239.173C459.228 235.682 459.351 232.191 459.473 228.7C459.513 227.485 459.552 226.27 459.593 225.018C459.634 223.855 459.676 222.691 459.72 221.493C459.756 220.419 459.793 219.346 459.831 218.24C460.036 215.512 460.036 215.512 461.036 212.512C462.026 212.512 463.016 212.512 464.036 212.512C464.086 213.385 464.136 214.259 464.188 215.158C464.378 218.389 464.576 221.618 464.781 224.847C464.867 226.247 464.951 227.647 465.031 229.047C465.146 231.055 465.274 233.063 465.403 235.071C465.476 236.281 465.55 237.49 465.625 238.737C465.829 240.111 465.829 240.111 466.036 241.512C466.696 241.842 467.356 242.172 468.036 242.512C469.521 242.017 469.521 242.017 471.036 241.512C471.888 234.443 472.163 227.503 472.098 220.387C472.094 219.431 472.089 218.474 472.085 217.489C472.073 215.163 472.057 212.838 472.036 210.512C464.691 206.987 446.619 205.615 440.452 212.204ZM25.0359 236.512C19.2211 245.235 23.9004 262.498 25.1609 272.536C25.3863 274.38 25.611 276.224 25.8349 278.069C26.4346 282.99 27.0445 287.909 27.6565 292.828C28.2962 297.985 28.9258 303.144 29.5567 308.302C32.5524 332.755 35.6199 357.199 38.7051 381.641C41.1998 401.43 43.5357 421.235 45.7852 441.053C46.0345 443.249 46.2841 445.446 46.5337 447.642C47.3646 454.951 48.194 462.261 49.0228 469.571C49.1056 470.302 49.1885 471.033 49.2739 471.787C49.7023 475.566 50.1302 479.346 50.5574 483.125C51.516 491.605 52.4805 500.083 53.4595 508.56C53.8773 512.18 54.292 515.8 54.6978 519.421C57.521 544.582 60.9254 569.447 69.0359 593.512C69.3226 594.375 69.6093 595.238 69.9046 596.126C77.8445 619.907 88.3155 640.385 107.036 657.512C107.696 657.512 108.356 657.512 109.036 657.512C109.036 658.172 109.036 658.832 109.036 659.512C110.686 660.172 112.336 660.832 114.036 661.512C114.036 662.172 114.036 662.832 114.036 663.512C116.617 664.83 119.2 666.141 121.786 667.45C122.516 667.823 123.245 668.196 123.997 668.581C124.706 668.938 125.415 669.296 126.145 669.665C126.795 669.994 127.444 670.324 128.113 670.664C130.069 671.527 131.951 672.056 134.036 672.512C131.244 669.571 128.371 667.248 125.036 664.95C117.723 659.708 110.386 653.781 104.813 646.68C104.227 645.965 103.64 645.249 103.036 644.512C102.376 644.512 101.716 644.512 101.036 644.512C100.781 643.96 100.525 643.409 100.263 642.84C98.8432 640.146 97.1592 637.756 95.4109 635.262C80.8247 613.515 71.6982 587.212 68.0801 561.39C67.9146 560.239 67.749 559.088 67.5784 557.902C65.5276 543.34 63.8804 528.729 62.2262 514.118C61.758 509.993 61.284 505.869 60.8107 501.745C59.7104 492.151 58.6168 482.556 57.5239 472.961C55.9562 459.202 54.3839 445.444 52.8064 431.686C52.6132 430.001 52.42 428.315 52.2269 426.629C49.3763 401.744 46.4123 376.877 43.233 352.031C42.9683 349.958 42.7038 347.885 42.4395 345.812C42.2525 344.345 42.2525 344.345 42.0617 342.849C41.2927 336.747 40.61 330.642 39.9898 324.523C39.1265 316.023 37.9823 307.583 36.7234 299.133C36.5066 297.66 36.2901 296.186 36.0738 294.713C35.6258 291.667 35.1752 288.621 34.7225 285.575C34.1465 281.7 33.5764 277.824 33.0081 273.947C32.564 270.921 32.1172 267.895 31.6696 264.87C31.4585 263.441 31.248 262.011 31.0382 260.582C30.1075 254.251 29.1612 247.922 28.0164 241.626C27.8749 240.846 27.7333 240.067 27.5875 239.264C27.4055 238.686 27.2235 238.108 27.0359 237.512C26.3759 237.182 25.7159 236.852 25.0359 236.512ZM435.286 256.887C434.115 256.957 432.945 257.026 431.739 257.098C430.401 257.303 430.401 257.303 429.036 257.512C427.862 259.861 427.921 261.25 427.938 263.864C427.942 264.715 427.945 265.565 427.948 266.442C427.956 267.331 427.965 268.221 427.973 269.137C427.978 270.034 427.982 270.932 427.987 271.856C427.999 274.075 428.015 276.293 428.036 278.512C429.686 278.512 431.336 278.512 433.036 278.512C433.544 277.266 434.042 276.015 434.536 274.762C434.814 274.066 435.093 273.37 435.38 272.653C436.231 270.248 436.231 270.248 436.036 266.512C438.016 266.182 439.996 265.852 442.036 265.512C442.036 269.802 442.036 274.092 442.036 278.512C447.678 278.586 453.319 278.641 458.961 278.677C460.881 278.692 462.8 278.713 464.72 278.739C467.478 278.775 470.235 278.792 472.993 278.805C473.852 278.821 474.712 278.836 475.597 278.852C476.398 278.852 477.199 278.853 478.023 278.853C478.727 278.859 479.431 278.866 480.157 278.873C482.658 278.393 483.528 277.541 485.036 275.512C485.307 272.734 485.41 270.219 485.348 267.45C485.352 266.717 485.355 265.984 485.358 265.229C485.451 260.904 485.451 260.904 483.036 257.512C480.436 257.14 480.436 257.14 477.391 257.098C476.238 257.06 475.085 257.021 473.897 256.981C472.685 256.95 471.473 256.919 470.223 256.887C469.054 256.849 467.884 256.81 466.678 256.77C456.219 256.447 445.735 256.202 435.286 256.887ZM495.036 258.512C491.926 261.622 492.973 270.441 492.973 274.637C492.994 275.916 493.015 277.195 493.036 278.512C494.026 278.512 495.016 278.512 496.036 278.512C496.902 274.757 497.199 271.239 497.223 267.387C497.245 265.836 497.245 265.836 497.266 264.254C497.24 261.295 497.24 261.295 495.036 258.512ZM458.036 292.512C456.551 294.492 456.551 294.492 455.036 296.512C457.016 297.502 457.016 297.502 459.036 298.512C459.696 296.862 460.356 295.212 461.036 293.512C460.046 293.182 459.056 292.852 458.036 292.512ZM474.036 292.512C473.046 293.997 473.046 293.997 472.036 295.512C472.366 296.172 472.696 296.832 473.036 297.512C475.021 297.245 475.021 297.245 477.036 296.512C477.366 295.522 477.696 294.532 478.036 293.512C476.716 293.182 475.396 292.852 474.036 292.512ZM490.036 292.512C489.706 293.502 489.376 294.492 489.036 295.512C489.696 295.512 490.356 295.512 491.036 295.512C490.706 294.522 490.376 293.532 490.036 292.512ZM425.036 293.512C424.046 294.997 424.046 294.997 423.036 296.512C424.026 297.997 424.026 297.997 425.036 299.512C426.356 298.852 427.676 298.192 429.036 297.512C428.376 296.192 427.716 294.872 427.036 293.512C426.376 293.512 425.716 293.512 425.036 293.512ZM439.036 294.512C439.366 295.832 439.696 297.152 440.036 298.512C441.356 298.512 442.676 298.512 444.036 298.512C444.366 297.522 444.696 296.532 445.036 295.512C444.706 294.852 444.376 294.192 444.036 293.512C441.11 293.289 441.11 293.289 439.036 294.512ZM446.036 304.512C446.366 305.502 446.696 306.492 447.036 307.512C449.051 308.245 449.051 308.245 451.036 308.512C452.026 307.192 453.016 305.872 454.036 304.512C453.376 303.522 452.716 302.532 452.036 301.512C449.274 301.512 448.143 302.826 446.036 304.512ZM466.036 301.512C465.376 302.172 464.716 302.832 464.036 303.512C464.354 305.62 464.354 305.62 465.036 307.512C466.026 307.512 467.016 307.512 468.036 307.512C468.696 306.192 469.356 304.872 470.036 303.512C468.716 302.852 467.396 302.192 466.036 301.512ZM482.036 301.512C481.046 302.997 481.046 302.997 480.036 304.512C481.026 305.502 482.016 306.492 483.036 307.512C483.696 305.862 484.356 304.212 485.036 302.512C484.046 302.182 483.056 301.852 482.036 301.512ZM432.036 302.512C431.706 304.162 431.376 305.812 431.036 307.512C432.521 308.502 432.521 308.502 434.036 309.512C435.026 307.862 436.016 306.212 437.036 304.512C436.376 303.852 435.716 303.192 435.036 302.512C434.046 302.512 433.056 302.512 432.036 302.512ZM458.036 310.512C457.046 311.502 456.056 312.492 455.036 313.512C455.696 314.832 456.356 316.152 457.036 317.512C458.026 317.182 459.016 316.852 460.036 316.512C460.366 315.522 460.696 314.532 461.036 313.512C460.046 312.522 459.056 311.532 458.036 310.512ZM424.036 311.512C423.706 313.162 423.376 314.812 423.036 316.512C424.521 317.502 424.521 317.502 426.036 318.512C426.696 316.862 427.356 315.212 428.036 313.512C426.716 312.852 425.396 312.192 424.036 311.512ZM441.036 311.512C439.331 313.452 439.331 313.452 438.036 315.512C439.356 316.502 440.676 317.492 442.036 318.512C443.681 317.284 443.681 317.284 445.036 315.512C444.808 313.349 444.808 313.349 444.036 311.512C443.046 311.512 442.056 311.512 441.036 311.512ZM473.036 311.512C472.706 312.832 472.376 314.152 472.036 315.512C473.521 316.502 473.521 316.502 475.036 317.512C475.696 316.852 476.356 316.192 477.036 315.512C476.717 313.404 476.717 313.404 476.036 311.512C475.046 311.512 474.056 311.512 473.036 311.512ZM489.036 312.512C489.036 313.502 489.036 314.492 489.036 315.512C489.696 315.512 490.356 315.512 491.036 315.512C491.366 314.522 491.696 313.532 492.036 312.512C491.046 312.512 490.056 312.512 489.036 312.512ZM432.036 320.512C430.319 322.957 430.319 322.957 429.036 325.512C431.511 326.997 431.511 326.997 434.036 328.512C436.37 325.731 436.37 325.731 435.661 322.825C435.455 322.062 435.248 321.298 435.036 320.512C434.046 320.512 433.056 320.512 432.036 320.512ZM449.036 320.512C448.046 321.502 447.056 322.492 446.036 323.512C446.696 324.832 447.356 326.152 448.036 327.512C449.356 326.852 450.676 326.192 452.036 325.512C452.036 324.522 452.036 323.532 452.036 322.512C451.046 321.852 450.056 321.192 449.036 320.512ZM466.036 320.512C465.376 321.172 464.716 321.832 464.036 322.512C464.036 323.832 464.036 325.152 464.036 326.512C465.026 326.842 466.016 327.172 467.036 327.512C467.696 325.862 468.356 324.212 469.036 322.512C468.046 321.852 467.056 321.192 466.036 320.512ZM481.036 321.512C481.036 322.832 481.036 324.152 481.036 325.512C482.026 325.182 483.016 324.852 484.036 324.512C483.706 323.522 483.376 322.532 483.036 321.512C482.376 321.512 481.716 321.512 481.036 321.512ZM441.036 329.512C439.432 330.697 439.432 330.697 438.036 332.512C437.785 335.138 437.785 335.138 438.036 337.512C439.986 337.318 439.986 337.318 442.036 336.512C443.32 334.528 443.32 334.528 444.036 332.512C443.046 331.522 442.056 330.532 441.036 329.512ZM421.036 332.512C421.036 333.832 421.036 335.152 421.036 336.512C423.016 337.502 423.016 337.502 425.036 338.512C426.026 337.192 427.016 335.872 428.036 334.512C427.376 333.192 426.716 331.872 426.036 330.512C423.712 330.327 423.712 330.327 421.036 332.512ZM456.036 330.512C455.706 332.162 455.376 333.812 455.036 335.512C456.521 336.502 456.521 336.502 458.036 337.512C459.026 335.862 460.016 334.212 461.036 332.512C460.376 331.852 459.716 331.192 459.036 330.512C458.046 330.512 457.056 330.512 456.036 330.512ZM473.036 330.512C472.706 332.162 472.376 333.812 472.036 335.512C473.026 335.512 474.016 335.512 475.036 335.512C475.366 334.192 475.696 332.872 476.036 331.512C475.046 331.182 474.056 330.852 473.036 330.512ZM489.036 330.512C488.706 331.502 488.376 332.492 488.036 333.512C489.026 334.007 489.026 334.007 490.036 334.512C489.706 333.192 489.376 331.872 489.036 330.512ZM430.411 341.012C429.957 341.507 429.503 342.002 429.036 342.512C429.696 343.832 430.356 345.152 431.036 346.512C434.158 345.203 434.158 345.203 436.036 342.512C435.376 341.522 434.716 340.532 434.036 339.512C431.912 339.286 431.912 339.286 430.411 341.012ZM448.036 339.512C447.376 340.172 446.716 340.832 446.036 341.512C446.036 342.832 446.036 344.152 446.036 345.512C447.928 346.194 447.928 346.194 450.036 346.512C450.696 345.852 451.356 345.192 452.036 344.512C451.716 341.909 451.716 341.909 451.036 339.512C450.046 339.512 449.056 339.512 448.036 339.512ZM465.036 339.512C464.376 340.172 463.716 340.832 463.036 341.512C463.354 343.62 463.354 343.62 464.036 345.512C465.026 345.512 466.016 345.512 467.036 345.512C467.696 344.522 468.356 343.532 469.036 342.512C468.376 341.522 467.716 340.532 467.036 339.512C466.376 339.512 465.716 339.512 465.036 339.512ZM481.036 340.512C480.046 341.997 480.046 341.997 479.036 343.512C480.521 344.502 480.521 344.502 482.036 345.512C482.366 344.192 482.696 342.872 483.036 341.512C482.376 341.182 481.716 340.852 481.036 340.512ZM439.036 348.512C438.376 350.162 437.716 351.812 437.036 353.512C437.696 354.172 438.356 354.832 439.036 355.512C441.144 355.194 441.144 355.194 443.036 354.512C442.706 352.532 442.376 350.552 442.036 348.512C441.046 348.512 440.056 348.512 439.036 348.512ZM423.036 349.512C422.354 351.404 422.354 351.404 422.036 353.512C422.696 354.172 423.356 354.832 424.036 355.512C425.026 354.852 426.016 354.192 427.036 353.512C426.376 352.192 425.716 350.872 425.036 349.512C424.376 349.512 423.716 349.512 423.036 349.512ZM456.036 349.512C455.376 351.162 454.716 352.812 454.036 354.512C455.356 354.842 456.676 355.172 458.036 355.512C458.696 354.192 459.356 352.872 460.036 351.512C458.716 350.852 457.396 350.192 456.036 349.512ZM473.036 349.512C472.046 350.172 471.056 350.832 470.036 351.512C469.786 354.096 469.786 354.096 470.036 356.512C472.036 355.721 472.036 355.721 474.036 354.512C474.366 353.522 474.696 352.532 475.036 351.512C474.376 350.852 473.716 350.192 473.036 349.512ZM488.036 350.512C487.376 351.832 486.716 353.152 486.036 354.512C487.026 355.502 488.016 356.492 489.036 357.512C489.366 355.532 489.696 353.552 490.036 351.512C489.376 351.182 488.716 350.852 488.036 350.512ZM421.036 367.512C420.88 368.852 420.786 370.2 420.72 371.547C420.678 372.356 420.636 373.165 420.593 373.999C420.553 374.849 420.514 375.699 420.473 376.575C420.43 377.429 420.387 378.283 420.343 379.163C420.236 381.279 420.136 383.396 420.036 385.512C426.726 386.378 433.236 386.646 439.977 386.61C441.49 386.608 441.49 386.608 443.033 386.606C446.221 386.6 449.41 386.588 452.598 386.575C454.774 386.57 456.949 386.565 459.124 386.561C464.428 386.55 469.732 386.533 475.036 386.512C476.215 382.974 476.425 379.578 476.661 375.887C476.712 375.194 476.764 374.5 476.817 373.786C476.934 372.03 476.99 370.271 477.036 368.512C473.831 365.307 465.323 366.387 461.103 366.373C460.114 366.375 459.125 366.377 458.106 366.379C456.56 366.378 456.56 366.378 454.982 366.377C452.816 366.376 450.649 366.378 448.482 366.382C445.151 366.387 441.82 366.382 438.489 366.376C436.382 366.376 434.276 366.377 432.169 366.379C431.168 366.377 430.167 366.375 429.136 366.373C427.758 366.378 427.758 366.378 426.353 366.383C425.541 366.384 424.73 366.384 423.893 366.385C422.02 366.309 422.02 366.309 421.036 367.512ZM487.036 369.512C485.714 372.157 485.939 374.19 485.973 377.137C485.982 378.14 485.991 379.143 486.001 380.176C486.012 380.947 486.024 381.718 486.036 382.512C488.245 379.199 488.261 378.168 488.161 374.325C488.143 373.424 488.125 372.523 488.106 371.594C488.083 370.907 488.06 370.22 488.036 369.512C487.706 369.512 487.376 369.512 487.036 369.512ZM427.036 405.512C426.768 407.54 426.565 409.576 426.388 411.614C426.331 412.262 426.274 412.909 426.215 413.577C426.025 415.763 425.843 417.95 425.661 420.137C425.596 420.893 425.532 421.649 425.465 422.428C424.604 432.511 423.884 442.598 423.278 452.7C423.216 453.731 423.153 454.763 423.089 455.826C422.783 460.909 422.489 465.992 422.214 471.077C421.638 481.205 420.624 491.004 418.704 500.965C417.47 507.518 416.719 513.905 418.036 520.512C420.53 523.78 423.245 525.072 427.036 526.512C427.802 526.855 428.567 527.198 429.356 527.551C435.652 530.074 440.604 529.656 447.036 527.512C448.54 525.302 448.54 525.302 449.786 522.637C450.235 521.753 450.683 520.869 451.145 519.958C452.353 517.428 452.353 517.428 451.036 514.512C450.438 515.317 449.84 516.121 449.223 516.95C446.853 519.727 445.562 520.335 441.985 520.75C437.985 520.882 435.344 520.641 431.598 519.075C428.078 515.554 427.293 512.422 427.036 507.512C427.63 503.423 428.097 501.368 431.161 498.575C435.567 496.946 439.585 496.545 443.966 498.274C447.539 500.214 450.236 502.614 453.036 505.512C455.013 484.451 456.966 463.388 458.59 442.296C458.719 440.633 458.849 438.97 458.982 437.306C459.825 426.685 460.2 416.167 460.036 405.512C458.38 405.13 456.711 404.798 455.036 404.512C452.989 406.56 453.5 410.661 453.282 413.485C453.217 414.283 453.152 415.08 453.085 415.902C452.877 418.459 452.675 421.017 452.473 423.575C452.334 425.305 452.194 427.034 452.053 428.764C451.71 433.013 451.371 437.263 451.036 441.512C449.386 442.172 447.736 442.832 446.036 443.512C446.066 442.899 446.097 442.286 446.128 441.655C446.73 429.264 447.198 416.919 447.036 404.512C443.89 404.483 440.744 404.465 437.598 404.45C436.701 404.441 435.803 404.433 434.878 404.424C434.024 404.421 433.17 404.418 432.29 404.415C431.499 404.409 430.708 404.404 429.894 404.399C428.02 404.307 428.02 404.307 427.036 405.512ZM423.036 541.512C427.493 546.666 432.024 548.996 438.798 549.868C446.956 550.262 455.647 548.491 461.876 542.844C462.45 542.185 462.45 542.185 463.036 541.512C455.262 542.081 455.262 542.081 447.536 543.075C439.07 544.133 431.266 543.707 423.036 541.512ZM173.036 544.512C172.706 545.502 172.376 546.492 172.036 547.512C185.112 552.669 198.215 557.708 211.536 562.2C212.561 562.55 213.587 562.901 214.643 563.262C215.588 563.575 216.532 563.889 217.505 564.211C218.749 564.627 218.749 564.627 220.018 565.05C222.091 565.75 222.091 565.75 224.036 564.512C215.418 559.819 206.329 556.305 197.211 552.726C194.577 551.691 191.948 550.646 189.319 549.6C187.643 548.939 185.967 548.278 184.29 547.618C183.505 547.305 182.721 546.993 181.913 546.671C177.603 544.988 177.603 544.988 173.036 544.512ZM335.5 547.073C333.818 547.627 333.818 547.627 332.102 548.192C330.881 548.606 329.661 549.02 328.403 549.446C327.111 549.875 325.819 550.304 324.526 550.731C321.762 551.647 319 552.57 316.239 553.497C311.885 554.96 307.527 556.408 303.168 557.854C302.44 558.095 301.713 558.336 300.963 558.585C299.49 559.073 298.016 559.562 296.542 560.05C294.317 560.788 292.092 561.528 289.868 562.267C277.727 566.301 265.552 570.225 253.359 574.098C238.414 578.847 223.477 583.621 208.589 588.543C207.036 589.056 205.484 589.567 203.93 590.076C201.832 590.763 199.736 591.459 197.641 592.157C196.478 592.542 195.314 592.927 194.115 593.324C191.175 594.459 188.675 595.802 186.036 597.512C186.366 598.172 186.696 598.832 187.036 599.512C192.997 599.036 198.374 598.029 204.036 596.125C204.8 595.876 205.565 595.627 206.352 595.37C208.917 594.531 211.476 593.678 214.036 592.825C215.89 592.213 217.744 591.602 219.598 590.991C226.083 588.849 232.56 586.681 239.036 584.512C240.317 584.084 241.598 583.655 242.878 583.227C283.606 569.646 283.606 569.646 324.098 555.387C324.742 555.155 325.386 554.923 326.049 554.684C332.601 552.312 338.88 549.782 345.036 546.512C341.373 545.189 339.139 545.855 335.5 547.073ZM166.036 555.512C166.698 558.659 166.698 558.659 169.223 559.645C175.239 561.767 180.665 563.094 187.036 563.512C183.856 561.393 180.59 559.893 177.098 558.387C176.167 557.971 176.167 557.971 175.218 557.547C171.855 556.093 169.77 555.512 166.036 555.512ZM348.149 557.7C347.211 558.151 346.274 558.602 345.307 559.067C344.331 559.544 343.355 560.021 342.348 560.512C341.36 560.989 340.372 561.466 339.354 561.958C336.912 563.137 334.473 564.322 332.036 565.512C335.392 566.667 337.078 566.399 340.294 564.965C341.084 564.615 341.874 564.264 342.688 563.903C343.504 563.526 344.32 563.15 345.161 562.762C345.985 562.401 346.808 562.04 347.657 561.668C352.578 559.538 352.578 559.538 356.036 555.512C352.675 555.512 351.148 556.246 348.149 557.7ZM414.036 556.512C413.707 558.365 413.707 558.365 413.372 560.254C407.92 589.861 396.753 614.138 375.036 635.512C375.366 636.172 375.696 636.832 376.036 637.512C396.566 627.156 409.143 606.544 416.197 585.32C420.528 573.257 420.528 573.257 419.911 560.95C418 558.466 416.815 557.763 414.036 556.512ZM349.036 569.512C346.897 570.268 344.795 571.131 342.716 572.04C342.097 572.307 341.478 572.575 340.841 572.851C338.861 573.71 336.886 574.58 334.911 575.45C333.571 576.033 332.232 576.616 330.891 577.198C327.603 578.628 324.318 580.067 321.036 581.512C325.11 582.87 327.712 581.442 331.536 579.95C332.246 579.679 332.955 579.408 333.686 579.129C339.753 576.752 345.441 573.855 351.036 570.512C350.376 570.182 349.716 569.852 349.036 569.512ZM260.622 589.875C259.779 590.186 258.936 590.496 258.067 590.815C257.191 591.148 256.314 591.481 255.411 591.825C254.527 592.146 253.642 592.468 252.731 592.799C248.072 594.172 248.072 594.172 245.036 597.512C250.091 596.781 254.635 594.828 259.348 592.95C260.184 592.62 261.02 592.291 261.882 591.952C263.935 591.142 265.986 590.329 268.036 589.512C264.594 588.365 263.908 588.662 260.622 589.875ZM209.973 602.825C209.241 603.051 208.508 603.277 207.753 603.51C203.509 604.835 203.509 604.835 200.036 607.512C207.383 606.301 214.108 604.225 221.036 601.512C216.908 600.136 213.949 601.527 209.973 602.825ZM153.598 609.075C150.486 613.93 150.492 617.82 151.036 623.512C152.519 630.134 154.671 635.388 160.239 639.481C162.968 641.047 164.881 641.649 168.036 641.512C170.783 639.742 172.567 638.449 174.036 635.512C174.321 631.218 173.87 627.727 171.407 624.141C169.68 622.184 167.92 620.317 166.036 618.512C162.824 620.183 162.824 620.183 162.305 623.114C162.155 624.112 162.004 625.109 161.848 626.137C161.69 627.14 161.531 628.143 161.368 629.176C161.258 629.947 161.149 630.718 161.036 631.512C160.046 631.182 159.056 630.852 158.036 630.512C156.194 626.828 156.674 622.542 157.036 618.512C158.649 614.826 159.666 613.759 163.036 611.512C166.818 611.652 169.41 612.163 172.723 614.012C177.215 618.867 179.257 624.156 179.473 630.762C179.305 634.791 178.525 637.257 176.036 640.512C175.355 641.838 174.683 643.169 174.036 644.512C177.409 644.652 177.409 644.652 181.036 643.512C184.677 639.399 185.701 634.227 185.415 628.864C183.849 619.148 178.311 611.685 171.411 604.95C165.458 601.347 158.079 604.365 153.598 609.075ZM308.036 605.512C307.046 606.997 307.046 606.997 306.036 608.512C309.006 609.502 311.976 610.492 315.036 611.512C316.026 610.192 317.016 608.872 318.036 607.512C314.648 605.428 311.983 605.083 308.036 605.512ZM330.161 613.387C326.057 618.454 324.613 623.08 324.774 629.551C325.319 633.633 327.175 636.651 330.036 639.512C332.144 639.194 332.144 639.194 334.036 638.512C333.077 637.739 333.077 637.739 332.098 636.95C329.321 633.668 329.105 631.811 329.036 627.512C329.999 621.114 331.872 616.493 337.138 612.571C341.142 610.338 344.542 610.123 348.911 611.262C351.036 612.512 351.036 612.512 352.036 615.512C352.105 617.74 352.121 619.971 352.098 622.2C352.089 623.379 352.08 624.559 352.071 625.774C352.06 626.678 352.048 627.581 352.036 628.512C354.938 625.61 355.19 623.075 355.223 619.137C355.165 613.98 353.895 610.801 351.036 606.512C342.459 603.54 335.961 607.144 330.161 613.387ZM230.919 614.032C230.225 614.291 229.53 614.55 228.815 614.817C227.347 615.367 225.879 615.92 224.412 616.474C222.179 617.318 219.942 618.151 217.704 618.983C216.275 619.519 214.847 620.056 213.419 620.594C212.422 620.965 212.422 620.965 211.404 621.343C207.712 622.748 204.269 624.224 201.036 626.512C201.036 627.172 201.036 627.832 201.036 628.512C205.91 627.887 210.256 626.461 214.805 624.676C215.527 624.396 216.249 624.116 216.992 623.828C218.507 623.237 220.02 622.644 221.533 622.047C223.854 621.135 226.182 620.241 228.511 619.348C229.984 618.771 231.458 618.193 232.93 617.614C233.628 617.348 234.326 617.082 235.045 616.809C236.745 616.128 238.397 615.329 240.036 614.512C240.366 613.522 240.696 612.532 241.036 611.512C237.305 611.512 234.356 612.731 230.919 614.032ZM296.036 614.512C295.376 615.172 294.716 615.832 294.036 616.512C300.843 621.393 300.843 621.393 308.911 622.137C309.963 621.828 309.963 621.828 311.036 621.512C311.036 620.852 311.036 620.192 311.036 619.512C309.476 618.861 307.913 618.216 306.348 617.575C305.478 617.215 304.608 616.855 303.712 616.485C301.117 615.542 298.782 614.807 296.036 614.512ZM336.661 622.137C334.665 625.055 334.11 626.979 334.036 630.512C335.347 632.875 335.347 632.875 337.036 634.512C340.411 633.965 342.118 633.457 345.036 631.512C345.619 628.857 345.619 628.857 345.723 625.887C345.789 624.884 345.855 623.881 345.923 622.848C345.96 622.077 345.997 621.306 346.036 620.512C341.052 620.08 341.052 620.08 336.661 622.137ZM251.993 629.153C251.018 629.577 251.018 629.577 250.022 630.01C248.655 630.608 247.291 631.214 245.931 631.826C243.851 632.761 241.762 633.671 239.671 634.579C232.164 637.518 232.164 637.518 226.036 642.512C242.425 650.707 274.397 645.189 292.036 642.512C292.036 641.852 292.036 641.192 292.036 640.512C288.305 638.669 284.57 636.836 280.83 635.013C279.56 634.392 278.291 633.768 277.024 633.142C275.196 632.238 273.363 631.345 271.528 630.454C270.428 629.914 269.329 629.375 268.196 628.819C261.773 626.163 258.372 626.346 251.993 629.153Z" fill="#412515"/>
<path d="M371.036 44.5122C372.326 44.7301 373.617 44.9479 374.946 45.1724C391.617 48.2262 391.617 48.2262 397.036 51.5122C398.329 54.145 398.329 54.145 399.036 56.5122C389.626 57.8448 389.626 57.8448 385.036 56.5122C385.036 55.8522 385.036 55.1922 385.036 54.5122C387.676 54.1822 390.316 53.8522 393.036 53.5122C375.045 46.035 355.307 46.068 336.161 46.7622C334.229 46.8172 332.296 46.8706 330.364 46.9224C309.966 47.2834 309.966 47.2834 289.786 49.8872C288.344 50.1618 286.901 50.4338 285.458 50.7036C284.729 50.8404 284 50.9772 283.249 51.1182C279.525 51.7813 275.78 52.2925 272.036 52.8247C252.598 55.6552 233.017 58.956 213.985 63.8482C211.036 64.5122 211.036 64.5122 207.036 64.5122C207.036 63.8522 207.036 63.1922 207.036 62.5122C212.914 60.0866 218.374 58.793 224.661 57.9497C226.3 57.7243 227.938 57.4939 229.575 57.2583C230.289 57.1622 231.002 57.0661 231.738 56.9671C234.6 56.4006 237.269 55.435 240.036 54.5122C241.946 54.0808 243.865 53.6871 245.79 53.3286C246.881 53.1247 247.973 52.9208 249.097 52.7107C250.253 52.5008 251.408 52.291 252.598 52.0747C253.797 51.8552 254.996 51.6356 256.231 51.4094C266.033 49.6403 275.852 48.113 285.727 46.8164C287.916 46.528 290.103 46.2266 292.29 45.9224C299.913 44.8874 307.509 44.2066 315.191 43.8535C318.244 43.7086 321.205 43.4849 324.223 42.9966C339.484 41.0578 355.912 41.8453 371.036 44.5122Z" fill="#2D190F"/>
<path d="M167.036 1.51223C166.706 2.50223 166.376 3.49223 166.036 4.51223C165.391 4.52254 164.747 4.53284 164.083 4.54346C157.267 4.65311 150.451 4.76755 143.636 4.88454C141.105 4.92739 138.574 4.9691 136.043 5.00954C121.022 5.25048 106.034 5.62518 91.0359 6.51223C88.9402 11.3607 88.1742 15.4963 89.6609 20.6997C91.6565 23.3302 94.2739 24.7492 97.0359 26.5122C98.2298 28.9 98.1752 30.4007 98.1971 33.0662C98.2067 34.0109 98.2163 34.9556 98.2262 35.9289C98.2304 36.9529 98.2347 37.9768 98.2391 39.0318C98.2448 40.0825 98.2505 41.1332 98.2563 42.2158C98.2658 44.4426 98.2723 46.6694 98.2762 48.8963C98.2859 52.3004 98.3169 55.7039 98.3484 59.1079C98.355 61.27 98.3602 63.4321 98.3641 65.5943C98.3764 66.6121 98.3888 67.63 98.4015 68.6787C98.3735 77.5769 98.3735 77.5769 95.0359 81.5122C92.7313 83.0591 92.7313 83.0591 90.1609 84.2622C89.3179 84.6696 88.4749 85.0769 87.6063 85.4966C85.0804 86.4947 82.7104 87.0713 80.0359 87.5122C83.2006 83.7972 86.8377 81.8563 91.1102 79.6607C93.1889 78.6556 93.1889 78.6556 94.0359 76.5122C94.1583 75.1201 94.2231 73.7226 94.2571 72.3255C94.2803 71.4608 94.3035 70.5962 94.3274 69.7054C94.3472 68.769 94.3671 67.8325 94.3875 66.8677C94.4107 65.9058 94.4338 64.9438 94.4577 63.9527C94.5053 61.9143 94.5506 59.8757 94.5936 57.8372C94.6605 54.7228 94.7383 51.6088 94.8172 48.4947C94.8621 46.5148 94.9064 44.535 94.95 42.5552C94.9739 41.6248 94.9978 40.6945 95.0224 39.7359C95.2396 33.5401 95.2396 33.5401 94.0359 27.5122C93.2728 27.2441 92.5097 26.976 91.7234 26.6997C88.1525 25.1219 87.3216 23.2871 85.7625 19.8013C84.1648 14.7676 84.2118 10.3103 86.4109 5.51223C88.0359 3.51223 88.0359 3.51223 90.0359 2.51223C92.3272 2.35482 94.623 2.26131 96.9188 2.19582C97.6295 2.175 98.3402 2.15417 99.0725 2.13271C101.435 2.06599 103.798 2.00737 106.161 1.94973C106.968 1.92855 107.774 1.90737 108.605 1.88555C128.081 1.37964 147.556 1.41201 167.036 1.51223Z" fill="#2D180E"/>
<path d="M122.019 23.3828C122.984 23.3797 123.949 23.3765 124.944 23.3733C125.977 23.3753 127.01 23.3773 128.075 23.3794C129.152 23.3785 130.228 23.3775 131.338 23.3765C133.615 23.3758 135.893 23.3777 138.171 23.3819C141.627 23.3872 145.084 23.3819 148.54 23.3755C150.76 23.3762 152.98 23.3775 155.2 23.3794C156.221 23.3774 157.242 23.3754 158.295 23.3733C172.709 23.4195 172.709 23.4195 178.036 24.5122C180.264 26.9952 181.036 28.1998 181.036 31.5122C177.314 33.2154 174.349 33.78 170.268 33.847C168.566 33.8816 168.566 33.8816 166.83 33.9169C165.008 33.939 165.008 33.939 163.149 33.9615C161.896 33.9832 160.643 34.0049 159.351 34.0273C156.706 34.0712 154.061 34.1114 151.416 34.1453C148.022 34.189 144.63 34.2457 141.237 34.3068C137.999 34.3641 134.762 34.4126 131.524 34.4615C130.303 34.4822 129.083 34.503 127.825 34.5244C126.7 34.538 125.575 34.5517 124.416 34.5657C123.423 34.5797 122.43 34.5936 121.407 34.608C119.036 34.5122 119.036 34.5122 117.036 33.5122C117.036 32.8522 117.036 32.1922 117.036 31.5122C117.76 31.4894 118.485 31.4666 119.231 31.443C126.045 31.2274 132.858 31.0072 139.671 30.7817C143.174 30.666 146.677 30.5521 150.18 30.4422C154.204 30.3159 158.227 30.1819 162.251 30.0474C163.514 30.0088 164.778 29.9702 166.08 29.9305C167.241 29.8905 168.402 29.8505 169.598 29.8094C170.626 29.776 171.654 29.7427 172.714 29.7084C174.996 29.767 174.996 29.767 176.036 28.5122C154.916 27.8522 133.796 27.1922 112.036 26.5122C112.036 25.8522 112.036 25.1922 112.036 24.5122C115.422 23.7511 118.55 23.3861 122.019 23.3828Z" fill="#2C180E"/>
<path d="M448.036 405.512C448.696 405.842 449.356 406.172 450.036 406.512C450.661 409.075 450.661 409.075 451.036 411.512C451.696 409.532 452.356 407.552 453.036 405.512C453.366 405.512 453.696 405.512 454.036 405.512C453.061 436.441 453.061 436.441 451.036 441.512C448.458 442.836 448.458 442.836 446.036 443.512C445.802 415.682 445.802 415.682 447.036 406.512C447.366 406.182 447.696 405.852 448.036 405.512Z" fill="#362116"/>
<path d="M461.036 211.512C462.356 211.842 463.676 212.172 465.036 212.512C466.293 222.499 466.13 232.469 466.036 242.512C465.139 241.986 465.139 241.986 464.223 241.45C461.928 240.179 461.928 240.179 459.036 241.512C458.978 237.262 458.942 233.012 458.911 228.762C458.894 227.556 458.877 226.349 458.86 225.106C458.854 223.946 458.847 222.786 458.841 221.59C458.83 220.522 458.82 219.454 458.809 218.353C459.034 215.532 459.577 213.904 461.036 211.512Z" fill="#2C180E"/>
<path d="M336.036 53.5122C342.123 53.4876 348.21 53.4694 354.298 53.4573C356.37 53.4523 358.442 53.4454 360.513 53.4368C363.487 53.4247 366.461 53.419 369.434 53.4146C370.365 53.4094 371.295 53.4042 372.253 53.3989C373.114 53.3989 373.975 53.3988 374.862 53.3987C375.621 53.3965 376.381 53.3943 377.163 53.392C379.036 53.5122 379.036 53.5122 381.036 54.5122C380.706 55.5022 380.376 56.4922 380.036 57.5122C376.765 57.5412 373.494 57.559 370.223 57.5747C369.295 57.5831 368.366 57.5915 367.409 57.6001C366.516 57.6033 365.624 57.6066 364.704 57.6099C363.471 57.6177 363.471 57.6177 362.212 57.6257C360.036 57.5122 360.036 57.5122 357.036 56.5122C355.336 56.4304 353.633 56.4047 351.93 56.4146C350.456 56.4194 350.456 56.4194 348.952 56.4243C347.416 56.4369 347.416 56.4369 345.848 56.4497C344.813 56.4542 343.777 56.4587 342.71 56.4634C340.152 56.4752 337.594 56.4916 335.036 56.5122C335.366 55.5222 335.696 54.5322 336.036 53.5122Z" fill="#2F1A0F"/>
<path d="M430.036 254.512C437.083 254.462 444.131 254.427 451.179 254.402C453.576 254.392 455.974 254.379 458.372 254.361C461.817 254.337 465.262 254.326 468.708 254.317C469.781 254.307 470.854 254.296 471.959 254.286C472.96 254.285 473.961 254.285 474.992 254.285C475.871 254.281 476.751 254.276 477.657 254.272C480.036 254.512 480.036 254.512 484.036 256.512C456.811 257.007 456.811 257.007 429.036 257.512C429.366 256.522 429.696 255.532 430.036 254.512Z" fill="#2F1A0F"/>
<path d="M25.0359 136.512C26.2205 139.367 26.0322 140.523 25.0196 143.505C24.4952 144.644 23.9708 145.784 23.4305 146.958C23.15 147.569 22.8695 148.18 22.5806 148.809C21.9852 150.098 21.3838 151.384 20.7769 152.667C19.852 154.63 18.9538 156.603 18.0574 158.579C17.475 159.831 16.8911 161.082 16.3055 162.333C15.7754 163.47 15.2454 164.607 14.6993 165.778C12.9965 168.577 12.0834 169.471 9.03595 170.512C10.4342 163.637 12.7903 157.509 15.9109 151.262C16.2384 150.602 16.5658 149.941 16.9031 149.26C19.2435 144.694 21.9746 140.63 25.0359 136.512Z" fill="#2C180E"/>
<path d="M435.036 386.512C447.576 386.512 460.116 386.512 473.036 386.512C472.706 387.502 472.376 388.492 472.036 389.512C467.088 389.586 462.141 389.641 457.192 389.677C455.508 389.692 453.824 389.713 452.14 389.739C449.723 389.775 447.305 389.792 444.888 389.805C444.132 389.821 443.377 389.836 442.599 389.852C440.476 389.853 440.476 389.853 437.036 389.512C436.376 388.522 435.716 387.532 435.036 386.512Z" fill="#2E190E"/>
<path d="M447.036 640.512C447.036 644.602 445.406 645.802 442.786 648.887C441.997 649.823 441.208 650.759 440.395 651.723C439.617 652.644 438.838 653.564 438.036 654.512C437.348 655.389 436.659 656.265 435.95 657.168C429.41 665.177 420.164 671.199 412.036 677.512C411.376 677.182 410.716 676.852 410.036 676.512C412.011 674.653 413.99 672.799 415.973 670.95C416.57 670.394 417.166 669.838 417.78 669.266C420.937 666.351 424.097 663.638 427.598 661.137C433.553 656.696 438.065 650.747 442.737 645.027C444.098 643.44 445.54 641.973 447.036 640.512Z" fill="#362217"/>
<path d="M449.036 419.512C449.366 419.512 449.696 419.512 450.036 419.512C450.036 425.452 450.036 431.392 450.036 437.512C449.376 437.182 448.716 436.852 448.036 436.512C448.036 435.852 448.036 435.192 448.036 434.512C447.376 434.512 446.716 434.512 446.036 434.512C446.036 429.892 446.036 425.272 446.036 420.512C446.696 421.172 447.356 421.832 448.036 422.512C448.366 421.522 448.696 420.532 449.036 419.512Z" fill="#422615"/>
<path d="M448.036 405.512C448.696 405.842 449.356 406.172 450.036 406.512C449.706 413.442 449.376 420.372 449.036 427.512C448.706 427.512 448.376 427.512 448.036 427.512C446.941 423.099 446.887 418.781 446.911 414.262C446.907 413.53 446.903 412.798 446.899 412.043C446.909 406.639 446.909 406.639 448.036 405.512Z" fill="#2D180E"/>
<path d="M78.0359 87.5122C78.0359 88.5022 78.0359 89.4922 78.0359 90.5122C73.7857 94.668 68.577 98.3498 63.0359 100.512C62.3759 100.182 61.7159 99.8522 61.0359 99.5122C66.4977 95.1251 72.0028 91.0795 78.0359 87.5122Z" fill="#2D180F"/>
<path d="M58.0359 100.512C58.6959 100.842 59.3559 101.172 60.0359 101.512C58.1293 103.668 56.2116 105.811 54.2859 107.95C53.4777 108.867 53.4777 108.867 52.6531 109.803C52.1246 110.387 51.5961 110.97 51.0516 111.571C50.5698 112.11 50.088 112.65 49.5916 113.205C47.779 114.728 46.3453 115.109 44.0359 115.512C46.8756 109.134 52.5634 104.658 58.0359 100.512Z" fill="#301B11"/>
<path d="M118.036 665.512C119.995 666.324 121.953 667.137 123.911 667.95C125.001 668.402 126.092 668.855 127.216 669.321C128.842 670.008 130.457 670.723 132.036 671.512C131.706 672.502 131.376 673.492 131.036 674.512C121.164 671.728 121.164 671.728 118.036 667.512C118.036 666.852 118.036 666.192 118.036 665.512Z" fill="#362216"/>
<path d="M382.036 633.512C382.366 634.832 382.696 636.152 383.036 637.512C379.344 641.05 375.942 641.103 371.036 641.512C374.418 637.832 377.461 635.534 382.036 633.512Z" fill="#362216"/>
<path d="M453.036 517.512C453.366 517.512 453.696 517.512 454.036 517.512C454.259 520.779 454.363 522.908 452.786 525.825C450.856 527.686 449.66 528.15 447.036 528.512C447.481 523.471 449.697 521.101 453.036 517.512Z" fill="#362216"/>
<path d="M397.036 621.512C395.727 625.438 394.287 627.911 391.036 630.512C388.286 631.262 388.286 631.262 386.036 631.512C386.972 630.407 387.91 629.303 388.848 628.2C389.371 627.585 389.893 626.97 390.43 626.336C394.676 621.512 394.676 621.512 397.036 621.512Z" fill="#362116"/>
<path d="M446.036 434.512C446.696 434.512 447.356 434.512 448.036 434.512C449.026 436.822 450.016 439.132 451.036 441.512C449.386 442.172 447.736 442.832 446.036 443.512C446.036 440.542 446.036 437.572 446.036 434.512Z" fill="#2C170E"/>
<path d="M110.036 651.512C113.293 652.074 114.992 652.885 117.036 655.512C117.723 657.7 117.723 657.7 118.036 659.512C115.006 657.793 112.273 656.22 110.036 653.512C110.036 652.852 110.036 652.192 110.036 651.512Z" fill="#362216"/>
<path d="M362.036 536.512C365.706 539.789 367.729 543.227 370.036 547.512C369.046 547.512 368.056 547.512 367.036 547.512C365.649 545.868 365.649 545.868 364.348 543.7C363.911 542.992 363.474 542.284 363.024 541.555C362.036 539.512 362.036 539.512 362.036 536.512Z" fill="#362216"/>
<path d="M32.0359 126.512C32.6959 126.512 33.3559 126.512 34.0359 126.512C33.7234 128.45 33.7234 128.45 33.0359 130.512C32.0459 130.842 31.0559 131.172 30.0359 131.512C29.8709 132.172 29.7059 132.832 29.5359 133.512C29.3709 134.172 29.2059 134.832 29.0359 135.512C28.0459 135.842 27.0559 136.172 26.0359 136.512C27.4028 132.525 29.1879 129.627 32.0359 126.512Z" fill="#2E190F"/>
<path d="M90.0359 639.512C92.0771 641.128 94.0767 642.798 96.0359 644.512C96.0359 645.172 96.0359 645.832 96.0359 646.512C93.1687 645.939 92.1745 645.651 90.0359 643.512C90.0359 642.192 90.0359 640.872 90.0359 639.512Z" fill="#362217"/>
<path d="M434.036 401.512C437.666 401.512 441.296 401.512 445.036 401.512C445.366 402.502 445.696 403.492 446.036 404.512C440.096 403.522 440.096 403.522 434.036 402.512C434.036 402.182 434.036 401.852 434.036 401.512Z" fill="#2D180E"/>
<path d="M418.036 493.512C420.02 496.429 420.024 497.636 419.661 501.262C419.455 502.335 419.248 503.407 419.036 504.512C418.706 504.512 418.376 504.512 418.036 504.512C416.911 496.887 416.911 496.887 418.036 493.512Z" fill="#362216"/>
</svg>
