<svg width="205" height="271" viewBox="0 0 205 271" fill="none" xmlns="http://www.w3.org/2000/svg">
<path d="M97.2159 0C109.879 1.42975 117.404 11.7245 125.216 21C125.634 21.4952 126.052 21.9903 126.483 22.5005C138.978 37.4689 145.124 54.1638 145.427 73.7891C145.455 75.0614 145.484 76.3337 145.513 77.6445C145.564 80.2746 145.609 82.9048 145.646 85.5352C145.915 96.6888 147.108 107.311 152.716 117.125C153.304 118.179 153.892 119.234 154.497 120.32C155.933 122.559 157.238 124.251 159.216 126C160.918 124.298 160.786 122.016 161.166 119.73C162.959 108.998 165.198 99.8199 173.216 92C173.748 91.4805 174.281 90.961 174.829 90.4258C176.403 89 176.403 89 179.216 87C180.206 87.33 181.196 87.66 182.216 88C182.864 91.7573 183.285 95.2797 183.173 99.0938C183.152 99.8156 183.13 100.538 183.109 101.281C183.056 102.73 182.992 104.178 182.913 105.625C182.594 119.042 188.464 131.668 193.778 143.688C204.6 168.208 208.825 194.359 199.091 220.125C190.64 239.108 174.6 255.4 155.181 262.97C144.537 266.876 133.685 270.675 122.216 270C123.216 267 123.216 267 125.9 265.367C130.295 262.594 132.606 258.479 135.278 254.125C135.803 253.281 136.327 252.437 136.868 251.567C142.437 242.356 146.563 232.877 147.216 222C146.489 222.944 146.489 222.944 145.747 223.906C138.939 232.6 132.031 240.624 122.216 246C121.556 246 120.896 246 120.216 246C120.19 244.742 120.164 243.484 120.138 242.188C119.604 223.904 115.955 210.014 107.216 194C106.523 192.703 105.832 191.404 105.142 190.105C103.519 187.06 101.874 184.027 100.216 181C90.8874 189.695 88.0257 202.923 87.2667 215.23C87.1643 222.835 87.6954 230.417 88.2159 238C79.4126 236.672 73.0488 230.339 67.2159 224C67.7766 238.242 72.7154 250.579 81.0909 262.062C83.2159 265 83.2159 265 83.2159 267C84.2059 267.33 85.1959 267.66 86.2159 268C86.2159 268.33 86.2159 268.66 86.2159 269C79.7524 269.218 74.3063 268.608 68.0909 266.875C67.2698 266.651 66.4487 266.428 65.6027 266.197C57.8776 264.024 50.5312 261.304 43.2159 258C42.2427 257.562 41.2695 257.123 40.2667 256.672C22.3787 247.792 11.2547 231.173 4.21594 213C1.47888 204.487 0.586861 195.902 0.215938 187C0.163086 186.144 0.110235 185.288 0.0557816 184.406C-0.639065 164.83 5.2711 144.234 14.2159 127C14.8128 125.836 15.4096 124.672 16.0245 123.473C20.437 115.169 25.6638 108.778 32.2159 102C33.2095 100.846 34.1921 99.6814 35.1534 98.5C36.7691 96.5417 38.4267 94.7892 40.2159 93C40.5459 92.34 40.8759 91.68 41.2159 91C42.2059 91 43.1959 91 44.2159 91C44.3208 91.929 44.3208 91.929 44.4279 92.8767C44.7589 95.7323 45.1123 98.5847 45.4659 101.438C45.5755 102.411 45.6851 103.385 45.798 104.389C46.7855 112.159 48.8619 118.469 53.2159 125C55.7788 125.73 55.7788 125.73 58.2159 126C58.2002 125.396 58.1845 124.793 58.1683 124.171C57.5172 95.3452 67.1544 78.3 84.548 56.0117C95.7545 41.4455 101.024 26.697 98.7667 8.34766C98.2981 5.55242 97.7946 2.77438 97.2159 0Z" fill="#422514"/>
<path d="M107.216 90C110.216 91 110.216 91 111.751 93.8438C112.255 95.0503 112.759 96.2569 113.278 97.5C113.785 98.6859 114.292 99.8719 114.814 101.094C117.756 108.848 118.518 116.185 118.403 124.438C118.402 125.753 118.402 125.753 118.401 127.096C118.367 132.36 118.018 137.52 117.45 142.752C116.037 156.349 117.55 169.99 126.216 181C130.596 185.671 134.763 189.676 141.216 191C144.452 184.979 146.596 179.064 148.466 172.5C148.734 171.582 149.002 170.664 149.278 169.719C149.931 167.481 150.577 165.242 151.216 163C155.786 164.941 157.206 168.056 159.278 172.375C159.804 173.459 159.804 173.459 160.341 174.564C168.94 192.82 168.682 212.111 162.403 231C157.223 243.913 147.203 255.043 135.216 262C131.591 263.438 131.591 263.438 129.216 264C131.401 259.934 133.605 255.923 136.153 252.07C142.022 243.156 147.216 232.916 147.216 222C146.731 222.629 146.247 223.258 145.747 223.906C138.939 232.6 132.031 240.624 122.216 246C121.556 246 120.896 246 120.216 246C120.19 244.742 120.164 243.484 120.138 242.188C119.604 223.904 115.955 210.014 107.216 194C106.523 192.703 105.832 191.404 105.142 190.105C103.519 187.06 101.874 184.027 100.216 181C90.8874 189.695 88.0257 202.923 87.2667 215.23C87.1643 222.835 87.6954 230.417 88.2159 238C79.4126 236.672 73.0488 230.339 67.2159 224C67.8513 240.139 74.6656 252.672 83.2159 266C69.8932 263.871 60.7225 253.812 52.9034 243.562C40.8783 226.276 38.8682 206.059 41.5411 185.499C42.926 177.915 45.5651 170.233 50.2159 164C51.2059 163.505 51.2059 163.505 52.2159 163C52.4351 164.039 52.6542 165.078 52.88 166.148C54.9201 175.308 57.0651 184.15 64.1534 190.824C66.1423 192.257 66.1423 192.257 68.3448 191.573C68.9623 191.384 69.5797 191.195 70.2159 191C70.1811 189.768 70.1463 188.535 70.1105 187.266C69.6825 165.912 75.6563 152.076 88.6583 135.381C99.5526 121.336 105.211 107.745 107.216 90Z" fill="#D7743D"/>
<path d="M15.2159 126C15.5459 126 15.8759 126 16.2159 126C15.6639 131.174 14.3809 135.556 12.4034 140.375C7.96756 151.698 4.64053 163.793 4.21594 176C4.13859 177.891 4.13859 177.891 4.05969 179.82C3.65363 194.408 6.34048 207.39 11.2277 221.086C12.2159 224 12.2159 224 12.2159 226C11.5559 226 10.8959 226 10.2159 226C3.75727 213.229 0.813049 201.331 0.215936 187C0.136658 185.716 0.136658 185.716 0.0557796 184.406C-0.636749 164.895 5.17819 144.16 14.2159 127C14.5459 126.67 14.8759 126.34 15.2159 126Z" fill="#391F12"/>
<path d="M74.2159 70C74.5459 70 74.8759 70 75.2159 70C74.7552 75.4804 73.2658 79.2587 70.3409 83.9375C65.0719 92.7576 62.2892 100.482 61.8995 110.836C61.8576 111.899 61.8157 112.963 61.7726 114.059C61.7333 115.153 61.694 116.247 61.6534 117.375C61.6103 118.493 61.5671 119.61 61.5226 120.762C61.417 123.508 61.3149 126.254 61.2159 129C59.2159 130 59.2159 130 56.0909 129.062C54.6678 128.537 54.6678 128.537 53.2159 128C53.2159 127.34 53.2159 126.68 53.2159 126C54.8659 126 56.5159 126 58.2159 126C58.2002 125.396 58.1845 124.793 58.1683 124.171C57.6929 103.125 60.7082 86.7824 74.2159 70Z" fill="#362216"/>
<path d="M2.2159 191C4.93397 193.718 4.96109 196.535 5.5284 200.188C6.75362 207.449 8.75537 214.158 11.2276 221.086C12.2159 224 12.2159 224 12.2159 226C11.5559 226 10.8959 226 10.2159 226C4.77171 215.235 0.269461 204.304 1.2159 192C1.5459 191.67 1.8759 191.34 2.2159 191Z" fill="#2D180E"/>
</svg>
