<svg width="532" height="141" viewBox="0 0 532 141" fill="none" xmlns="http://www.w3.org/2000/svg">
<path d="M69.3054 0.140245C79.1125 -0.170178 87.9372 -0.25901 97.3054 3.14024C97.8004 7.10024 97.8004 7.10024 98.3054 11.1402C101.91 11.1698 105.514 11.1872 109.118 11.2027C110.123 11.2111 111.128 11.2195 112.163 11.2281C124.357 11.7922 124.357 11.7922 135.493 8.07774C136.091 7.43837 136.689 6.79899 137.305 6.14024C142.798 8.18039 146.763 9.71573 149.305 15.1402C150.007 15.5734 150.708 16.0065 151.43 16.4527C153.305 18.1402 153.305 18.1402 153.743 21.7027C153.526 23.4043 153.526 23.4043 153.305 25.1402C149.883 27.4219 148.578 27.4075 144.549 27.4591C143.368 27.479 142.187 27.4988 140.97 27.5193C139.057 27.5366 139.057 27.5366 137.106 27.5543C135.148 27.5834 135.148 27.5834 133.151 27.613C129.684 27.6643 126.216 27.7039 122.749 27.7411C119.21 27.7812 115.671 27.8323 112.132 27.8824C105.19 27.9792 98.2476 28.0636 91.3054 28.1402C92.4308 28.4058 93.5561 28.6713 94.7156 28.9449C95.9002 29.3394 97.0849 29.7338 98.3054 30.1402C99.7429 33.2652 99.7429 33.2652 100.305 36.1402C109.905 36.3669 109.905 36.3669 118.305 32.5152C121.305 30.1402 121.305 30.1402 124.18 29.8277C129.137 31.9093 132.843 35.0424 136.305 39.1402C137.222 41.4023 137.781 43.6023 138.364 45.9684C139.948 49.623 143.007 51.3805 146.247 53.5348C148.489 55.2834 149.339 56.4894 150.305 59.1402C150.43 62.3902 150.43 62.3902 150.305 65.1402C146.956 67.1658 144.436 67.3576 140.555 67.2652C139.571 67.2472 138.586 67.2291 137.571 67.2106C136.823 67.1874 136.076 67.1641 135.305 67.1402C135.28 68.2488 135.254 69.3574 135.227 70.4996C135.171 71.9632 135.114 73.4267 135.055 74.8902C135.041 75.6199 135.027 76.3495 135.012 77.1012C134.854 80.5773 134.587 82.7554 132.509 85.5934C130.362 87.1007 128.882 87.7721 126.305 88.1402C126.776 88.5154 127.246 88.8905 127.731 89.277C134.722 95.0229 134.722 95.0229 136.305 99.1402C135.618 101.64 135.618 101.64 134.305 104.14C132.6 107.829 132.057 110.717 132.032 114.773C132.011 115.826 131.991 116.879 131.969 117.964C131.943 120.173 131.925 122.381 131.915 124.589C131.892 125.64 131.868 126.691 131.844 127.773C131.836 128.731 131.828 129.689 131.82 130.676C131.305 133.14 131.305 133.14 129.459 134.913C124.611 137.675 119.747 137.766 114.305 137.14C111.308 135.956 108.612 134.447 106.305 132.14C103.564 132.002 100.849 131.927 98.1062 131.902C97.2784 131.894 96.4506 131.886 95.5977 131.878C93.8399 131.864 92.082 131.853 90.3242 131.845C87.6462 131.828 84.9694 131.784 82.2917 131.74C80.5841 131.73 78.8764 131.721 77.1687 131.714C75.973 131.688 75.973 131.688 74.7532 131.661C69.434 131.682 66.6041 132.752 62.3054 136.14C58.5382 137.647 54.3048 137.585 50.3054 137.14C46.4401 135.46 44.8554 134.003 43.3054 130.14C41.9645 121.186 42.1505 111.986 42.1804 102.953C42.1746 101.134 42.1746 101.134 42.1687 99.2789C42.17 98.1258 42.1713 96.9728 42.1726 95.7848C42.1737 94.7468 42.1748 93.7089 42.176 92.6395C42.3054 90.1402 42.3054 90.1402 43.3054 88.1402C43.9538 88.2095 44.6022 88.2788 45.2702 88.3502C56.1487 89.3544 67.0295 89.3612 77.9465 89.3805C81.3255 89.3903 84.7039 89.4215 88.0827 89.4527C90.2403 89.4593 92.3978 89.4645 94.5554 89.4684C95.5606 89.4807 96.5659 89.4931 97.6015 89.5058C104.456 89.5115 104.456 89.5115 110.305 86.1402C110.635 85.4802 110.965 84.8202 111.305 84.1402C110.458 84.1322 109.61 84.1241 108.737 84.1157C100.762 84.0379 92.7862 83.9506 84.8107 83.8527C80.7102 83.8027 76.6097 83.7564 72.509 83.7184C68.5537 83.6816 64.5986 83.6352 60.6435 83.5822C59.1325 83.5636 57.6213 83.5485 56.1102 83.5369C53.9981 83.5201 51.8865 83.4911 49.7746 83.4591C48.5711 83.4458 47.3675 83.4324 46.1275 83.4187C43.3054 83.1402 43.3054 83.1402 41.3054 81.1402C40.9779 78.4257 41.1746 75.8879 41.3054 73.1402C42.9431 71.5026 44.8593 71.9349 47.1179 71.859C48.6087 71.8029 48.6087 71.8029 50.1296 71.7457C51.1776 71.7109 52.2256 71.6761 53.3054 71.6402C60.3567 71.3989 67.302 71.0157 74.3054 70.1402C74.3054 68.8202 74.3054 67.5002 74.3054 66.1402C73.4071 66.1507 72.5088 66.1612 71.5832 66.172C68.2548 66.206 64.9265 66.2311 61.5979 66.2501C60.1564 66.2602 58.715 66.2738 57.2737 66.2911C55.2035 66.3153 53.1335 66.3267 51.0632 66.3356C49.1937 66.3513 49.1937 66.3513 47.2864 66.3673C44.3054 66.1402 44.3054 66.1402 42.3054 64.1402C41.9779 61.4257 42.1746 58.8879 42.3054 56.1402C43.3054 55.1402 43.3054 55.1402 45.8056 55.0267C46.8897 55.032 47.9737 55.0372 49.0906 55.0426C50.2604 55.0458 51.4302 55.049 52.6355 55.0524C53.8672 55.0607 55.0989 55.0691 56.3679 55.0777C58.2213 55.0845 58.2213 55.0845 60.112 55.0914C63.1765 55.1032 66.241 55.1197 69.3054 55.1402C69.3054 54.4802 69.3054 53.8202 69.3054 53.1402C70.2954 52.8102 71.2854 52.4802 72.3054 52.1402C72.8004 51.1502 72.8004 51.1502 73.3054 50.1402C63.0754 49.8102 52.8454 49.4802 42.3054 49.1402C40.4585 45.4465 40.0477 44.3127 40.1179 40.4527C40.1243 39.6651 40.1308 38.8775 40.1374 38.066C40.3054 36.1402 40.3054 36.1402 41.3054 35.1402C43.6811 35.0518 46.0275 35.0249 48.4031 35.0426C49.4663 35.0447 49.4663 35.0447 50.5511 35.0469C52.8234 35.0525 55.0956 35.065 57.3679 35.0777C58.905 35.0828 60.4421 35.0873 61.9792 35.0914C65.7547 35.1025 69.53 35.1197 73.3054 35.1402C73.3054 32.5002 73.3054 29.8602 73.3054 27.1402C68.7425 27.4475 64.1802 27.7619 59.6179 28.0777C58.3243 28.1648 57.0308 28.2518 55.698 28.3414C54.4508 28.4284 53.2036 28.5154 51.9187 28.6051C50.1984 28.7229 50.1984 28.7229 48.4433 28.8431C45.6454 29.108 43.0154 29.3943 40.3054 30.1402C37.5038 35.7435 38.1493 43.4176 38.0593 49.5856C38.0264 51.1741 37.9931 52.7626 37.9597 54.3512C37.9127 56.7991 37.8682 59.2469 37.8286 61.6949C37.4211 85.8235 34.6361 112.222 17.0242 130.554C10.1959 136.855 10.1959 136.855 4.99291 137.64C4.10603 137.475 3.21916 137.31 2.30541 137.14C-0.12888 133.489 -0.323378 132.463 0.305405 128.14C2.49085 123.713 4.98392 119.547 8.37181 115.941C11.1018 111.987 11.6727 108.069 12.4929 103.39C12.7394 102.106 12.7394 102.106 12.991 100.796C14.8596 90.8102 15.4556 81.1554 15.4382 70.9957C15.4392 69.7495 15.4401 68.5034 15.4411 67.2194C15.442 63.9246 15.438 60.6299 15.4324 57.3351C15.4291 54.0143 15.4368 50.6935 15.4421 47.3727C15.4415 44.8095 15.4402 42.2464 15.4382 39.6832C15.4402 38.5047 15.4423 37.3262 15.4444 36.112C15.4261 29.5474 15.1262 23.1107 14.4218 16.5821C14.3054 14.1402 14.3054 14.1402 15.3054 11.1402C16.0175 11.1758 16.7295 11.2113 17.4631 11.2479C34.8217 12.0793 51.9529 12.0771 69.3054 11.1402C69.3054 7.51024 69.3054 3.88024 69.3054 0.140245ZM99.3054 49.1402C98.9754 49.8002 98.6454 50.4602 98.3054 51.1402C102.925 51.1402 107.545 51.1402 112.305 51.1402C112.305 50.4802 112.305 49.8202 112.305 49.1402C108.015 49.1402 103.725 49.1402 99.3054 49.1402ZM103.555 66.6402C102.357 66.7795 102.357 66.7795 101.134 66.9215C100.229 67.0298 100.229 67.0298 99.3054 67.1402C99.3054 67.8002 99.3054 68.4602 99.3054 69.1402C103.595 69.1402 107.885 69.1402 112.305 69.1402C112.305 68.1502 112.305 67.1602 112.305 66.1402C109.287 66.1402 106.535 66.2898 103.555 66.6402ZM64.3054 107.14C64.2068 108.596 64.1757 110.056 64.1804 111.515C64.1778 112.307 64.1752 113.098 64.1726 113.914C64.2192 116.314 64.2192 116.314 65.3054 119.14C70.001 119.165 74.6966 119.183 79.3923 119.195C80.9867 119.2 82.5811 119.207 84.1755 119.216C86.4792 119.228 88.7829 119.234 91.0867 119.238C92.1403 119.246 92.1403 119.246 93.2152 119.254C97.9926 119.254 102.574 118.81 107.305 118.14C107.305 117.15 107.305 116.16 107.305 115.14C107.965 115.14 108.625 115.14 109.305 115.14C109.305 112.5 109.305 109.86 109.305 107.14C107.027 106.001 105.768 106.014 103.239 106.011C102.401 106.008 101.564 106.005 100.701 106.001C99.343 106.004 99.343 106.004 97.9577 106.007C96.5672 106.006 96.5672 106.006 95.1486 106.005C93.1874 106.004 91.2263 106.006 89.2651 106.01C86.2518 106.015 83.2386 106.01 80.2253 106.004C78.3236 106.004 76.4219 106.005 74.5202 106.007C73.613 106.005 72.7057 106.003 71.771 106.001C67.7167 105.604 67.7167 105.604 64.3054 107.14Z" fill="#472A18"/>
<path d="M444.673 0.39798C445.723 0.529464 446.774 0.660949 447.856 0.796417C448.953 0.951105 450.05 1.10579 451.18 1.26517C452.27 1.39665 453.359 1.52814 454.481 1.6636C459.876 2.37675 463.713 3.07413 468.305 6.14017C467.906 9.43525 467.317 11.1248 465.305 13.8277C461.79 19.8355 462.621 27.3145 462.555 34.0777C462.527 35.5393 462.497 37.0009 462.466 38.4624C462.392 42.0215 462.342 45.5805 462.305 49.1402C466.397 48.3718 470.486 47.59 474.573 46.7964C475.96 46.5292 477.346 46.2654 478.734 46.0054C493.257 43.9816 493.257 43.9816 504.618 36.0152C505.175 35.0664 505.732 34.1177 506.305 33.1402C508.493 31.4527 508.493 31.4527 511.305 31.1402C518.49 33.6945 526.441 39.376 531.305 45.1402C531.927 48.7417 531.927 48.7417 531.305 52.1402C527.762 54.8134 524.412 55.7576 520.094 56.5823C518.863 56.8223 517.632 57.0624 516.363 57.3096C515.029 57.5594 513.694 57.8089 512.36 58.0581C510.984 58.3221 509.609 58.5869 508.233 58.8524C505.358 59.4054 502.481 59.952 499.604 60.4934C495.916 61.1875 492.23 61.8926 488.544 62.6018C485.025 63.2785 481.505 63.9498 477.985 64.6206C477.314 64.749 476.643 64.8773 475.952 65.0095C474.055 65.3714 472.156 65.7289 470.258 66.0862C468.639 66.3924 468.639 66.3924 466.986 66.7048C464.305 67.1402 464.305 67.1402 461.305 67.1402C461.461 68.3802 461.617 69.6203 461.778 70.898C462.525 77.6071 462.647 84.3376 462.823 91.0816C463.053 102.426 463.053 102.426 466.305 113.14C471.614 115.267 478.013 113.681 483.577 113.154C485.731 112.954 487.886 112.78 490.042 112.607C491.42 112.48 492.798 112.352 494.177 112.222C495.424 112.111 496.671 112 497.956 111.886C501.744 111.043 503.545 109.824 506.305 107.14C509.31 101.865 510.783 96.1507 511.305 90.1402C513.285 90.1402 515.265 90.1402 517.305 90.1402C517.718 91.1263 518.13 92.1124 518.555 93.1284C520.331 97.2675 522.293 101.3 524.305 105.328C524.82 106.375 524.82 106.375 525.344 107.443C527.093 110.951 528.925 114.015 531.305 117.14C531.924 120.235 531.852 122.153 530.309 124.941C525.571 131.21 519.202 133.401 511.68 134.828C510.223 134.947 508.765 135.049 507.305 135.14C506.327 135.23 505.349 135.321 504.341 135.414C495.425 136.13 486.505 136.271 477.564 136.316C476.2 136.324 474.836 136.334 473.472 136.348C450.928 136.559 450.928 136.559 444.305 131.14C437.836 124.671 437.997 116.12 437.891 107.515C437.872 106.528 437.853 105.54 437.833 104.523C437.773 101.395 437.727 98.2678 437.68 95.1402C437.642 93.0086 437.603 90.8771 437.563 88.7456C437.468 83.5439 437.382 78.3422 437.305 73.1402C428.944 74.3404 420.781 75.8278 412.596 77.9038C408.17 78.957 404.805 79.3636 400.305 78.1402C395.694 75.2858 393.544 71.9619 391.305 67.1402C391.704 64.9214 391.704 64.9214 392.305 63.1402C403.883 60.4934 415.492 58.0659 427.151 55.8035C428.182 55.6014 429.212 55.3992 430.274 55.1909C431.196 55.0122 432.119 54.8334 433.069 54.6492C435.327 54.2284 435.327 54.2284 437.305 53.1402C437.33 47.9481 437.348 42.7561 437.36 37.564C437.365 35.8029 437.372 34.0419 437.381 32.2808C437.393 29.7287 437.4 27.1767 437.403 24.6245C437.405 23.3844 437.405 23.3844 437.408 22.1193C437.389 16.4757 437.018 10.9589 436.229 5.3638C436.305 3.14017 436.305 3.14017 437.451 1.31448C440.057 -0.335389 441.636 0.0103185 444.673 0.39798Z" fill="#432817"/>
<path d="M267.946 3.49569C268.852 3.62395 269.758 3.75221 270.692 3.88436C271.637 4.03067 272.582 4.17698 273.555 4.32772C274.95 4.51818 274.95 4.51818 276.372 4.71249C281.799 5.51463 286.421 6.60944 291.305 9.14022C292.493 11.0152 292.493 11.0152 292.305 13.1402C291.011 14.8369 289.672 16.5005 288.305 18.1402C281.864 33.0574 284.171 56.0702 289.555 70.8902C291.947 76.6717 294.856 81.9296 298.305 87.1402C298.705 87.7757 299.105 88.4112 299.516 89.066C302.739 93.9437 306.807 97.4559 311.305 101.14C312.452 102.134 312.452 102.134 313.622 103.148C321.948 110.178 331.095 114.671 341.442 117.988C343.305 119.14 343.305 119.14 344.387 121.449C344.305 124.14 344.305 124.14 342.223 126.66C339.376 129.08 336.531 131.487 333.618 133.828C329.845 136.854 329.845 136.854 326.305 140.14C315.149 139.462 302.656 125.926 295.305 118.14C287.968 109.542 281.298 99.769 277.305 89.1402C276.809 89.9021 276.313 90.6639 275.802 91.4488C271.557 97.8997 267.214 104.176 262.305 110.14C261.671 110.936 261.671 110.936 261.023 111.747C257.371 116.2 253.431 119.725 248.805 123.14C248.112 123.656 247.419 124.171 246.704 124.702C236.778 131.899 224.969 139.114 212.305 138.14C211.315 137.48 210.325 136.82 209.305 136.14C209.497 133.851 209.497 133.851 210.305 131.14C212.458 129.367 212.458 129.367 215.243 127.765C216.242 127.161 217.241 126.556 218.27 125.933C220.137 124.831 222.004 123.729 223.872 122.629C239.138 112.901 250.441 93.2119 255.305 76.1402C258.458 61.8399 259.267 47.2544 259.516 32.6519C259.531 31.8478 259.545 31.0436 259.56 30.215C259.617 26.9018 259.673 23.5888 259.707 20.2752C259.734 17.817 259.78 15.3598 259.829 12.9019C259.832 12.15 259.835 11.398 259.839 10.6233C259.889 8.52572 259.889 8.52572 260.305 5.14022C263.671 2.89636 264.152 2.95379 267.946 3.49569Z" fill="#E06E31"/>
<path d="M323.305 27.1401C328.784 27.4825 332.229 30.8124 336.305 34.1401C336.965 34.6648 337.625 35.1894 338.305 35.73C342.311 39.0099 344.871 41.3541 345.7 46.6675C345.305 49.1401 345.305 49.1401 343.567 50.9565C342.718 51.5328 341.868 52.109 340.993 52.7026C339.498 53.7236 339.498 53.7236 337.973 54.7651C336.753 55.5609 335.53 56.3522 334.305 57.1401C333.577 57.6094 332.848 58.0786 332.097 58.562C328.033 61.1655 323.952 63.7375 319.852 66.2847C317.158 67.9619 314.497 69.6648 311.884 71.4644C304.419 76.5472 304.419 76.5472 300.305 76.8276C297.305 76.1401 297.305 76.1401 295.18 74.7026C294.036 71.3519 294.664 69.1232 295.911 65.8706C298.628 60.5502 302.315 55.8772 305.873 51.1006C308.848 47.028 311.644 42.828 314.462 38.6458C317.209 34.608 320.121 30.8445 323.305 27.1401Z" fill="#E56F31"/>
<path d="M227.305 32.1401C229.615 32.1401 231.925 32.1401 234.305 32.1401C240.904 43.2385 240.845 58.3047 238.118 70.5776C236.537 76.1025 234.46 82.2149 229.341 85.3394C226.025 86.644 223.513 86.5029 220.305 85.1401C211.432 78.3931 211.432 78.3931 209.305 74.1401C208.564 67.6662 210.523 64.4252 214.055 59.3276C217.943 53.4385 220.989 47.8307 223.305 41.1401C224.555 38.1011 225.836 35.08 227.305 32.1401Z" fill="#E56F31"/>
<path d="M69.3055 0.140245C79.1125 -0.170178 87.9373 -0.25901 97.3055 3.14024C97.3055 5.78024 97.3055 8.42024 97.3055 11.1402C96.3155 10.8102 95.3255 10.4802 94.3055 10.1402C93.618 8.07774 93.618 8.07774 93.3055 6.14024C86.4676 3.69817 79.5111 3.52002 72.3055 3.14024C72.3171 3.92271 72.3287 4.70517 72.3406 5.51134C72.3496 6.52325 72.3587 7.53517 72.368 8.57774C72.3796 9.58708 72.3912 10.5964 72.4031 11.6363C72.3055 14.1402 72.3055 14.1402 71.3055 15.1402C69.6174 15.2338 67.9255 15.2577 66.2349 15.2538C65.1538 15.2537 64.0728 15.2536 62.959 15.2535C61.195 15.2458 61.195 15.2458 59.3953 15.2379C58.1981 15.2365 57.001 15.2351 55.7675 15.2336C51.926 15.228 48.0845 15.2154 44.243 15.2027C41.6459 15.1977 39.0489 15.1932 36.4519 15.1891C30.0698 15.178 23.6876 15.1613 17.3054 15.1402C17.4016 16.0236 17.4977 16.9069 17.5967 17.817C19.7106 37.7666 20.6976 57.0723 19.3054 77.1402C19.242 78.1937 19.1785 79.2472 19.1131 80.3326C17.3466 109.348 17.3466 109.348 10.3054 120.14C8.82238 115.691 10.4749 111.841 11.659 107.443C15.7446 91.3806 15.5908 75.2791 15.5113 58.8121C15.4929 54.885 15.4908 50.9581 15.491 47.0309C15.4861 44.4996 15.4803 41.9684 15.4734 39.4371C15.4723 38.2806 15.4712 37.124 15.47 35.9324C15.4326 29.4335 15.1142 23.0544 14.4206 16.5907C14.3054 14.1402 14.3054 14.1402 15.3054 11.1402C16.0175 11.1758 16.7295 11.2113 17.4632 11.2479C34.8218 12.0793 51.9529 12.0771 69.3055 11.1402C69.3055 7.51024 69.3055 3.88024 69.3055 0.140245Z" fill="#372216"/>
<path d="M43.3054 55.1401C45.1837 55.2344 47.0588 55.3932 48.9304 55.5776C56.413 56.2254 63.8011 56.2336 71.3054 56.1401C71.6354 56.8001 71.9654 57.4601 72.3054 58.1401C59.9304 58.6351 59.9304 58.6351 47.3054 59.1401C47.3054 60.1301 47.3054 61.1201 47.3054 62.1401C48.5699 62.1777 48.5699 62.1777 49.8599 62.2161C52.9778 62.311 56.0956 62.4103 59.2134 62.5125C60.5646 62.5558 61.9158 62.5975 63.2671 62.6375C65.2058 62.695 67.1443 62.7593 69.0828 62.8237C70.2506 62.8604 71.4184 62.897 72.6216 62.9348C75.3054 63.1401 75.3054 63.1401 76.3054 64.1401C76.3772 65.6594 76.3893 67.1818 76.3679 68.7026C76.3589 69.5289 76.3499 70.3552 76.3406 71.2065C76.329 71.8446 76.3174 72.4827 76.3054 73.1401C69.3916 75.2713 63.0066 75.3771 55.8054 75.2651C54.6968 75.2561 53.5882 75.2471 52.446 75.2378C49.7323 75.2144 47.019 75.1816 44.3054 75.1401C44.6354 76.7901 44.9654 78.4401 45.3054 80.1401C46.5766 80.1489 46.5766 80.1489 47.8735 80.1579C55.8492 80.2157 63.8246 80.2878 71.8001 80.3759C75.9006 80.4206 80.0011 80.4599 84.1018 80.4866C88.0572 80.5125 92.0121 80.5529 95.9673 80.6033C97.4783 80.62 98.9895 80.6315 100.501 80.6378C102.613 80.6473 104.724 80.6753 106.836 80.7078C108.642 80.7244 108.642 80.7244 110.483 80.7414C111.88 80.9388 111.88 80.9388 113.305 81.1401C114.295 82.6251 114.295 82.6251 115.305 84.1401C111.84 85.2593 108.986 85.0719 105.382 84.718C98.6034 84.1288 91.8765 83.9569 85.0749 83.894C82.6199 83.8612 80.1648 83.828 77.7097 83.7944C73.8867 83.7467 70.0638 83.7021 66.2407 83.6633C62.5186 83.6238 58.7969 83.5723 55.0749 83.519C53.347 83.5064 53.347 83.5064 51.5842 83.4935C50.5251 83.4769 49.4661 83.4603 48.375 83.4431C47.4416 83.4328 46.5082 83.4225 45.5465 83.4119C43.3054 83.1401 43.3054 83.1401 41.3054 81.1401C40.9779 78.4256 41.1746 75.8878 41.3054 73.1401C42.9431 71.5025 44.8593 71.9348 47.1179 71.8589C48.1118 71.8215 49.1056 71.7841 50.1296 71.7456C51.1776 71.7108 52.2256 71.676 53.3054 71.6401C60.3567 71.3988 67.302 71.0156 74.3054 70.1401C74.3054 68.8201 74.3054 67.5001 74.3054 66.1401C73.4071 66.1506 72.5088 66.1611 71.5832 66.1719C68.2548 66.2059 64.9265 66.231 61.5979 66.25C60.1565 66.2601 58.715 66.2737 57.2737 66.291C55.2035 66.3152 53.1335 66.3266 51.0632 66.3354C49.1937 66.3512 49.1937 66.3512 47.2864 66.3672C44.3054 66.1401 44.3054 66.1401 42.3054 64.1401C41.9779 61.4256 42.1746 58.8878 42.3054 56.1401C42.6354 55.8101 42.9654 55.4801 43.3054 55.1401Z" fill="#372216"/>
<path d="M149.305 16.1401C150.625 16.8001 151.945 17.4601 153.305 18.1401C153.493 21.5151 153.493 21.5151 153.305 25.1401C149.404 27.7409 146.116 27.4325 141.59 27.4272C140.698 27.4341 139.807 27.4409 138.888 27.448C136.948 27.4616 135.009 27.4706 133.069 27.4757C129.985 27.484 126.902 27.5045 123.818 27.5282C117.251 27.5765 110.685 27.6093 104.118 27.6401C96.5491 27.676 88.9804 27.7183 81.4118 27.7761C78.3988 27.7959 75.386 27.8044 72.373 27.8124C56.1923 27.6248 56.1923 27.6248 40.3054 30.1401C38.3603 32.074 38.3603 32.074 37.3054 34.1401C36.9754 32.1601 36.6454 30.1801 36.3054 28.1401C43.9762 24.6116 50.7855 23.9876 59.1663 23.9348C60.1425 23.9249 61.1187 23.915 62.1245 23.9048C65.3385 23.8733 68.5524 23.8485 71.7664 23.8237C73.9998 23.8031 76.2333 23.7822 78.4667 23.7608C84.3356 23.7057 90.2046 23.6562 96.0736 23.6079C102.066 23.5576 108.059 23.502 114.052 23.4468C125.803 23.3393 137.554 23.2379 149.305 23.1401C149.305 20.8301 149.305 18.5201 149.305 16.1401Z" fill="#362216"/>
<path d="M439.305 72.1401C439.965 72.4701 440.625 72.8001 441.305 73.1401C441.32 74.3904 441.335 75.6406 441.35 76.9287C441.408 81.6069 441.485 86.2846 441.568 90.9624C441.601 92.9796 441.629 94.9968 441.652 97.0142C441.686 99.9289 441.738 102.843 441.794 105.757C441.8 106.646 441.806 107.535 441.813 108.451C441.975 115.509 442.884 122.801 447.118 128.64C453.238 132.837 459.911 132.478 467.048 132.554C468.171 132.574 469.295 132.593 470.452 132.613C474.028 132.672 477.604 132.719 481.18 132.765C483.61 132.803 486.04 132.842 488.469 132.882C494.415 132.978 500.36 133.063 506.305 133.14C506.635 133.8 506.965 134.46 507.305 135.14C497.4 136.039 487.498 136.273 477.556 136.317C476.195 136.324 474.835 136.334 473.474 136.348C450.928 136.559 450.928 136.559 444.305 131.14C438.512 125.347 438.08 118.186 438.053 110.398C438.06 109.459 438.068 108.519 438.075 107.55C438.075 106.565 438.076 105.58 438.076 104.565C438.079 102.499 438.087 100.432 438.1 98.3655C438.118 95.1881 438.12 92.011 438.12 88.8335C438.125 86.8224 438.131 84.8114 438.137 82.8003C438.139 81.8462 438.14 80.8922 438.141 79.9092C438.147 79.0342 438.154 78.1591 438.16 77.2576C438.164 76.4845 438.168 75.7114 438.172 74.9149C438.305 73.1401 438.305 73.1401 439.305 72.1401Z" fill="#2D190E"/>
<path d="M439.305 0.140137C439.965 0.470137 440.625 0.800137 441.305 1.14014C441.355 7.27823 441.391 13.4162 441.415 19.5544C441.425 21.6407 441.439 23.727 441.456 25.8132C441.481 28.8194 441.492 31.8253 441.501 34.8315C441.511 35.7579 441.521 36.6842 441.532 37.6386C441.533 42.8749 441.02 47.1838 439.305 52.1401C438.975 52.1401 438.645 52.1401 438.305 52.1401C438.28 51.0821 438.255 50.0241 438.229 48.9341C438.134 44.953 438.034 40.9721 437.933 36.9912C437.89 35.2787 437.848 33.5661 437.808 31.8535C437.749 29.3708 437.687 26.8883 437.622 24.4058C437.602 23.6005 437.582 22.7953 437.561 21.9657C437.402 16.3952 436.96 10.9077 436.211 5.38135C436.305 3.14014 436.305 3.14014 437.788 1.32861C438.289 0.936416 438.79 0.544219 439.305 0.140137Z" fill="#2C180E"/>
<path d="M41.3054 39.1401C44.0893 40.5321 44.2844 42.2959 45.3054 45.1401C46.562 45.162 46.562 45.162 47.844 45.1843C50.9492 45.2453 54.0538 45.3195 57.1585 45.4026C59.1643 45.4522 61.1704 45.4867 63.1765 45.521C65.0618 45.5742 65.0618 45.5742 66.9851 45.6284C68.1477 45.6546 69.3103 45.6808 70.5081 45.7078C71.8928 45.9218 71.8928 45.9218 73.3054 46.1401C73.9654 47.1301 74.6254 48.1201 75.3054 49.1401C71.331 50.1069 67.7721 50.1867 63.6921 50.019C62.445 49.9707 61.1978 49.9224 59.9128 49.8726C58.6193 49.8165 57.3257 49.7604 55.9929 49.7026C54.68 49.6504 53.3671 49.5982 52.0144 49.5444C48.7778 49.415 45.5416 49.28 42.3054 49.1401C40.1736 45.3973 40.3486 43.3503 41.3054 39.1401Z" fill="#331C10"/>
<path d="M139.868 6.70273C142.455 8.22862 143.711 9.62287 145.305 12.1402C144.383 12.1054 144.383 12.1054 143.442 12.0699C142.634 12.0519 141.826 12.0338 140.993 12.0152C139.792 11.9804 139.792 11.9804 138.567 11.9449C136.022 11.9821 136.022 11.9821 133.305 14.1402C125.759 15.4918 117.886 15.3228 110.243 15.3277C109.212 15.34 108.182 15.3522 107.12 15.3648C105.647 15.3677 105.647 15.3677 104.145 15.3707C102.821 15.3769 102.821 15.3769 101.469 15.3832C99.3054 15.1402 99.3054 15.1402 97.3054 13.1402C114.63 12.6452 114.63 12.6452 132.305 12.1402C132.635 11.1502 132.965 10.1602 133.305 9.14023C135.663 6.69864 136.478 5.95865 139.868 6.70273Z" fill="#372216"/>
<path d="M108.305 104.14C108.8 105.625 108.8 105.625 109.305 107.14C87.5254 106.645 87.5254 106.645 65.3054 106.14C65.6354 105.48 65.9654 104.82 66.3054 104.14C80.3648 102.883 94.2242 103.391 108.305 104.14Z" fill="#3A271A"/>
<path d="M528.305 127.14C523.626 131.381 518.634 133.932 512.305 134.327C511.645 134.266 510.985 134.204 510.305 134.14C510.305 133.48 510.305 132.82 510.305 132.14C512.739 131.107 515.176 130.089 517.618 129.077C518.653 128.636 518.653 128.636 519.71 128.185C524.966 126.027 524.966 126.027 528.305 127.14Z" fill="#362216"/>
<path d="M109.305 107.14C111.9 109.735 112.005 111.539 112.305 115.14C111.645 115.8 110.985 116.46 110.305 117.14C108.698 113.926 109.248 110.704 109.305 107.14Z" fill="#3B271A"/>
</svg>
