<svg width="900" height="116" viewBox="0 0 900 116" fill="none" xmlns="http://www.w3.org/2000/svg">
<path d="M497.411 0.500399C498.785 0.490829 498.785 0.490829 500.186 0.481066C501.182 0.479953 502.177 0.47884 503.203 0.477694C504.233 0.474365 505.262 0.471037 506.322 0.467608C508.512 0.462534 510.701 0.4602 512.89 0.46036C516.195 0.458199 519.5 0.440119 522.805 0.421053C560.523 0.317075 560.523 0.317075 572.598 11.8605C576.998 17.462 578.701 24.0822 578.391 31.1261C577.385 37.6131 574.74 44.0378 570 48.6457C567.404 50.443 564.742 52.0815 562 53.6457C563.732 54.8005 565.49 55.9216 567.305 56.9425C574.968 61.2748 579.477 65.3656 583 73.6457C585.234 82.9577 584.967 92.3009 580 100.646C572.966 110.063 563.594 113.394 552.367 115.214C546.879 115.918 541.429 115.971 535.902 115.982C534.706 115.988 533.509 115.995 532.276 116.002C529.771 116.012 527.266 116.017 524.761 116.016C520.916 116.021 517.073 116.057 513.229 116.095C510.786 116.101 508.344 116.105 505.902 116.107C504.752 116.121 503.602 116.135 502.418 116.15C500.824 116.141 500.824 116.141 499.199 116.132C498.265 116.134 497.331 116.137 496.368 116.14C494 115.646 494 115.646 492.175 113.807C491 111.646 491 111.646 491 108.583C492.261 104.88 493.64 104.449 497 102.646C502.689 94.3679 500.088 76.7068 499.914 67.1886C499.892 65.7838 499.871 64.379 499.85 62.9741C499.805 60.0692 499.756 57.1644 499.703 54.2597C499.636 50.5388 499.579 46.8178 499.525 43.0968C499.482 40.2134 499.435 37.3302 499.386 34.4469C499.363 33.0734 499.342 31.6999 499.321 30.3263C499.293 28.4199 499.257 26.5136 499.221 24.6073C499.203 23.5253 499.184 22.4433 499.165 21.3284C499.109 18.5446 499.109 18.5446 498 15.6457C497.031 14.8413 496.061 14.0369 495.062 13.2082C490.856 9.6882 490.856 9.6882 490 6.64566C490.25 3.95816 490.25 3.95816 491 1.64566C493.357 0.466974 494.783 0.512829 497.411 0.500399ZM525 18.6457C524.951 22.739 524.914 26.8323 524.89 30.9259C524.88 32.3189 524.866 33.7118 524.849 35.1046C524.825 37.1052 524.815 39.1059 524.805 41.1066C524.794 42.3111 524.784 43.5155 524.773 44.7565C524.695 47.7741 524.695 47.7741 527 49.6457C534.478 50.635 540.762 49.9553 547 45.6457C547.784 45.1094 548.567 44.5732 549.375 44.0207C552.341 39.6851 553.478 34.564 552.625 29.3566C551.129 24.8181 549.135 22.2056 545 19.6457C541.331 17.9196 538.483 17.3963 534.438 17.4582C533.508 17.4646 532.579 17.4711 531.621 17.4777C529.264 17.6288 527.27 18.0404 525 18.6457ZM526 64.6457C526 76.5257 526 88.4057 526 100.646C538.881 100.761 538.881 100.761 550.961 96.0597C551.428 95.4693 551.894 94.8789 552.375 94.2707C552.857 93.6854 553.339 93.1002 553.836 92.4972C556.368 88.4699 556.316 84.3071 556 79.6457C554.222 73.6838 551.213 69.9153 546 66.6457C538.84 63.9078 538.84 63.9078 526 64.6457Z" fill="#452817"/>
<path d="M258.82 0.41503C260.564 0.41648 260.564 0.41648 262.344 0.41796C264.215 0.437779 264.215 0.437779 266.125 0.457999C267.412 0.467345 268.699 0.47669 270.026 0.486319C274.018 0.524461 278.008 0.582861 282 0.645499C283.823 0.666527 283.823 0.666527 285.682 0.687979C319.164 1.13787 319.164 1.13787 330 11.6455C330.563 12.1817 331.127 12.718 331.707 13.2705C338.355 20.2578 339.578 28.1453 339.558 37.5493C339.231 45.5068 336.359 51.9836 330.961 57.8682C327.846 60.709 324.824 62.8609 321 64.6455C322.298 68.884 323.917 72.5896 326.082 76.4541C326.685 77.5311 327.287 78.6081 327.908 79.7178C328.537 80.8283 329.165 81.9388 329.812 83.083C330.429 84.1897 331.046 85.2963 331.682 86.4365C337.241 97.7068 337.241 97.7068 346.75 105.021C350.989 106.635 350.989 106.635 352 107.646C352.188 110.583 352.188 110.583 352 113.646C348.826 116.819 345.254 115.941 340.924 115.968C339.732 115.965 338.54 115.961 337.312 115.958C336.14 115.974 334.968 115.99 333.76 116.007C322.41 116.013 322.41 116.013 317 112.646C313.014 108.346 310.419 103.993 307.898 98.7275C307.535 97.9885 307.172 97.2494 306.798 96.488C305.649 94.1484 304.511 91.8038 303.375 89.458C302.231 87.1019 301.085 84.7471 299.931 82.3959C299.216 80.9387 298.506 79.4786 297.804 78.0153C295.608 73.2655 295.608 73.2655 292 69.6455C289.728 69.0723 289.728 69.0723 287.312 68.958C286.504 68.8923 285.696 68.8265 284.863 68.7588C284.248 68.7214 283.634 68.684 283 68.6455C283.081 73.1879 283.194 77.729 283.312 82.2705C283.346 84.1983 283.346 84.1983 283.381 86.165C283.416 87.409 283.452 88.6529 283.488 89.9346C283.514 91.0762 283.541 92.2178 283.568 93.394C284.228 98.3585 286.245 102.172 289.75 105.708C292 108.646 292 108.646 292 111.396C291 113.646 291 113.646 288 115.646C285.277 115.841 282.66 115.926 279.938 115.911C278.756 115.914 278.756 115.914 277.551 115.917C275.886 115.918 274.222 115.915 272.558 115.906C270.01 115.896 267.462 115.906 264.914 115.919C263.297 115.918 261.68 115.915 260.062 115.911C259.3 115.915 258.537 115.919 257.752 115.923C253.965 115.89 252.229 115.798 249 113.646C248.5 110.833 248.5 110.833 249 107.646C251.375 104.771 251.375 104.771 254 102.646C254.66 102.646 255.32 102.646 256 102.646C256.728 97.4071 257.133 92.3546 257.161 87.0554C257.166 86.3437 257.171 85.632 257.176 84.8988C257.191 82.5735 257.198 80.2482 257.203 77.9228C257.206 77.1225 257.209 76.3222 257.212 75.4976C257.227 71.2685 257.236 67.0394 257.24 62.8103C257.246 58.4571 257.27 54.1042 257.298 49.7511C257.317 46.3873 257.322 43.0235 257.324 39.6596C257.327 38.0549 257.335 36.4502 257.348 34.8456C257.365 32.5989 257.363 30.3529 257.356 28.1062C257.362 26.1938 257.362 26.1938 257.367 24.2428C256.935 20.0094 255.96 17.4084 254 13.6455C253.113 12.9855 252.226 12.3255 251.312 11.6455C249 9.6455 249 9.6455 248.688 5.8955C248.791 4.823 248.894 3.7505 249 2.6455C252.364 0.61921 254.923 0.39946 258.82 0.41503ZM283 19.6455C283 30.5355 283 41.4255 283 52.6455C285.867 52.7074 288.734 52.7693 291.688 52.833C292.582 52.8603 293.476 52.8876 294.397 52.9158C299.115 52.965 302.163 52.6948 306 49.6455C309.809 45.6193 311.903 41.9077 312.07 36.2861C311.806 31.1469 310.948 27.1449 307.645 23.1182C303.458 19.3696 298.408 17.4527 292.812 17.2705C288.557 17.5468 288.557 17.5468 283 19.6455Z" fill="#462A17"/>
<path d="M681.812 0.270346C683.739 0.233607 683.739 0.233607 685.705 0.196127C686.943 0.19226 688.181 0.188393 689.457 0.184408C690.591 0.17619 691.725 0.167973 692.894 0.159506C697.304 0.849322 699.517 2.67856 702.19 6.22295C703.488 8.13907 704.712 10.0889 705.926 12.0594C706.895 13.5945 707.866 15.1286 708.838 16.6619C709.35 17.473 709.862 18.284 710.39 19.1196C713.174 23.487 716.047 27.7955 718.918 32.1063C719.511 32.9979 720.105 33.8896 720.716 34.8082C721.928 36.6285 723.14 38.4484 724.353 40.2679C726.198 43.0366 728.04 45.8077 729.881 48.5789C735.751 57.3975 741.63 66.1762 748 74.6453C748.868 71.6544 749.115 69.0217 749.085 65.9119C749.078 64.9771 749.071 64.0422 749.063 63.079C749.049 62.0748 749.034 61.0706 749.02 60.036C749.005 58.9952 748.991 57.9544 748.977 56.8821C748.944 54.6798 748.907 52.4775 748.868 50.2752C748.813 46.922 748.784 43.5692 748.756 40.2157C748.72 38.0724 748.683 35.9292 748.645 33.786C748.64 32.7899 748.636 31.7938 748.631 30.7675C748.483 24.6413 747.624 19.7158 744 14.6453C743.113 13.9647 742.226 13.2841 741.312 12.5828C739 10.6453 739 10.6453 738 7.08285C738 3.64535 738 3.64535 739.037 1.9554C741.995 -0.0187695 744.969 0.216955 748.406 0.246908C749.488 0.242603 749.488 0.242603 750.591 0.238211C752.115 0.236171 753.638 0.241693 755.161 0.254232C757.492 0.270289 759.821 0.254382 762.152 0.235189C763.633 0.237172 765.113 0.241016 766.594 0.246908C767.291 0.240835 767.988 0.234763 768.706 0.228506C771.575 0.270202 773.533 0.319136 775.924 1.99056C777.729 4.76611 777.644 6.42716 777 9.64535C775.335 11.1545 773.583 12.2969 771.688 13.5008C768.653 15.5586 768.178 17.7815 767.464 21.2422C766.92 25.2339 766.899 29.1401 766.95 33.1576C766.959 34.4074 766.959 34.4074 766.969 35.6826C766.983 37.4832 766.999 39.2838 767.017 41.0843C767.043 43.9339 767.061 46.7834 767.076 49.6331C767.119 57.7322 767.167 65.8312 767.247 73.93C767.295 78.8906 767.324 83.851 767.341 88.8118C767.35 90.7009 767.368 92.59 767.392 94.479C767.426 97.1169 767.435 99.7538 767.438 102.392C767.454 103.172 767.47 103.953 767.487 104.757C767.467 108.316 767.301 110.254 765.096 113.115C761.697 115.596 758.689 115.797 754.562 115.833C753.821 115.847 753.08 115.861 752.316 115.876C748.041 115.45 745.685 114.388 742.746 111.204C741.603 109.659 741.603 109.659 740.438 108.083C739.798 107.224 739.798 107.224 739.146 106.349C737.747 104.459 736.371 102.555 735 100.645C734.305 99.6786 734.305 99.6786 733.596 98.6922C730.575 94.4716 727.593 90.2245 724.623 85.9681C722.947 83.5695 721.265 81.1754 719.582 78.7821C713.045 69.4788 706.567 60.1383 700.174 50.7357C699.669 49.9943 699.165 49.2529 698.645 48.4891C698.205 47.8413 697.765 47.1936 697.312 46.5262C695.92 44.53 694.464 42.5892 693 40.6453C692.78 47.904 692.586 55.1629 692.408 62.4227C692.345 64.8903 692.276 67.3578 692.201 69.825C692.094 73.3795 692.008 76.934 691.926 80.4891C691.87 82.1333 691.87 82.1333 691.813 83.8108C691.678 90.7375 691.856 97.2127 696.789 102.598C697.395 103.026 698.001 103.454 698.625 103.895C701.832 106.195 701.832 106.195 702.762 108.681C703.076 111.268 702.411 112.491 701 114.645C696.712 116.789 691.013 115.872 686.251 115.886C684.14 115.895 682.029 115.926 679.918 115.958C678.573 115.964 677.228 115.97 675.883 115.973C674.66 115.983 673.436 115.992 672.176 116.002C668.76 115.618 667.383 115.079 665 112.645C664.25 109.895 664.25 109.895 665 106.645C666.921 104.601 668.945 102.89 671.152 101.161C673.11 99.7652 673.11 99.7652 674 97.6453C674.119 95.1396 674.178 92.6608 674.193 90.1539C674.201 89.3813 674.209 88.6088 674.218 87.8128C674.243 85.2505 674.259 82.6882 674.273 80.1258C674.279 79.2513 674.284 78.3768 674.29 77.4757C674.316 72.847 674.336 68.2182 674.35 63.5894C674.367 58.8075 674.412 54.0262 674.462 49.2445C674.496 45.5685 674.508 41.8926 674.513 38.2164C674.52 36.4537 674.535 34.6911 674.559 32.9285C674.591 30.4601 674.591 27.9936 674.583 25.525C674.608 24.4346 674.608 24.4346 674.633 23.3221C674.585 19.3883 674.132 17.8032 671.577 14.7388C670.129 13.563 668.673 12.3974 667.188 11.2703C665.186 8.53117 665.704 5.90158 666 2.64535C669.834 -1.18865 676.643 0.275487 681.812 0.270346Z" fill="#452816"/>
<path d="M12.0273 0.407059C13.2053 0.394951 13.2053 0.394951 14.4071 0.382599C16.0672 0.36878 17.7273 0.358048 19.3875 0.350174C21.9249 0.332926 24.461 0.289019 26.998 0.244949C28.612 0.234825 30.2259 0.226308 31.8398 0.219559C32.9759 0.193297 32.9759 0.193297 34.135 0.166504C37.676 0.181079 39.6299 0.368105 42.5022 2.51961C44 4.64534 44 4.64534 44.125 7.08284C42.5676 10.6302 39.9737 12.2178 37 14.6453C35.0653 18.3915 34.753 21.4979 34.7695 25.6805C34.7715 26.8194 34.7734 27.9583 34.7754 29.1317C34.7876 30.3118 34.7999 31.4919 34.8125 32.7078C34.8131 33.8918 34.8138 35.0758 34.8145 36.2957C34.755 43.051 34.755 43.051 36 49.6453C42.2268 42.9763 48.2737 36.2421 53.9883 29.1219C55.7715 26.9267 57.6135 24.8139 59.5 22.7078C62.2278 19.4942 62.2278 19.4942 63 15.6453C61.7685 13.8528 61.7685 13.8528 60 12.2703C57.015 9.04236 57.015 9.04236 56.875 5.33284C58 2.64534 58 2.64534 59.6057 1.49397C62.8771 0.334462 66.0065 0.359475 69.4336 0.379715C70.1485 0.377802 70.8635 0.375888 71.6001 0.373917C73.1088 0.372559 74.6175 0.376228 76.1262 0.384598C78.4262 0.395288 80.7254 0.384698 83.0254 0.371902C84.4948 0.373224 85.9642 0.375788 87.4336 0.379715C88.4588 0.373642 88.4588 0.373642 89.5047 0.367447C93.4395 0.405763 96.4533 0.92473 100 2.64534C101.045 6.91359 101.045 6.91359 100 9.64534C97.2346 11.596 94.3204 13.0541 91.3203 14.618C85.822 17.9752 82.1179 22.774 78 27.6453C77.2678 28.3737 76.5356 29.102 75.7812 29.8524C73.9257 31.533 73.9257 31.533 73 33.6453C72.34 33.6453 71.68 33.6453 71 33.6453C71 34.3053 71 34.9653 71 35.6453C70.34 35.6453 69.68 35.6453 69 35.6453C68.7525 36.3672 68.505 37.0891 68.25 37.8328C66.8902 40.8925 65.1708 43.1127 63 45.6453C63.3751 46.1906 63.7502 46.7359 64.1367 47.2977C64.6485 48.0518 65.1602 48.8059 65.6875 49.5828C66.1864 50.3137 66.6852 51.0446 67.1992 51.7977C68.6616 54.1103 69.9821 56.4191 71.2852 58.8211C74.1569 64.0413 77.4184 68.9598 80.75 73.8953C81.3662 74.8112 81.9823 75.7271 82.6172 76.6707C83.8452 78.4935 85.075 80.3152 86.3066 82.1356C87.7834 84.3243 89.2463 86.5214 90.7031 88.7235C91.4682 89.8645 92.2337 91.0051 93 92.1453C93.9591 93.5839 93.9591 93.5839 94.9375 95.0516C98.3511 99.3444 102.174 102.57 107.312 104.645C110.848 106.325 110.848 106.325 112.188 109.145C111.94 112.443 111.472 113.413 109 115.645C105.881 116.246 102.792 116.157 99.625 116.106C98.7041 116.105 97.7833 116.104 96.8345 116.104C94.8876 116.097 92.9408 116.082 90.9941 116.057C88.0114 116.02 85.0298 116.016 82.0469 116.016C80.1562 116.007 78.2656 115.995 76.375 115.981C75.0343 115.978 75.0343 115.978 73.6665 115.975C72.8355 115.962 72.0046 115.949 71.1484 115.936C70.418 115.928 69.6876 115.921 68.9351 115.913C67 115.645 67 115.645 64 113.645C63.7434 110.566 63.6057 108.434 65 105.645C65.66 105.645 66.32 105.645 67 105.645C65.7499 100.672 64.1363 96.7417 61.4805 92.3016C60.9698 91.4424 60.9698 91.4424 60.4488 90.5659C59.7322 89.3637 59.0119 88.1638 58.2878 86.9661C57.1931 85.1546 56.1102 83.3363 55.0293 81.5164C51.5707 75.7221 48.0458 70.0504 44 64.6453C42.8634 65.8427 41.7412 67.0539 40.625 68.2703C39.9985 68.9432 39.372 69.6161 38.7266 70.3094C34.3694 76.2044 34.7467 82.2059 35.0625 89.2078C35.0773 90.1405 35.0921 91.0731 35.1074 92.034C35.3039 96.7071 35.4545 98.9622 38.4453 102.708C39.7099 103.667 39.7099 103.667 41 104.645C43.6456 106.744 43.9502 107.239 44.375 110.708C44.1894 112.162 44.1894 112.162 44 113.645C40.1478 116.213 36.9652 115.933 32.5 115.911C31.6679 115.913 30.8358 115.915 29.9785 115.917C28.22 115.918 26.4616 115.914 24.7031 115.906C22.0102 115.895 19.3179 115.906 16.625 115.919C14.9167 115.917 13.2083 115.915 11.5 115.911C10.6937 115.915 9.88738 115.919 9.05664 115.923C5.18525 115.891 3.29534 115.842 0 113.645C0.33 111.335 0.66 109.025 1 106.645C1.66 106.645 2.32 106.645 3 106.645C3.28875 106.027 3.5775 105.408 3.875 104.77C5 102.645 5 102.645 7 100.645C10.7653 89.1906 9.1541 74.978 9.13037 63.0907C9.12503 59.9161 9.13033 56.7417 9.13672 53.5672C9.14033 47.5923 9.09483 41.6195 9 35.6453C8.98675 34.7821 8.97349 33.9188 8.95984 33.0294C8.91189 30.6862 8.83414 28.3465 8.74219 26.0047C8.67427 24.0706 8.67427 24.0706 8.60498 22.0975C7.89932 18.0708 6.52841 15.8252 4 12.6453C3.2575 12.1503 2.515 11.6553 1.75 11.1453C0 9.64534 0 9.64534 -0.3125 6.58284C0 3.64534 0 3.64534 1 1.64534C4.7019 0.411375 8.16891 0.44459 12.0273 0.407059Z" fill="#452817"/>
<path d="M836.875 0.458008C837.964 0.445762 839.054 0.433516 840.176 0.420898C841.229 0.418965 842.282 0.417031 843.367 0.415039C844.327 0.41093 845.288 0.406821 846.277 0.402588C849.444 0.685103 851.277 0.958426 854 2.64551C857.784 8.90712 860 15.8457 862.414 22.7275C862.829 23.8952 863.243 25.0628 863.67 26.2658C864.993 29.9948 866.31 33.7263 867.625 37.458C870.633 45.9679 873.651 54.4743 876.69 62.9737C877.574 65.4529 878.456 67.9334 879.334 70.415C880.635 74.0836 881.952 77.7459 883.273 81.4072C883.66 82.5067 884.046 83.6062 884.445 84.739C887.621 93.4576 891.288 101.137 899 106.646C900.354 109.354 900.065 111.655 900 114.646C896.026 115.97 892.206 115.808 888.062 115.813C886.748 115.818 886.748 115.818 885.406 115.824C883.554 115.829 881.701 115.831 879.849 115.831C877.011 115.833 874.174 115.851 871.336 115.87C869.536 115.873 867.737 115.875 865.938 115.876C865.087 115.883 864.237 115.89 863.362 115.898C857.343 115.874 857.343 115.874 854 113.646C853.438 110.896 853.438 110.896 854 107.646C855.348 106.165 855.348 106.165 857 104.708C859.459 102.447 859.943 101.962 860.562 98.5205C859.628 92.0861 858.056 85.8129 856 79.6455C844.45 79.6455 832.9 79.6455 821 79.6455C820.67 81.9555 820.34 84.2655 820 86.6455C819.504 88.1817 818.967 89.706 818.375 91.208C817.048 95.1502 816.351 97.6527 818 101.646C820.007 103.53 822.064 105.209 824.285 106.837C826 108.646 826 108.646 826.434 111.235C826.291 112.031 826.147 112.826 826 113.646C822.357 116.074 819.623 115.952 815.41 115.946C814.669 115.951 813.928 115.955 813.165 115.959C811.599 115.965 810.033 115.966 808.467 115.961C806.075 115.958 803.683 115.981 801.291 116.007C799.768 116.009 798.245 116.01 796.723 116.009C795.652 116.023 795.652 116.023 794.56 116.037C791.523 116.008 789.263 115.774 786.517 114.435C785 112.646 785 112.646 784.444 110.195C785.227 106.607 786.916 105.932 789.902 103.853C799.148 96.3682 801.817 84.1586 805.562 73.333C806.384 71.0298 807.209 68.7276 808.036 66.4263C810.035 60.8421 811.997 55.2457 813.948 49.6448C815.173 46.1532 816.426 42.673 817.689 39.1953C818.889 35.8916 820.07 32.5813 821.25 29.2705C821.662 28.128 822.074 26.9855 822.498 25.8083C822.855 24.7775 823.211 23.7467 823.578 22.6846C823.881 21.8204 824.185 20.9563 824.497 20.0659C825.088 17.2224 824.858 15.4093 824 12.6455C823.278 11.8411 822.556 11.0368 821.812 10.208C821.214 9.36238 820.616 8.51676 820 7.64551C820.562 4.39551 820.562 4.39551 822 1.64551C826.842 0.0314649 831.805 0.460987 836.875 0.458008ZM837 32.6455C835.585 36.3591 834.179 40.0762 832.782 43.7966C832.074 45.6772 831.358 47.5549 830.643 49.4326C830.195 50.6282 829.747 51.8238 829.285 53.0557C828.871 54.1502 828.458 55.2447 828.031 56.3723C826.952 59.7984 826.412 63.0824 826 66.6455C828.854 66.6727 831.708 66.6924 834.562 66.708C835.762 66.7206 835.762 66.7206 836.986 66.7334C841.772 66.7529 846.281 66.4499 851 65.6455C848.639 58.378 846.014 51.2305 843.312 44.083C842.897 42.9789 842.481 41.8748 842.053 40.7373C841.037 38.0395 840.019 35.3422 839 32.6455C838.34 32.6455 837.68 32.6455 837 32.6455Z" fill="#432817"/>
<path d="M408.465 0.282197C409.512 0.282841 410.56 0.283486 411.639 0.28415C413.272 0.30832 413.272 0.30832 414.938 0.332978C416.565 0.328144 416.565 0.328144 418.225 0.323212C428.497 0.392665 428.497 0.392665 432 2.64548C433.714 5.50196 434.847 8.52777 436 11.6455C436.3 12.4289 436.6 13.2123 436.909 14.0194C437.849 16.5177 438.754 19.0264 439.652 21.54C439.989 22.4739 440.326 23.4078 440.673 24.37C441.392 26.366 442.11 28.3626 442.826 30.3596C443.95 33.4933 445.079 36.6251 446.21 39.7566C449.476 48.8113 452.73 57.8702 455.947 66.9427C457.124 70.2601 458.306 73.5756 459.489 76.8909C460.295 79.1589 461.092 81.43 461.888 83.7014C462.38 85.0801 462.871 86.4586 463.363 87.8369C463.779 89.0145 464.194 90.1922 464.622 91.4055C466.764 96.4422 469.289 100.443 473.75 103.645C476.928 106.238 476.928 106.238 477.563 109.833C477 112.645 477 112.645 475 115.645C471.913 115.925 469.028 116.017 465.941 115.974C464.591 115.971 464.591 115.971 463.214 115.968C461.308 115.961 459.402 115.947 457.497 115.927C454.578 115.896 451.659 115.886 448.74 115.88C446.891 115.871 445.041 115.86 443.191 115.849C442.316 115.844 441.441 115.84 440.54 115.836C439.726 115.826 438.911 115.817 438.073 115.807C437.357 115.8 436.641 115.793 435.904 115.786C434 115.645 434 115.645 431 114.645C430.583 111.241 430.29 108.673 432.301 105.763C433.367 104.587 434.463 103.438 435.59 102.321C437.285 100.307 437.776 99.2747 438 96.6455C437.248 93.4733 437.248 93.4733 436.063 90.1455C434.763 86.3053 434 83.7329 434 79.6455C422.45 79.6455 410.9 79.6455 399 79.6455C395.644 89.7771 395.644 89.7771 395.563 100.27C396.977 102.926 396.977 102.926 400.125 105.083C403 107.645 403 107.645 403.5 110.833C403 113.645 403 113.645 401 115.645C398.76 115.888 398.76 115.888 395.977 115.876C394.96 115.875 393.944 115.874 392.897 115.873C391.817 115.859 390.737 115.846 389.625 115.833C388.537 115.825 387.449 115.817 386.328 115.809C369.467 115.63 369.467 115.63 365 114.645C363.488 111.621 363.418 110.006 364 106.645C365.841 104.988 367.741 103.713 369.859 102.431C375.014 98.1321 377.122 91.13 379.32 84.9775C379.621 84.1524 379.921 83.3274 380.231 82.4773C381.202 79.8064 382.164 77.1323 383.125 74.458C383.794 72.6115 384.464 70.7653 385.134 68.9192C387.099 63.4981 389.052 58.0727 391 52.6455C391.276 51.8756 391.553 51.1058 391.838 50.3126C394.593 42.6327 397.342 34.9504 400.053 27.2544C400.922 24.8593 401.868 22.5089 402.828 20.1494C403.991 16.6712 404.198 15.8913 403 12.6455C402.319 12.0061 401.639 11.3667 400.938 10.708C399 8.64548 399 8.64548 398.5 6.08298C399 3.64548 399 3.64548 400.69 2.01584C403.498 0.350229 405.216 0.272029 408.465 0.282197ZM415 32.6455C412.652 38.64 410.319 44.6398 408 50.6455C407.553 51.8018 407.105 52.9581 406.645 54.1494C406.287 55.0968 405.93 56.0443 405.563 57.0205C405.254 57.8326 404.946 58.6447 404.629 59.4814C403.814 61.9101 403.814 61.9101 404 65.6455C412.147 66.3432 419.883 66.9271 428 65.6455C426.559 58.1176 424.13 51.2243 421.375 44.083C420.955 42.9789 420.535 41.8748 420.102 40.7373C419.073 38.0378 418.039 35.3407 417 32.6455C416.34 32.6455 415.68 32.6455 415 32.6455Z" fill="#472A18"/>
<path d="M163.762 0.512695C164.716 0.511406 165.671 0.510117 166.654 0.508789C167.655 0.512656 168.656 0.516523 169.688 0.520508C170.669 0.516641 171.651 0.512773 172.662 0.508789C186.562 0.527434 186.562 0.527434 189.554 2.85399C191.379 5.11503 192.151 7.24528 193.11 9.9895C193.498 11.0866 193.885 12.1837 194.285 13.314C194.698 14.5075 195.11 15.701 195.535 16.9307C196.206 18.8334 196.876 20.7362 197.546 22.6389C198.489 25.3195 199.423 28.0028 200.358 30.6862C205.854 46.4568 211.366 62.2202 217.309 77.8291C217.885 79.3592 217.885 79.3592 218.473 80.9202C220.906 87.2367 223.715 93.2417 226.852 99.2406C228 101.646 228 101.646 228 103.646C228.784 103.934 229.567 104.223 230.375 104.521C233 105.646 233 105.646 235 107.646C235.125 111.271 235.125 111.271 235 114.646C232.726 115.783 231.474 115.772 228.949 115.775C228.115 115.778 227.281 115.781 226.421 115.784C225.068 115.781 225.068 115.781 223.688 115.778C222.763 115.779 221.838 115.78 220.885 115.781C218.929 115.782 216.972 115.78 215.015 115.776C212.012 115.771 209.01 115.776 206.008 115.782C204.109 115.782 202.211 115.78 200.312 115.778C199.41 115.78 198.508 115.782 197.579 115.784C196.745 115.781 195.91 115.778 195.051 115.775C194.315 115.774 193.579 115.773 192.822 115.772C191 115.646 191 115.646 189 114.646C188.688 111.396 188.688 111.396 189 107.646C191.375 105.583 191.375 105.583 194 103.646C196.317 99.04 195.976 96.1685 194.447 91.4795C194.197 90.7712 193.946 90.0628 193.688 89.333C193.448 88.6053 193.209 87.8777 192.963 87.1279C191.975 83.6117 191.975 83.6117 190 80.6455C187.481 80.4856 184.987 80.3862 182.465 80.3291C181.335 80.2979 181.335 80.2979 180.182 80.2661C177.767 80.2006 175.353 80.1417 172.938 80.083C171.304 80.0398 169.671 79.9962 168.037 79.9521C164.025 79.8449 160.012 79.7436 156 79.6455C155.869 80.2524 155.739 80.8593 155.604 81.4846C155.429 82.2867 155.254 83.0887 155.074 83.915C154.902 84.7076 154.731 85.5001 154.553 86.3167C154.071 88.3478 153.452 90.3458 152.812 92.333C151.895 96.0756 151.66 98.0209 153 101.646C154.727 103.022 156.538 104.169 158.398 105.356C160 106.646 160 106.646 161.125 109.771C161 112.646 161 112.646 159.939 114.302C156.973 116.357 154.419 116.017 150.848 116.009C150.151 116.009 149.455 116.01 148.737 116.01C147.265 116.008 145.793 115.998 144.322 115.982C142.074 115.958 139.828 115.961 137.58 115.968C125.582 115.921 125.582 115.921 122 113.646C121.562 110.521 121.562 110.521 122 106.646C123.646 105.269 125.301 103.901 127.009 102.602C134.265 95.4728 137.809 82.4246 141.125 73.083C141.581 71.8145 142.037 70.5462 142.493 69.2781C143.474 66.5493 144.447 63.8183 145.417 61.0859C146.822 57.1353 148.249 53.1931 149.679 49.2519C150.894 45.8965 152.099 42.5374 153.301 39.1773C153.888 37.5417 154.479 35.9072 155.073 34.2741C155.907 31.9758 156.727 29.6728 157.543 27.3682C157.917 26.3512 157.917 26.3512 158.299 25.3136C159.818 20.9662 160.413 17.2407 160 12.6455C158.979 11.6555 158.979 11.6555 157.938 10.6455C157.298 9.98551 156.659 9.32551 156 8.64551C156.125 4.95801 156.125 4.95801 157 1.64551C159.44 0.425294 161.036 0.516243 163.762 0.512695ZM172 32.6455C170.587 36.3782 169.182 40.1136 167.782 43.8516C167.306 45.1209 166.828 46.3894 166.348 47.6572C165.655 49.4873 164.97 51.3203 164.285 53.1533C163.871 54.2531 163.458 55.3528 163.031 56.4858C161.776 60.0628 161.776 60.0628 161 65.6455C169.25 65.6455 177.5 65.6455 186 65.6455C183.815 58.3634 181.55 51.2307 179 44.083C178.657 43.0872 178.314 42.0914 177.961 41.0654C177.623 40.1212 177.285 39.177 176.938 38.2041C176.487 36.9249 176.487 36.9249 176.027 35.6199C175.109 33.2953 175.109 33.2953 172 32.6455Z" fill="#452817"/>
<path d="M610.121 0.367676C611.376 0.373748 611.376 0.373748 612.656 0.379944C613.514 0.37803 614.372 0.376117 615.256 0.374146C617.072 0.372783 618.888 0.376482 620.704 0.384827C623.489 0.395526 626.273 0.384932 629.059 0.372131C630.82 0.373453 632.582 0.376015 634.344 0.379944C635.18 0.375895 636.017 0.371847 636.879 0.367676C642.77 0.415651 642.77 0.415651 645 2.64557C645.438 6.02057 645.438 6.02057 645 9.64557C642.625 11.7081 642.625 11.7081 640 13.6456C638.055 18.1578 637.747 22.0962 637.741 26.9769C637.738 27.6851 637.734 28.3932 637.731 29.1229C637.722 31.4496 637.728 33.7759 637.734 36.1026C637.733 37.7316 637.731 39.3605 637.729 40.9895C637.726 44.3997 637.73 47.8098 637.739 51.22C637.751 55.5708 637.744 59.9213 637.732 64.2721C637.725 67.636 637.727 70.9999 637.732 74.3638C637.734 75.9669 637.732 77.5699 637.727 79.1729C637.605 91.065 637.605 91.065 640 102.646C641.433 104.145 641.433 104.145 643.125 105.396C646 107.646 646 107.646 646.625 110.271C646 112.646 646 112.646 644.455 114.271C641.05 116.177 637.892 116.057 634.094 116.009C633.332 116.009 632.57 116.01 631.786 116.01C630.178 116.008 628.571 115.998 626.964 115.982C624.508 115.958 622.054 115.961 619.598 115.968C618.034 115.962 616.47 115.955 614.906 115.946C614.174 115.947 613.441 115.948 612.687 115.949C608.973 115.898 606.156 115.702 603 113.646C602.688 110.958 602.688 110.958 603 107.646C605.375 104.958 605.375 104.958 608 102.646C610.467 98.9455 610.317 96.0822 610.338 91.7969C610.355 90.5988 610.355 90.5988 610.373 89.3765C610.407 86.7318 610.426 84.0873 610.441 81.4424C610.448 80.5382 610.455 79.634 610.462 78.7024C610.498 73.9157 610.522 69.1291 610.535 64.3423C610.552 59.4045 610.61 54.468 610.679 49.5306C610.723 45.7284 610.737 41.9265 610.742 38.124C610.75 36.3043 610.77 34.4847 610.801 32.6652C611.316 22.9889 611.316 22.9889 608.428 14.0668C606.606 12.1955 606.606 12.1955 604.609 10.8905C603 9.64557 603 9.64557 601.938 5.83307C602.052 -0.0225525 605.026 0.40917 610.121 0.367676Z" fill="#432717"/>
<path d="M288.938 66.333C289.792 66.2956 290.647 66.2582 291.527 66.2197C294.914 66.8029 295.768 68.0322 298 70.6455C299.48 73.1227 300.723 75.6966 301.969 78.2979C302.331 79.035 302.693 79.7721 303.066 80.5316C304.219 82.8784 305.36 85.2301 306.5 87.583C307.64 89.932 308.783 92.2796 309.934 94.6237C310.648 96.0787 311.356 97.5367 312.057 98.9978C315.474 106.035 315.474 106.035 321.378 110.946C324.346 111.738 326.885 111.872 329.957 111.841C331.069 111.834 332.181 111.828 333.326 111.821C334.477 111.805 335.627 111.788 336.812 111.771C338.567 111.757 338.567 111.757 340.357 111.743C343.238 111.72 346.119 111.687 349 111.646C349 110.986 349 110.326 349 109.646C348.423 109.377 347.845 109.109 347.25 108.833C344.967 107.628 343.026 106.238 341 104.646C341.495 103.656 341.495 103.656 342 102.646C343.48 103.289 344.959 103.935 346.438 104.583C347.261 104.943 348.085 105.302 348.934 105.673C351 106.646 351 106.646 352 107.646C352.188 110.583 352.188 110.583 352 113.646C348.826 116.819 345.254 115.941 340.924 115.968C339.136 115.963 339.136 115.963 337.312 115.958C336.14 115.974 334.968 115.99 333.76 116.007C322.41 116.013 322.41 116.013 317 112.646C313.014 108.346 310.419 103.993 307.898 98.7275C307.535 97.9885 307.172 97.2494 306.798 96.488C305.649 94.1484 304.511 91.8038 303.375 89.458C302.231 87.1019 301.085 84.7471 299.931 82.3959C299.216 80.9387 298.506 79.4786 297.804 78.0153C295.608 73.2655 295.608 73.2655 292 69.6455C289.728 69.0723 289.728 69.0723 287.312 68.958C286.504 68.8923 285.696 68.8265 284.863 68.7588C284.248 68.7214 283.634 68.684 283 68.6455C283.081 73.1879 283.194 77.729 283.312 82.2705C283.346 84.1983 283.346 84.1983 283.381 86.165C283.416 87.409 283.452 88.6529 283.488 89.9346C283.514 91.0762 283.541 92.2178 283.568 93.394C284.228 98.3585 286.245 102.172 289.75 105.708C292 108.646 292 108.646 292 111.396C291 113.646 291 113.646 288 115.646C285.277 115.841 282.66 115.926 279.938 115.911C278.756 115.914 278.756 115.914 277.551 115.917C275.886 115.918 274.222 115.915 272.558 115.906C270.01 115.896 267.462 115.906 264.914 115.919C263.297 115.918 261.68 115.915 260.062 115.911C259.3 115.915 258.537 115.919 257.752 115.923C253.965 115.89 252.229 115.798 249 113.646C248.5 110.833 248.5 110.833 249 107.646C251.5 104.771 251.5 104.771 254 102.646C254.33 103.636 254.66 104.626 255 105.646C254.01 107.626 253.02 109.606 252 111.646C263.88 111.646 275.76 111.646 288 111.646C287.67 109.996 287.34 108.346 287 106.646C285.067 105.554 285.067 105.554 283 104.646C280.468 101.056 280.743 97.2515 280.805 93.0361C280.808 92.3093 280.81 91.5825 280.813 90.8337C280.824 88.5208 280.85 86.2083 280.875 83.8955C280.885 82.3239 280.894 80.7523 280.902 79.1807C280.924 75.3355 280.959 71.4906 281 67.6455C283.868 66.6894 285.942 66.4186 288.938 66.333Z" fill="#362216"/>
<path d="M611 16.6455C611.99 16.9755 612.98 17.3055 614 17.6455C614.093 28.2333 614.164 38.821 614.207 49.409C614.228 54.3257 614.256 59.2422 614.302 64.1587C614.345 68.9049 614.369 73.6509 614.38 78.3973C614.387 80.2066 614.401 82.0159 614.423 83.8251C614.452 86.3627 614.456 88.8992 614.454 91.437C614.476 92.5548 614.476 92.5548 614.498 93.6952C614.448 100.012 612.106 103.479 607.812 107.896C607.214 108.473 606.616 109.051 606 109.646C605.505 110.636 605.505 110.636 605 111.646C616.88 111.316 628.76 110.986 641 110.646C641.66 109.326 642.32 108.006 643 106.646C641.68 106.316 640.36 105.986 639 105.646C639 104.986 639 104.326 639 103.646C642.231 104.203 644.066 104.938 646 107.646C646.438 110.146 646.438 110.146 646 112.646C643.52 115.288 642.042 115.641 638.396 116.018C636.962 116.031 635.528 116.027 634.094 116.009C633.332 116.009 632.57 116.01 631.786 116.01C630.178 116.008 628.571 115.998 626.964 115.982C624.508 115.958 622.054 115.961 619.598 115.968C618.034 115.962 616.47 115.955 614.906 115.946C614.174 115.947 613.441 115.948 612.687 115.949C608.973 115.898 606.156 115.702 603 113.646C602.688 110.958 602.688 110.958 603 107.646C605.375 104.958 605.375 104.958 608 102.646C610.485 98.9176 610.307 96.0037 610.319 91.6858C610.329 90.8758 610.339 90.0658 610.349 89.2313C610.38 86.553 610.397 83.8747 610.414 81.1963C610.433 79.3397 610.452 77.4831 610.473 75.6265C610.524 70.739 610.564 65.8515 610.601 60.9639C610.641 55.9768 610.692 50.9899 610.742 46.0029C610.839 36.2172 610.923 26.4314 611 16.6455Z" fill="#2C180E"/>
<path d="M163.859 0.317362C164.811 0.322519 165.762 0.327675 166.742 0.332987C168.231 0.363925 168.231 0.363925 169.75 0.395487C170.727 0.400644 171.704 0.4058 172.711 0.411112C186.604 0.560904 186.604 0.560905 189.555 2.85348C191.379 5.11484 192.152 7.24534 193.11 9.98948C193.498 11.0866 193.885 12.1836 194.285 13.314C194.698 14.5075 195.11 15.701 195.535 16.9306C196.206 18.8334 196.876 20.7362 197.546 22.6389C198.489 25.3195 199.423 28.0028 200.358 30.6861C202.406 36.5632 204.468 42.4352 206.535 48.3056C206.761 48.947 206.986 49.5883 207.219 50.249C210.497 59.5541 213.895 68.8065 217.434 78.0166C217.835 79.0618 218.236 80.107 218.649 81.1838C220.71 86.4967 222.875 91.7256 225.286 96.8903C226 98.6455 226 98.6455 226 100.645C224.138 100.431 224.138 100.431 222 99.6455C220.819 97.7622 220.819 97.7622 219.789 95.0752C219.155 93.4369 219.155 93.4369 218.509 91.7656C218.003 90.3931 217.501 89.0196 217 87.6455C216.698 86.825 216.396 86.0046 216.085 85.1593C213.877 79.1437 211.711 73.1138 209.556 67.0789C207.563 61.496 205.56 55.9167 203.559 50.3369C203.166 49.2408 202.773 48.1446 202.368 47.0153C197.926 34.6338 193.397 22.285 188.838 9.94651C188.198 8.18916 187.591 6.41969 187 4.64549C178.09 4.31549 169.18 3.98549 160 3.64549C160.66 6.61549 161.32 9.58549 162 12.6455C159.525 11.6555 159.525 11.6555 157 10.6455C156.312 7.33299 156.312 7.33299 156 3.64549C158.196 0.454263 160.123 0.276828 163.859 0.317362Z" fill="#362216"/>
<path d="M69 57.6455C71.9374 60.4179 74.1807 63.2114 76.3555 66.6104C76.9737 67.5696 77.5918 68.5288 78.2288 69.5171C78.8751 70.5288 79.5215 71.5406 80.1875 72.583C81.5328 74.6631 82.8791 76.7426 84.2266 78.8213C84.8753 79.8237 85.524 80.8261 86.1924 81.8589C88.4557 85.3481 90.7311 88.8264 93.0625 92.2705C93.6929 93.2115 94.3232 94.1525 94.9727 95.1221C98.3854 99.3699 102.209 102.584 107.312 104.646C110.848 106.325 110.848 106.325 112.188 109.146C111.94 112.443 111.472 113.414 109 115.646C105.881 116.246 102.792 116.157 99.625 116.106C98.7041 116.106 97.7833 116.105 96.8345 116.104C94.8876 116.098 92.9408 116.082 90.9941 116.057C88.0114 116.021 85.0298 116.016 82.0469 116.017C80.1562 116.007 78.2656 115.995 76.375 115.981C75.4812 115.979 74.5874 115.977 73.6665 115.975C72.8355 115.962 72.0046 115.949 71.1484 115.936C70.0528 115.925 70.0528 115.925 68.9351 115.913C67 115.646 67 115.646 64 113.646C63.8125 110.521 63.8125 110.521 64 107.646C64.4103 108.132 64.8207 108.618 65.2435 109.118C67.3735 110.97 68.3211 111.035 71.1042 111.078C71.9249 111.098 72.7455 111.117 73.591 111.138C74.4723 111.144 75.3537 111.151 76.2617 111.157C77.1675 111.175 78.0733 111.193 79.0065 111.212C81.9002 111.266 84.7936 111.3 87.6875 111.333C89.6491 111.366 91.6107 111.401 93.5723 111.437C98.3814 111.522 103.19 111.588 108 111.646C108 110.326 108 109.006 108 107.646C107.175 107.604 106.35 107.563 105.5 107.521C95.2655 104.962 90.2967 95.8674 84.9375 87.5205C84.1672 86.3478 83.3958 85.1759 82.623 84.0049C80.3734 80.5777 78.1721 77.1223 76 73.6455C75.6467 73.0803 75.2935 72.5151 74.9295 71.9327C73.9213 70.3054 72.931 68.6671 71.9414 67.0283C71.3724 66.0862 70.8033 65.144 70.217 64.1733C69 61.6455 69 61.6455 69 57.6455Z" fill="#362216"/>
<path d="M162.625 76.2705C163.772 76.304 164.92 76.3376 166.102 76.3721C169 76.6455 169 76.6455 171 77.6455C171 78.3055 171 78.9655 171 79.6455C166.05 79.6455 161.1 79.6455 156 79.6455C155.711 80.9862 155.423 82.3268 155.125 83.708C154.48 86.6665 153.744 89.4418 152.812 92.333C151.895 96.0756 151.66 98.021 153 101.646C154.727 103.022 156.538 104.17 158.398 105.356C160 106.646 160 106.646 161.125 109.771C161 112.646 161 112.646 159.939 114.303C156.973 116.357 154.419 116.017 150.848 116.009C150.151 116.009 149.455 116.01 148.737 116.01C147.265 116.008 145.793 115.998 144.322 115.982C142.074 115.958 139.828 115.961 137.58 115.968C125.582 115.921 125.582 115.921 122 113.646C121.562 110.521 121.562 110.521 122 106.646C123.634 105.278 125.278 103.921 126.984 102.646C132.424 97.2483 135.276 88.6736 138 81.6455C138.66 81.9755 139.32 82.3055 140 82.6455C139.635 90.6729 135.825 99.088 130.25 104.896C128 106.646 128 106.646 126 106.646C126 107.966 126 109.286 126 110.646C136.033 111.442 145.936 111.774 156 111.646C156.33 110.326 156.66 109.006 157 107.646C155.855 107.243 155.855 107.243 154.688 106.833C152.013 105.651 150.683 105.002 149 102.646C147.729 97.7427 148.34 93.8633 149.688 89.083C149.849 88.4366 150.011 87.7901 150.178 87.124C152.222 79.5977 154.532 75.9234 162.625 76.2705Z" fill="#362216"/>
<path d="M37 68.6455C37.66 68.9755 38.32 69.3055 39 69.6455C38.5256 70.3055 38.0513 70.9655 37.5625 71.6455C34.4236 77.6722 34.816 84.6836 35.125 91.333C35.1353 92.0658 35.1456 92.7987 35.1562 93.5537C35.3451 97.5811 35.8321 99.4441 38.4414 102.575C39.8937 103.75 41.3488 104.922 42.8125 106.083C44.7084 108.578 44.3847 110.632 44 113.646C40.1478 116.214 36.9652 115.934 32.5 115.911C31.6679 115.913 30.8358 115.915 29.9785 115.917C28.22 115.918 26.4616 115.915 24.7031 115.906C22.0102 115.896 19.3179 115.906 16.625 115.919C14.9167 115.918 13.2083 115.915 11.5 115.911C10.6937 115.915 9.88738 115.919 9.05664 115.923C5.18525 115.891 3.29534 115.842 0 113.646C0.33 111.336 0.66 109.026 1 106.646C1.66 106.976 2.32 107.306 3 107.646C3.33 108.636 3.66 109.626 4 110.646C8.21134 111.669 12.1619 111.76 16.4883 111.743C17.5431 111.741 17.5431 111.741 18.6192 111.739C20.8503 111.733 23.0814 111.721 25.3125 111.708C26.8314 111.703 28.3503 111.698 29.8691 111.694C33.5795 111.683 37.2897 111.666 41 111.646C40.4341 110.947 39.8682 110.248 39.2852 109.528C38.5517 108.618 37.8182 107.708 37.0625 106.771C36.3316 105.866 35.6007 104.961 34.8477 104.028C30.7106 98.693 31.6989 92.803 31.625 86.2705C31.5689 84.4027 31.5689 84.4027 31.5117 82.4971C31.5001 81.3008 31.4885 80.1046 31.4766 78.8721C31.4567 77.7746 31.4369 76.6771 31.4165 75.5464C32 72.6455 32 72.6455 34.5327 70.2563C35.3469 69.7248 36.1611 69.1932 37 68.6455Z" fill="#362216"/>
<path d="M5 12.6455C7.375 12.458 7.375 12.458 10 12.6455C13.4088 17.7586 13.1259 23.5194 13.1611 29.5237C13.1661 30.1719 13.1711 30.8201 13.1762 31.4879C13.1907 33.6095 13.1976 35.731 13.2031 37.8525C13.206 38.5839 13.2088 39.3152 13.2117 40.0686C13.2266 43.9381 13.2359 47.8075 13.2402 51.677C13.2457 55.6477 13.2697 59.618 13.2982 63.5886C13.3169 66.666 13.322 69.7434 13.3236 72.8209C13.3266 74.2836 13.3345 75.7462 13.3478 77.2088C13.417 85.4519 13.0533 92.8839 10 100.646C9.34 100.316 8.68 99.9855 8 99.6455C8.07074 98.7682 8.14147 97.8909 8.21436 96.9871C9.03651 85.6077 9.15341 74.2707 9.13037 62.8645C9.12501 59.7166 9.13035 56.5688 9.13672 53.4209C9.14158 44.2418 9.0913 35.0627 8.67969 25.8916C8.62281 24.5773 8.56593 23.263 8.50732 21.9089C7.97869 18.5085 7.21346 17.1849 5 14.6455C5 13.9855 5 13.3255 5 12.6455Z" fill="#2C180E"/>
<path d="M495 103.646C496.097 106.935 495.8 108.359 495 111.646C500.473 111.671 505.946 111.689 511.418 111.7C513.27 111.705 515.122 111.712 516.974 111.721C526.944 111.767 536.898 111.703 546.859 111.267C547.662 111.236 548.465 111.205 549.292 111.174C553.125 110.981 556.614 110.562 560.321 109.544C563.802 108.694 564.792 108.637 568 109.646C558.16 116.012 547.628 115.811 536.293 115.884C535.091 115.892 533.888 115.9 532.65 115.908C530.121 115.922 527.592 115.933 525.063 115.941C522.47 115.952 519.878 115.973 517.285 116.002C513.538 116.045 509.791 116.061 506.043 116.071C504.881 116.089 503.718 116.106 502.52 116.124C500.908 116.12 500.908 116.12 499.262 116.115C498.316 116.121 497.37 116.127 496.395 116.133C494 115.646 494 115.646 492.163 113.811C491 111.646 491 111.646 491.125 108.521C492 105.646 492 105.646 495 103.646Z" fill="#362216"/>
<path d="M669 10.6455C672.8 11.1884 674.539 12.7602 677 15.6455C678.157 19.1178 678.127 21.8203 678.129 25.4844C678.131 26.1758 678.133 26.8673 678.135 27.5797C678.139 29.8673 678.136 32.1548 678.133 34.4424C678.133 36.0356 678.134 37.6288 678.136 39.222C678.137 42.5643 678.135 45.9067 678.13 49.249C678.125 53.5204 678.128 57.7917 678.134 62.0631C678.138 65.3558 678.136 68.6484 678.134 71.9411C678.133 73.515 678.134 75.089 678.136 76.663C678.139 78.8717 678.135 81.0803 678.129 83.2891C678.129 84.5435 678.128 85.798 678.127 87.0905C677.999 90.6732 677.572 94.1088 677 97.6455C676.34 97.6455 675.68 97.6455 675 97.6455C674.999 96.6544 674.997 95.6632 674.996 94.642C674.979 85.2986 674.936 75.9556 674.868 66.6125C674.834 61.809 674.809 57.0059 674.804 52.2024C674.8 47.5661 674.772 42.9305 674.727 38.2945C674.714 36.5263 674.709 34.758 674.714 32.9898C674.719 30.5114 674.693 28.0351 674.659 25.5569C674.668 24.8268 674.677 24.0967 674.686 23.3445C674.596 19.3399 674.158 17.8236 671.459 14.776C670.647 14.073 669.836 13.3699 669 12.6455C669 11.9855 669 11.3255 669 10.6455Z" fill="#2C180E"/>
<path d="M228 103.646C230.915 104.72 232.778 105.424 235 107.646C235.125 111.271 235.125 111.271 235 114.646C232.726 115.783 231.474 115.772 228.949 115.775C227.698 115.78 227.698 115.78 226.421 115.784C225.519 115.782 224.617 115.78 223.688 115.778C222.763 115.779 221.838 115.78 220.885 115.781C218.929 115.782 216.972 115.78 215.015 115.776C212.012 115.771 209.01 115.776 206.008 115.782C204.109 115.782 202.211 115.78 200.312 115.778C199.41 115.78 198.508 115.782 197.579 115.784C196.745 115.781 195.91 115.778 195.051 115.775C193.947 115.774 193.947 115.774 192.822 115.772C191 115.646 191 115.646 189 114.646C189 112.336 189 110.026 189 107.646C189.618 108.375 189.618 108.375 190.249 109.118C192.353 110.954 193.262 111.034 196.012 111.078C196.813 111.098 197.614 111.117 198.439 111.138C199.728 111.147 199.728 111.147 201.043 111.157C201.927 111.175 202.81 111.193 203.721 111.212C206.543 111.266 209.365 111.3 212.188 111.333C214.101 111.366 216.014 111.401 217.928 111.437C222.618 111.522 227.309 111.588 232 111.646C230.68 109.006 229.36 106.366 228 103.646Z" fill="#362216"/>
<path d="M499 16.6455C499.99 16.9755 500.98 17.3055 502 17.6455C503.193 24.3747 503.276 31.0899 503.422 37.9111C503.45 39.1815 503.478 40.4518 503.506 41.7607C503.563 44.4368 503.617 47.1129 503.667 49.7891C503.734 53.2181 503.818 56.6465 503.907 60.075C503.988 63.3535 504.047 66.6323 504.109 69.9111C504.144 71.1424 504.178 72.3736 504.213 73.6422C504.23 74.7805 504.247 75.9189 504.265 77.0918C504.286 78.0944 504.307 79.097 504.33 80.1299C503.95 83.0275 503.269 83.8822 501 85.6455C499.89 82.315 499.841 79.7561 499.795 76.2463C499.785 75.6022 499.775 74.958 499.765 74.2943C499.733 72.1679 499.708 70.0415 499.684 67.915C499.663 66.4396 499.642 64.9641 499.621 63.4887C499.565 59.6073 499.516 55.7259 499.468 51.8444C499.418 47.8829 499.362 43.9214 499.307 39.96C499.199 32.1885 499.098 24.4171 499 16.6455Z" fill="#2E190E"/>
<path d="M431 107.646C431.66 107.646 432.32 107.646 433 107.646C433.33 108.966 433.66 110.286 434 111.646C447.86 111.646 461.72 111.646 476 111.646C475.67 112.966 475.34 114.286 475 115.646C469.216 115.67 463.432 115.688 457.648 115.7C455.68 115.705 453.712 115.712 451.743 115.721C448.916 115.733 446.089 115.739 443.262 115.743C441.94 115.751 441.94 115.751 440.591 115.759C439.77 115.759 438.95 115.759 438.104 115.759C437.022 115.762 437.022 115.762 435.917 115.766C434 115.646 434 115.646 431 114.646C431 112.336 431 110.026 431 107.646Z" fill="#2C180E"/>
<path d="M45.9246 60.7751C48.9043 62.0247 49.6324 63.7792 51.207 66.5713C51.7942 67.5967 52.3814 68.6222 52.9863 69.6787C53.589 70.7609 54.1916 71.843 54.8125 72.958C55.4035 73.9976 55.9946 75.0372 56.6035 76.1084C57.8012 78.215 58.992 80.3256 60.176 82.4399C62.5891 86.6808 65.1256 90.8448 67.6787 95.0027C69.5903 98.8263 69.5635 101.46 69 105.645C68.34 105.645 67.68 105.645 67 105.645C66.7426 104.621 66.4852 103.597 66.22 102.542C65.1418 98.7826 63.4933 95.6668 61.4805 92.3017C61.14 91.729 60.7996 91.1562 60.4488 90.566C59.7322 89.3639 59.0119 88.164 58.2878 86.9663C57.1931 85.1547 56.1102 83.3364 55.0293 81.5166C51.5707 75.7222 48.0458 70.0505 44 64.6455C43.01 64.9755 42.02 65.3055 41 65.6455C41.375 63.708 41.375 63.708 42 61.6455C44 60.6455 44 60.6455 45.9246 60.7751Z" fill="#362216"/>
<path d="M749 23.6455C749.99 23.6455 750.98 23.6455 752 23.6455C752.051 30.872 752.086 38.0985 752.11 45.3252C752.12 47.7852 752.134 50.2451 752.151 52.7051C752.175 56.2347 752.186 59.7642 752.195 63.2939C752.206 64.3992 752.216 65.5044 752.227 66.6432C752.227 67.6641 752.227 68.685 752.227 69.7368C752.232 70.6384 752.236 71.54 752.241 72.4688C752 74.6455 752 74.6455 750 76.6455C749.109 73.5892 748.878 70.8721 748.887 67.6934C748.887 66.7126 748.887 65.7319 748.887 64.7215C748.892 63.6703 748.897 62.6192 748.902 61.5361C748.904 60.4542 748.905 59.3722 748.907 58.2575C748.912 54.8035 748.925 51.3495 748.938 47.8955C748.943 45.5531 748.947 43.2106 748.951 40.8682C748.962 35.1273 748.979 29.3864 749 23.6455Z" fill="#321B10"/>
<path d="M765 84.6455C765.66 84.6455 766.32 84.6455 767 84.6455C767.116 88.8953 767.187 93.1446 767.25 97.3955C767.3 99.2054 767.3 99.2054 767.352 101.052C767.364 102.212 767.377 103.372 767.391 104.567C767.412 105.636 767.433 106.704 767.454 107.805C766.891 111.329 765.756 112.458 763 114.646C757.983 116.523 751.959 116.285 746.938 114.646C746.298 114.316 745.659 113.986 745 113.646C748.561 112.459 751.973 112.295 755.688 112.083C756.389 112.04 757.091 111.997 757.814 111.952C759.543 111.846 761.271 111.745 763 111.646C763.025 110.899 763.05 110.152 763.076 109.382C763.192 106.012 763.315 102.641 763.438 99.2705C763.477 98.0949 763.516 96.9193 763.557 95.708C763.599 94.5865 763.64 93.465 763.684 92.3096C763.72 91.2727 763.757 90.2358 763.795 89.1675C764 86.6455 764 86.6455 765 84.6455Z" fill="#2D180E"/>
<path d="M175 76.6454C177.605 76.5644 180.207 76.5049 182.812 76.4579C183.55 76.4327 184.288 76.4076 185.049 76.3817C190.441 76.3085 190.441 76.3085 192.879 77.7782C196.988 84.6213 199.464 94.6366 199 102.645C197 105.645 197 105.645 193.875 106.333C192.926 106.436 191.978 106.539 191 106.645C191.639 105.903 192.279 105.16 192.938 104.395C194.871 101.818 195.539 100.715 196 97.6454C195.301 94.8417 194.538 92.1886 193.625 89.4579C193.39 88.7212 193.156 87.9845 192.914 87.2254C191.967 83.655 191.967 83.655 190 80.6454C187.308 80.4086 184.635 80.2234 181.938 80.0829C181.179 80.0397 180.42 79.9965 179.639 79.952C177.759 79.8456 175.88 79.745 174 79.6454C174.33 78.6554 174.66 77.6654 175 76.6454Z" fill="#362216"/>
<path d="M397 103.646C399.468 104.797 401.048 105.693 403 107.646C403.25 110.646 403.25 110.646 403 113.646C401 115.646 401 115.646 398.729 115.888C397.331 115.882 397.331 115.882 395.906 115.876C394.875 115.874 393.844 115.872 392.781 115.87C391.698 115.858 390.616 115.846 389.5 115.833C388.448 115.832 387.396 115.832 386.312 115.831C379.82 115.795 373.446 115.428 367 114.646C367 113.986 367 113.326 367 112.646C377.89 112.646 388.78 112.646 400 112.646C400 110.666 400 108.686 400 106.646C399.01 106.646 398.02 106.646 397 106.646C397 105.656 397 104.666 397 103.646Z" fill="#362216"/>
<path d="M855 108.646C856.485 109.636 856.485 109.636 858 110.646C861.002 111.107 861.002 111.107 864.418 111.278C865.672 111.362 866.925 111.446 868.217 111.532C869.527 111.611 870.837 111.689 872.188 111.771C873.523 111.857 874.858 111.944 876.193 112.032C879.462 112.245 882.731 112.449 886 112.646C886 113.636 886 114.626 886 115.646C881.925 115.695 877.85 115.731 873.775 115.755C872.389 115.765 871.002 115.779 869.616 115.796C867.623 115.821 865.63 115.831 863.637 115.841C861.838 115.857 861.838 115.857 860.003 115.873C857 115.646 857 115.646 854 113.646C854.33 111.996 854.66 110.346 855 108.646Z" fill="#2D180E"/>
<path d="M400 76.6456C404.521 76.5715 409.041 76.5171 413.562 76.4808C415.1 76.4657 416.639 76.4452 418.177 76.4193C420.387 76.383 422.595 76.3659 424.805 76.3526C425.839 76.3294 425.839 76.3294 426.895 76.3057C428.835 76.305 428.835 76.305 432 76.6456C432.66 77.6356 433.32 78.6256 434 79.6456C422.45 79.6456 410.9 79.6456 399 79.6456C399.33 78.6556 399.66 77.6656 400 76.6456Z" fill="#2C180E"/>
<path d="M523 18.6455C523.66 18.6455 524.32 18.6455 525 18.6455C525 27.8855 525 37.1255 525 46.6455C524.01 45.9855 523.02 45.3255 522 44.6455C521.644 42.2471 521.644 42.2471 521.672 39.2705C521.677 38.2032 521.682 37.1358 521.687 36.0361C521.708 34.9172 521.729 33.7983 521.75 32.6455C521.755 31.5266 521.76 30.4077 521.766 29.2549C521.846 20.9539 521.846 20.9539 523 18.6455Z" fill="#2F190F"/>
<path d="M764 44.6455C764.33 44.6455 764.66 44.6455 765 44.6455C765.66 56.8555 766.32 69.0655 767 81.6455C766.01 81.3155 765.02 80.9855 764 80.6455C763.833 75.6795 763.672 70.7133 763.518 65.7468C763.464 64.056 763.409 62.3653 763.352 60.6746C763.27 58.2496 763.195 55.8246 763.121 53.3994C763.094 52.639 763.067 51.8786 763.039 51.0951C762.987 49.2793 762.988 47.462 763 45.6455C763.33 45.3155 763.66 44.9855 764 44.6455Z" fill="#2E190F"/>
<path d="M823 76.6457C829.433 76.5506 835.658 76.4925 842 77.6457C842 78.3057 842 78.9657 842 79.6457C835.73 79.6457 829.46 79.6457 823 79.6457C823 78.6557 823 77.6657 823 76.6457Z" fill="#2D180E"/>
<path d="M87.2656 14.9191C87.838 15.1588 88.4103 15.3986 89 15.6456C87.1907 17.6487 85.3778 19.6481 83.5625 21.6456C83.0462 22.218 82.53 22.7903 81.9981 23.38C80.6859 24.8208 79.3451 26.2355 78 27.6456C77.67 27.6456 77.34 27.6456 77 27.6456C76.6631 24.4452 76.7192 23.0423 78.6094 20.3722C79.669 19.3319 79.669 19.3319 80.75 18.2706C81.7941 17.2072 81.7941 17.2072 82.8594 16.1222C85 14.6456 85 14.6456 87.2656 14.9191Z" fill="#352117"/>
<path d="M500 85.6455C500.66 85.6455 501.32 85.6455 502 85.6455C503.429 94.2169 503.429 94.2169 501 97.6455C500.67 97.6455 500.34 97.6455 500 97.6455C500 93.6855 500 89.7255 500 85.6455Z" fill="#372216"/>
<path d="M8 99.6455C8.66 100.306 9.32 100.966 10 101.646C8.75 104.146 8.75 104.146 7 106.646C5.68 106.646 4.36 106.646 3 106.646C4.293 103.761 5.65941 101.773 8 99.6455Z" fill="#362216"/>
<path d="M69 35.6455C67.7306 39.5595 66.4883 41.4362 63 43.6455C63.3125 40.7705 63.3125 40.7705 64 37.6455C67 35.6455 67 35.6455 69 35.6455Z" fill="#372216"/>
<path d="M499 16.6455C499.99 16.9755 500.98 17.3055 502 17.6455C502 21.6055 502 25.5655 502 29.6455C501.67 29.6455 501.34 29.6455 501 29.6455C500.34 25.3555 499.68 21.0655 499 16.6455Z" fill="#2C180E"/>
</svg>
