<svg width="392" height="144" viewBox="0 0 392 144" fill="none" xmlns="http://www.w3.org/2000/svg">
<path d="M295.827 -0.375051C297.148 -0.359824 297.148 -0.359824 298.496 -0.344289C304.711 -0.195733 310.197 0.343473 315.889 2.99995C316.81 3.42534 317.73 3.85073 318.678 4.28901C329.743 9.86592 337.379 18.3413 342.069 29.9101C344.308 38.3427 343.718 47.1883 339.889 55C338.889 56 338.889 56 337.042 56.0976C334.991 56.0651 332.94 56.0325 330.889 56C328.787 52.4903 328.446 49.2846 328.014 45.25C326.839 36.4761 324.619 30.9095 317.889 24.9999C317.147 24.3193 316.404 23.6387 315.639 22.9374C306.946 16.8127 297.944 14.9649 287.452 16.4999C282.576 17.6398 279.979 20.3643 276.713 24.0273C274.884 26.0055 273.164 27.557 270.889 28.9999C266.21 28.9999 263.418 27.8023 259.389 25.4999C249.655 20.3962 237.263 21.0778 226.889 23.9999C218.462 27.0826 210.897 32.4883 205.889 40C205.229 40 204.569 40 203.889 40C203.535 41.2742 203.535 41.2742 203.174 42.5742C201.731 46.4216 199.733 49.523 197.327 52.8125C196.878 53.4256 196.43 54.0387 195.968 54.6704C188.011 65.3498 178.569 73.8015 165.542 77.7031C149.026 79.5516 136.604 77.2025 121.991 69.5234C115.327 66.2502 108.006 65.6599 100.889 67.9765C97.8606 69.2621 94.8724 70.6125 91.8892 71.9999C80.0645 77.2647 70.6035 77.2839 58.5142 72.9374C57.7652 72.6437 57.0161 72.35 56.2444 72.0473C51.3822 70.1999 48.0819 69.6177 42.8892 70.9999C36.378 74.1305 31.4257 77.6957 27.8892 83.9999C27.2292 83.9999 26.5692 83.9999 25.8892 83.9999C25.6726 85.8562 25.6726 85.8562 25.4517 87.7499C25.209 89.8306 24.9626 91.7614 24.3462 93.7656C23.5174 97.8175 23.9324 102.037 24.104 106.156C24.1708 109.409 24.0983 111.622 22.5064 114.5C20.8892 116 20.8892 116 18.8892 116C17.465 122.984 16.1432 129.983 14.8892 137C13.1211 137.249 11.3494 137.474 9.57669 137.687C8.0975 137.879 8.09749 137.879 6.58841 138.074C3.88919 138 3.88919 138 2.09623 136.832C-0.669479 132.634 -0.146949 128.543 0.576694 123.75C0.799057 122.164 0.799057 122.164 1.02591 120.547C1.74464 117.594 2.56588 115.416 3.85404 112.711C6.10765 107.856 6.94891 103.133 7.76419 97.8749C10.4437 82.6471 14.5831 69.3296 27.7837 59.9414C36.6624 54.4592 44.5093 50.7784 54.9595 53.1171C59.3192 54.4309 63.4849 56.145 67.6509 57.9765C75.1955 60.3609 80.4323 58.7934 87.3267 55.625C98.8084 50.6468 98.8084 50.6468 104.889 50C105.648 49.9187 106.408 49.8375 107.19 49.7539C117.648 49.2034 127.089 53.618 136.514 57.625C149.284 63.0902 149.284 63.0902 162.639 61.2343C172.925 55.5913 180.261 46.6431 187.061 37.32C197.148 23.5453 206.543 12.9101 222.889 6.99995C223.665 6.71636 224.441 6.43276 225.241 6.14057C236.523 2.91706 249.355 4.64335 260.522 7.44136C267.452 8.59107 271.277 6.81625 276.889 2.99995C283.162 0.227613 289.025 -0.488678 295.827 -0.375051Z" fill="#402617"/>
<path d="M385.889 34C387.539 34.33 389.189 34.66 390.889 35C394.064 49.3879 389.376 65.9532 381.764 78.125C371.367 93.8707 357.567 102.495 340.285 108.977C334.943 111.028 330.283 113.376 325.577 116.625C310.433 127.008 293.631 130.483 275.506 127.352C267.208 125.593 260.126 122.436 252.78 118.293C250.097 116.839 250.097 116.839 247.791 117.07C245.274 118.301 243.342 119.878 241.202 121.688C226.273 133.913 209.475 142.262 189.889 143C188.955 143.052 188.02 143.103 187.057 143.156C165.809 143.798 147.778 137.537 129.527 127.19C121.226 122.494 114.549 119.904 104.889 121C100.369 122.324 97.5899 124.189 94.5141 127.75C92.6291 131.52 91.7416 134.88 90.8891 139C85.6091 139 80.3291 139 74.8891 139C74.2391 129.088 76.871 120.486 83.1899 112.719C91.267 104.549 101.835 103.122 112.889 103C125.14 103.732 134.915 107.335 145.139 114C162.229 124.879 183.481 126.343 202.959 122.039C213.133 119.512 222.12 115.07 229.889 108C230.825 107.167 230.825 107.167 231.78 106.316C236.298 102.063 239.632 97.261 242.889 92C248.193 92.4472 251.767 95.3855 256.014 98.3125C270.135 107.76 284.262 110.937 301.131 108.539C309.056 106.631 315.235 102.668 320.952 96.9375C324.903 93.3905 329.709 92.3761 334.692 90.9624C341.417 88.9917 347.095 85.955 352.889 82C353.53 81.563 354.17 81.126 354.831 80.6758C360.967 75.9349 365.372 69.224 369.889 63C371.016 61.4705 371.016 61.4705 372.166 59.9102C376.347 53.9854 378.974 48.5328 381.014 41.582C382.066 38.4782 383.576 36.3129 385.889 34Z" fill="#422615"/>
<path d="M130.952 69.5625C141.959 75.2666 151.463 75.8925 163.514 73.5625C164.965 73.2928 166.415 73.0233 167.866 72.7539C168.547 72.6252 169.228 72.4965 169.929 72.3638C172.577 71.8725 175.232 71.4318 177.889 71C175.957 72.9327 174.489 73.8496 172.077 75.0625C171.41 75.4041 170.744 75.7457 170.057 76.0977C160.519 80.0678 144.925 79.6768 135.327 76.1289C130.819 74.0414 126.387 71.8338 121.991 69.5235C115.327 66.2503 108.006 65.66 100.889 67.9766C97.8606 69.2622 94.8723 70.6126 91.8892 72C79.1769 77.66 68.6337 76.935 55.811 72.2891C52.8892 71 52.8892 71 51.8892 69C56.2954 69.3876 60.427 69.8712 64.7017 71.0625C75.4169 73.8155 84.0165 71.4275 93.8892 67C107.685 60.9477 117.809 62.738 130.952 69.5625Z" fill="#362216"/>
<path d="M294.389 12.5C295.099 12.5142 295.809 12.5285 296.54 12.5432C307.25 12.9662 315.077 16.059 322.76 23.6562C331.03 32.761 332.364 42.9007 331.889 55C329.371 53.1097 328.904 52.0789 328.299 48.9257C328.185 47.7334 328.07 46.541 327.952 45.3125C326.841 36.4813 324.658 30.943 317.889 25C317.147 24.3193 316.404 23.6387 315.639 22.9375C305.237 15.6088 295.125 15.4462 282.889 17C286.218 12.7202 289.238 12.3583 294.389 12.5Z" fill="#362216"/>
<path d="M241.202 18.6875C242.521 18.6827 242.521 18.6827 243.868 18.6777C248.164 18.7136 251.09 18.8351 254.889 21C254.559 21.66 254.229 22.32 253.889 23C252.946 22.9046 252.002 22.8092 251.03 22.7109C237.528 21.5451 225.419 22.2188 214.374 31C211.089 33.8817 207.964 36.8967 204.889 40C204.601 36.9809 204.563 35.4688 206.323 32.9375C216.385 23.2089 227.174 18.4248 241.202 18.6875Z" fill="#362216"/>
<path d="M333.889 18C339.82 22.9427 342.465 28.8009 343.241 36.4805C343.403 43.3426 342.919 48.8183 339.889 55C338.889 56 338.889 56 335.827 56.0625C334.857 56.0419 333.888 56.0213 332.889 56C334.159 54.5026 335.428 53.0052 336.698 51.5078C340.591 46.5808 339.523 38.029 338.889 32C337.834 28.5625 336.485 25.5961 333.889 23C333.849 21.3338 333.846 19.6661 333.889 18Z" fill="#362116"/>
<path d="M205.889 16C206.219 16.99 206.549 17.98 206.889 19C205.621 20.2948 204.35 21.5857 203.077 22.875C202.369 23.5943 201.661 24.3136 200.932 25.0547C198.889 27 198.889 27 195.889 29C195.58 29.8456 195.27 30.6913 194.952 31.5625C194.601 32.3669 194.25 33.1712 193.889 34C191.764 34.8125 191.764 34.8125 189.889 35C192.677 29.6332 195.776 25.7219 200.139 21.5625C200.971 20.7514 200.971 20.7514 201.819 19.9238C203.169 18.6088 204.528 17.3034 205.889 16Z" fill="#362216"/>
<path d="M257.889 23C259.312 23.2166 259.312 23.2166 260.764 23.4375C265.457 24.112 270.171 24.5538 274.889 25C273.327 27.0625 273.327 27.0625 270.889 29C265.462 29 262.122 27.3033 257.889 24C257.889 23.67 257.889 23.34 257.889 23Z" fill="#362216"/>
<path d="M201.889 40C202.549 40 203.209 40 203.889 40C202.492 45.05 200.29 48.6959 197.264 52.875C196.844 53.468 196.424 54.0609 195.991 54.6719C194.964 56.1193 193.927 57.5603 192.889 59C192.217 57.207 192.217 57.207 191.889 55C192.999 53.3242 192.999 53.3242 194.639 51.6875C197.782 48.3117 199.259 45.2905 200.889 41C201.219 40.67 201.549 40.34 201.889 40Z" fill="#362216"/>
<path d="M185.889 39C186.549 39 187.209 39 187.889 39C187.577 40.9375 187.577 40.9375 186.889 43C185.899 43.33 184.909 43.66 183.889 44C183.156 46.0151 183.156 46.0151 182.889 48C181.569 48.33 180.249 48.66 178.889 49C179.867 47.5199 180.846 46.0409 181.827 44.5625C182.372 43.7388 182.917 42.9151 183.479 42.0664C184.889 40 184.889 40 185.889 39Z" fill="#372216"/>
<path d="M280.889 17C281.549 17.33 282.209 17.66 282.889 18C280.579 20.31 278.269 22.62 275.889 25C275.559 23.68 275.229 22.36 274.889 21C276.869 19.68 278.849 18.36 280.889 17Z" fill="#362116"/>
</svg>
